<svg width="235" height="55" viewBox="0 0 235 55" fill="none" xmlns="http://www.w3.org/2000/svg">
<path d="M66.3642 0.33196C53.8583 1.39369 44.0535 10.5843 41.7191 22.1971C48.389 16.258 61.1617 14.1345 80.6712 20.8035C85.0732 22.2965 89.1086 23.8892 92.8104 25.5481C96.1786 27.0411 99.6137 28.8328 103.182 30.8901C110.552 35.1037 118.79 40.9764 125.426 48.0437H143.701L156.508 22.0975L161.377 48.0437H174.35L166.379 10.3189H154.407C152.539 10.3189 151.739 10.8498 150.905 12.1769L135.231 43.0335L124.426 33.312C129.328 31.9517 134.797 28.2026 136.298 21.8984C139.033 10.7502 129.561 10.2857 126.393 10.2857H109.018C106.75 10.2857 106.35 10.7834 105.883 12.8073L102.548 28.468C94.0109 22.927 74.635 11.7124 60.9951 11.5465C57.5934 11.5133 55.0588 12.011 52.6577 13.5041C52.2908 13.7364 52.1908 13.7032 52.1242 13.67L52.3242 13.305C53.7916 11.5134 56.793 8.62675 61.8288 7.10052C61.8288 7.10052 69.866 4.31346 80.6712 10.8166C86.9408 14.599 91.1762 17.7842 95.2782 21.1686C92.3434 9.09127 81.505 0.232422 68.7321 0.232422C67.965 0.232422 67.1647 0.265602 66.3642 0.33196ZM117.689 16.1252H122.191C122.191 16.1252 126.727 15.8598 125.093 21.8984C125.093 21.8984 123.325 29.0984 114.988 29.0984C115.354 27.2735 117.422 17.4192 117.689 16.1252Z" fill="url(#paint0_radial_29_19)"/>
<path d="M51.7164 25.6712C51.7164 25.6712 45.4434 28.5771 45.0118 35.6767C44.6137 42.6113 49.8909 47.3993 49.8909 47.3993L49.9242 47.4324C55.4336 52.5507 63.0013 55.3575 71.0997 54.664C83.5462 53.6073 93.1714 44.3284 95.4948 32.7709C96.4241 33.0021 98.4156 33.5635 101.237 34.488L98.3493 48.0597H111.094C111.094 48.0597 112.123 42.7103 113.119 38.4837C105.883 34.1248 98.1832 31.1199 98.1832 31.1199C84.5088 25.308 73.2239 23.0957 64.7935 23.0957C59.0847 23.0957 54.6704 24.1193 51.7164 25.6712Z" fill="url(#paint1_radial_29_19)"/>
<path d="M186.627 10.3171C184.281 10.3171 183.301 11.1489 182.82 13.3215L177.167 48.0527H189.404L195.997 10.3171H186.627ZM43.68 10.2964H33.0022C31.3565 10.2964 30.4275 10.8159 29.3336 11.8317L17.1245 23.6509L20.0764 10.2964H10.401C8.09305 10.2964 7.14489 11.1178 6.67721 13.2395L0.13623 48.0585H12.2717L15.6126 31.658L26.9161 48.0585H42.0345L26.9833 26.7217L43.68 10.2964ZM209.825 39.2069L214.817 10.3171H205.452C203.143 10.3171 202.158 11.1122 201.665 13.1972L195.993 48.0527H225.904L227.046 39.2069H209.825Z" fill="#0066B3"/>
<defs>
<radialGradient id="paint0_radial_29_19" cx="0" cy="0" r="1" gradientUnits="userSpaceOnUse" gradientTransform="translate(65.6639 21.2898) scale(33.3494 33.1793)">
<stop stop-color="#00AFDC"/>
<stop offset="0.2" stop-color="#00AFDC"/>
<stop offset="1" stop-color="#0066B3"/>
</radialGradient>
<radialGradient id="paint1_radial_29_19" cx="0" cy="0" r="1" gradientUnits="userSpaceOnUse" gradientTransform="translate(65.4574 21.1666) scale(33.1906 33.0213)">
<stop stop-color="#00AFDC"/>
<stop offset="0.2" stop-color="#00AFDC"/>
<stop offset="1" stop-color="#0066B3"/>
</radialGradient>
</defs>
</svg>
