<svg width="195" height="218" viewBox="0 0 195 218" fill="none" xmlns="http://www.w3.org/2000/svg">
<g clip-path="url(#clip0_29_24)">
<path d="M158.016 44.2792C156.207 34.1637 150.416 30.1175 141.729 26.0709C133.165 22.0819 112.644 17.3089 97.4994 17.1753C82.3558 17.3094 61.8348 22.0819 53.2706 26.0709C44.584 30.1171 38.793 34.1633 36.9833 44.2792L30.4688 100.359V177.633H41.6887V189.751C41.6887 204.526 61.0295 204.526 61.0295 189.751V177.633H96.7358H96.8489H133.971V189.751C133.971 204.526 153.311 204.526 153.311 189.751V177.633H164.531V100.359L158.016 44.2792ZM69.9204 31.3312H96.8484H125.08C130.509 31.3312 130.509 40.4354 125.08 40.4354H96.7827H69.9204C64.491 40.4354 64.491 31.3312 69.9204 31.3312ZM51.3668 153.408C46.2427 153.408 42.0885 148.764 42.0885 143.036C42.0885 137.307 46.2427 132.663 51.3668 132.663C56.4909 132.663 60.6451 137.307 60.6451 143.036C60.6451 148.764 56.4909 153.408 51.3668 153.408ZM96.8484 106.269H47.637C42.819 106.269 41.8104 102.399 42.2833 98.5006L47.3537 57.8266C48.0502 52.885 49.5486 49.6271 55.2836 49.6271H96.7827H139.716C145.452 49.6271 146.949 52.885 147.646 57.8266L152.717 98.5006C153.19 102.399 152.181 106.269 147.363 106.269H96.8484ZM143.633 153.408C138.509 153.408 134.355 148.764 134.355 143.036C134.355 137.307 138.509 132.663 143.633 132.663C148.757 132.663 152.911 137.307 152.911 143.036C152.911 148.764 148.757 153.408 143.633 153.408Z" fill="black"/>
</g>
<defs>
<clipPath id="clip0_29_24">
<rect width="195" height="218" fill="white"/>
</clipPath>
</defs>
</svg>
