<svg version="1.2" xmlns="http://www.w3.org/2000/svg" viewBox="0 0 340 200" width="340" height="200">
	<title>새 프로젝트</title>
	<style>
		.s0 { fill: #231f20 } 
		.s1 { fill: #fabb85 } 
		.s2 { fill: #f7931d } 
		.s3 { fill: #fefefe } 
		.s4 { fill: #d12329 } 
		.s5 { fill: #00a550 } 
		.s6 { fill: #00652e } 
		.s7 { fill: #8dc63f } 
		.s8 { fill: #ba9474 } 
		.s9 { fill: #fcd1af } 
		.s10 { fill: #fcb712 } 
		.s11 { fill: #f0593f } 
		.s12 { fill: #ffffff } 
		.s13 { fill: #8b0405 } 
	</style>
	<path id="&lt;Path&gt;" class="s0" d="m228.6 92.8l-4.1 0.8c-5.6 1.2-26.5 18.4-26.5 18.4-4 2.3-9.3 7.1-9.3 7.1-0.7 1-1.3-0.5-1.3-0.5-0.6-1-1.9-2-1.9-2-1-0.7-0.7-1.7-0.7-1.7 0.2-1.2 0.3-2.4 0.3-2.4-0.5-3.7-4.1-3.8-4.1-3.8-5.3 0.7-7 5.6-7 5.6-1.7 6.9 4.1 9.7 4.1 9.7 1.7 0.8 0 1.9 0 1.9-2.6 2.6-5.8 7.7-5.8 7.7-1.6 3.1-1.5 4.9-1.5 4.9-0.3 2.6 2.9 3.2 2.9 3.2-0.2 0.4-0.4 1.1-0.4 1.1-1.5 5.1 2.3 5.1 2.3 5.1 1.6 0.4 2.9-1.1 2.9-1.1 0.3 1.6 2.4 1.3 2.4 1.3 3.1-0.2 4-4.2 4-4.2 1.9-6.2 6.6-10.9 6.6-10.9 3.4-2.6 0.6-5.8 0.6-5.8 0.6-0.8 3.8-1.6 3.8-1.6 0 0 22.7-5.9 29.7-10.3 0 0 10-4.8 10.6-9.7 0 0 3.1-12.3-7.6-12.8z"/>
	<path id="&lt;Path&gt;" class="s1" d="m224.2 94.9c-5.4 1.1-36.1 25.9-36.1 25.9-1.2 0.5-1.5 1.6-1.5 1.6-0.3 1 0.5-0.9 0.5-0.9 0.1-2.5-2.9-4.4-2.9-4.4-1.9-1.9-0.9-4.5-0.9-4.5 0.6-2.7-2.1-2.6-2.1-2.6-4.1 0.6-5.4 4.4-5.4 4.4-2.3 5.4 3.7 8 3.7 8 1.7 1.3 0.5 3.5 0.5 3.5-4.6 5.4-6.6 9.2-6.6 9.2-1.9 3.6-0.1 4.7-0.1 4.7 0.7 0.7 1.1 0 1.1 0 1.9-4.9 3.9-7.6 3.9-7.6-0.5-0.6-0.6-1.4-0.6-1.4 0-0.7 0.5-0.3 0.5-0.3 2.2 4.2 5.6 4 5.6 4 0.8 0.3 0.1 1 0.1 1-1 0-1.7-0.4-1.7-0.4l-0.2 0.4c-1.6 2.6-2.4 6.8-2.4 6.8-1.4 3.9 1.1 4.3 1.1 4.3 2.1 0.1 3-3 3-3 1.5-6.4 7.3-12.8 7.3-12.8 1.9-2-1-3.8-1-3.8 1.5-1.5 11.4-4.3 11.4-4.3 0 0 28.1-6.8 33.2-16.5 0 0 3.2-14-10.4-11.3z"/>
	<path id="&lt;Path&gt;" class="s1" d="m181.2 134.8c0 0-2.5 5-2.9 8.6 0 0 0.2 2.9-2.5 2.9 0 0-2.8 0.1-1.2-4.8 0 0 2-5.1 4-8.5 0 0 1.7 1.5 2.6 1.8z"/>
	<path id="&lt;Path&gt;" class="s2" d="m233.8 98.4c0 0 2.3 5.6 0 8.9 0 0-1.7 5.1-18.8 11.2 0 0-19.7 5.7-25 8.5 0 0 9.7-8.1 23.1-11.3 0 0 5.6-1.1 8.4-3 0 0 10.4-4.4 12.3-14.3z"/>
	<path id="&lt;Path&gt;" class="s0" d="m101.5 97.4l4.1 0.6c5.6 0.9 26.8 17 26.8 17 4 2.1 9.4 6.5 9.4 6.5 0.7 1 1.2-0.5 1.2-0.5 0.6-1 1.8-2 1.8-2 1-0.8 0.6-1.7 0.6-1.7-0.2-1.2-0.4-2.4-0.4-2.4 0.4-3.7 3.9-3.8 3.9-3.8 5.3 0.4 7.1 5.2 7.1 5.2 1.9 6.7-3.6 9.6-3.6 9.6-1.6 0.9 0.1 1.9 0.1 1.9 2.6 2.4 5.9 7.3 5.9 7.3 1.7 3 1.7 4.8 1.7 4.8 0.5 2.5-2.7 3.2-2.7 3.2 0.2 0.4 0.5 1.1 0.5 1.1 1.6 4.9-2.1 5.1-2.1 5.1-1.5 0.4-2.9-1-2.9-1-0.2 1.6-2.3 1.4-2.3 1.4-3.1-0.1-4.1-4-4.1-4-2.1-6-6.9-10.4-6.9-10.4-3.4-2.4-0.8-5.7-0.8-5.7-0.7-0.7-3.8-1.4-3.8-1.4 0 0-22.5-4.9-29.6-8.9 0 0-10-4.3-10.8-9.1 0 0-3.5-12 6.9-12.8z"/>
	<path id="&lt;Path&gt;" class="s1" d="m106 99.3c5.3 0.8 36.4 23.9 36.4 23.9 1.3 0.4 1.6 1.5 1.6 1.5 0.3 0.9-0.5-0.9-0.5-0.9-0.2-2.4 2.6-4.4 2.6-4.4 1.8-2 0.7-4.5 0.7-4.5-0.6-2.6 2-2.6 2-2.6 4 0.4 5.5 4.1 5.5 4.1 2.5 5.2-3.3 8-3.3 8-1.7 1.4-0.4 3.4-0.4 3.4 4.7 5.1 6.9 8.8 6.9 8.8 1.9 3.5 0.2 4.7 0.2 4.7-0.6 0.6-1 0-1 0-2.1-4.7-4.1-7.3-4.1-7.3 0.3-0.6 0.4-1.4 0.4-1.4 0-0.7-0.5-0.2-0.5-0.2-2 4.1-5.3 4-5.3 4-0.8 0.3-0.1 1-0.1 1 1.1 0 1.7-0.4 1.7-0.4l0.2 0.3c1.7 2.5 2.7 6.6 2.7 6.6 1.5 3.8-0.9 4.3-0.9 4.3-2.1 0.1-3.1-2.8-3.1-2.8-1.8-6.3-7.7-12.3-7.7-12.3-1.9-1.8 0.8-3.8 0.8-3.8-1.5-1.3-11.3-3.7-11.3-3.7 0 0-27.9-5.5-33.2-14.9 0 0-3.8-13.5 9.7-11.4z"/>
	<path id="&lt;Path&gt;" class="s1" d="m149.7 136.7c0 0 2.7 4.7 3.3 8.3 0 0-0.1 2.8 2.5 2.7 0 0 2.8 0 1-4.7 0 0-2.2-5-4.3-8.2 0 0-1.6 1.6-2.5 1.9z"/>
	<path id="&lt;Path&gt;" class="s2" d="m96.7 103.1c0 0-2 5.5 0.3 8.7 0 0 1.9 4.9 19 10.2 0 0 19.5 4.8 24.8 7.3 0 0-9.8-7.5-23.1-10.1 0 0-5.5-0.9-8.4-2.6 0 0-10.3-3.9-12.6-13.5z"/>
	<path id="&lt;Path&gt;" class="s0" d="m286.9 140.8l-3.5 0.4c11.1 2.5 10.5 4.4 10.5 4.5-2.2 3.9-12.6 2.7-12.7 2.7l0.8 1c0.5 0.2 9.1 0.6 13.9-2.3 3.6-2.2 3.8-3.7-9-6.3z"/>
	<path id="&lt;Path&gt;" class="s1" d="m284.9 140.7c0 0 19.7 4.6 4 8.1l-6.3 0.1-5-5v-1.3z"/>
	<path id="&lt;Path&gt;" class="s2" d="m294.3 144.4c-5 5-10.8 1.1-13 0.2-8.9-3.7 0.7 4.8 0.7 4.8l4.1-0.4 3.3-0.2c0 0 8-1.4 4.9-4.4z"/>
	<path id="&lt;Path&gt;" class="s0" d="m44.7 143.4l3.5 0.3c-11.2 2.5-10.5 4.5-10.5 4.6 2.1 3.8 12.6 2.6 12.7 2.6l-0.8 1.1c-0.5 0.1-9.1 0.5-13.9-2.3-3.7-2.3-3.8-3.8 9-6.3z"/>
	<path id="&lt;Path&gt;" class="s1" d="m46.7 143.3c0 0-19.7 4.5-4 8l6.3 0.2 5-5v-1.4z"/>
	<path id="&lt;Path&gt;" class="s2" d="m37.3 147c5 5 10.8 1 13 0.1 8.9-3.7-0.7 4.9-0.7 4.9l-4.1-0.4-3.3-0.3c0 0-8-1.4-4.9-4.3z"/>
	<path id="&lt;Path&gt;" class="s0" d="m246 140.8l-8.8-1.9c0 0-6.3-1.3-9.2 8.5 0 0-2.3 7.5-6.4 11.5 0 0-15.1-8.2-23 5 0 0-6.5 10.9 7 15.5 0 0 9 1.3 15.5 1.4 0 0 19.6 2.2 24-7.5 0 0 1.3-3-0.5-8.1 0 0-2.7-18.8 1.4-24.4z"/>
	<path id="&lt;Path&gt;" class="s1" d="m234.9 141.2c0 0-4 0-6.8 8.5 0 0-2.2 7.9-6.1 11.4 0 0-13.4-9.4-20.3 2.6 0 0-6.8 12.3 5.2 14.3 0 0 8.2 1.4 14.3 1.5 0 0 19 1.5 22.1-7.4 0 0 1.6-2.3-0.5-6.9 0 0-2.1-16.5 1.7-21.4z"/>
	<path id="&lt;Path&gt;" class="s2" d="m243.6 143.1q0 0-0.1 0.3c-0.3 2.5-2.6 18.6-0.3 23.1 0 0 4.6 10.7-12.2 12.2 0 0-18.3 1.5-27.2-2.4 0 0 25.4 3.6 31.8-1.4 0 0 5.7-3.9 3.6-8.1q0-0.2-0.1-0.3c-2.5-4.4-1.4-5.4-0.8-9.5 0 0 2.2-9.3-2.5-15.1z"/>
	<path id="&lt;Path&gt;" class="s2" d="m222.8 160.6c0 0 2.5 2.3 3.3 2.4l2.5 0.7-4.1-4.2-0.5-0.4z"/>
	<path id="&lt;Path&gt;" class="s1" d="m221.9 160.4c0 0 1.5 2.2 5.7 3.2"/>
	<path id="&lt;Path&gt;" class="s0" d="m221.6 160.7c0 0.1 1.6 2.2 5.9 3.2l0.2-0.7c-4-1-5.5-3-5.5-3z"/>
	<path id="&lt;Path&gt;" class="s0" d="m86.1 145.3l8.4-1.8c0 0 6-1.3 8.8 8 0 0 2.1 7.3 6 11.1 0 0 14.5-7.9 22 4.7 0 0 6.2 10.4-6.7 14.8 0 0-8.5 1.3-14.7 1.4 0 0-18.8 2-22.9-7.2 0 0-1.3-2.8 0.5-7.8 0 0 2.5-17.9-1.4-23.2z"/>
	<path id="&lt;Path&gt;" class="s1" d="m96.7 145.7c0 0 3.8 0 6.5 8.1 0 0 2.1 7.5 5.8 10.8 0 0 12.8-9 19.4 2.5 0 0 6.5 11.8-5 13.7 0 0-7.8 1.3-13.6 1.4 0 0-18.1 1.4-21.1-7 0 0-1.5-2.3 0.5-6.6 0 0 2-15.8-1.7-20.4z"/>
	<path id="&lt;Path&gt;" class="s2" d="m88.4 147.5q0 0 0.1 0.3c0.3 2.4 2.4 17.7 0.3 22 0 0-4.4 10.2 11.6 11.6 0 0 17.5 1.5 25.9-2.2 0 0-24.2 3.4-30.2-1.3 0 0-5.5-3.8-3.5-7.8q0-0.2 0.1-0.3c2.4-4.2 1.3-5.2 0.8-9.1 0 0-2.1-8.9 2.3-14.3z"/>
	<path id="&lt;Path&gt;" class="s2" d="m108.2 164.2c0 0-2.4 2.2-3.1 2.3l-2.4 0.7 3.9-4.1 0.5-0.3z"/>
	<path id="&lt;Path&gt;" class="s1" d="m109.1 164c0 0-1.4 2.1-5.5 3"/>
	<path id="&lt;Path&gt;" class="s0" d="m103.5 166.7l0.2 0.7c4.1-1 5.7-3.1 5.7-3.1l-0.6-0.5c0 0-1.4 1.9-5.3 2.9z"/>
	<path id="&lt;Path&gt;" class="s0" d="m224.2 132.4c13.2 17.6 44.1 0.1 45.5-0.6l-2.7 0.9c-0.4 0.1-29.9 14.3-43.1-2z"/>
	<path id="&lt;Path&gt;" class="s1" d="m198.9 27.5l5.3-3 13.1-3.9c0 0 22.7-2.2 33.6 18.4 0 0 9.2 15.4 9.8 26.9 0 0 0.4 6.5 0.2 9.4-0.4 5.6-5.1 7.9-19 16.9 0 0-9.3 6.1-13.8 3.7-4.6-2.3-5.4-5.9-11.8-3.5-6.4 2.4-9.2 4.2-9.2 4.2l-3.2-3.4-3.1-3.3-13.4-4.6-4.6-6.3c0 0-6.5-13-1.9-18 4.7-5 7.2-5.7 7.1-9.8-0.2-3.7-0.1-6.9-0.2-8.2-0.3-2.2-0.5-11.8 11.1-15.5z"/>
	<path id="&lt;Path&gt;" class="s2" d="m209.1 94.4c0 0 2.1-1.3 5.6-5.1 3.4-3.7 9.1-1.8 18.2-3.2 9.2-1.4 20.9-11.2 17.3-39.9 0 0 3.8-1.7 6.4 4.4 2.7 6.2 5.5 20 4.8 22.9-0.3 1.3-0.1 3.2-0.6 4.3-1.6 3.9-5.5 5.8-5.5 5.8l-6.9 5.5-7.7 4.2-9.9 2.8-3.8-0.8-3.2-2.6-3.7-1.2-6 1.7-2.9 2.6z"/>
	<path id="&lt;Path&gt;" class="s0" d="m198.4 67.6c0 0-2.1 0.5-2.8 0.7-0.3-0.5-0.8-1.3-0.8-1.3-0.2-0.3-0.6-0.4-1-0.2-0.3 0.2-0.4 0.6-0.2 1l1.1 1.7c0.2 0.3 0.5 0.4 0.8 0.3l3.3-0.8c0.3-0.1 0.6-0.5 0.5-0.9-0.1-0.3-0.5-0.6-0.9-0.5z"/>
	<path id="&lt;Path&gt;" class="s3" d="m215.8 57.3c0 0-1.2-12 0.8-18.6 0 0 2.3-5.9 6.6-0.8l-0.2 16.8-3 1.5z"/>
	<path id="&lt;Compound Path&gt;" fill-rule="evenodd" class="s0" d="m215.2 57.1v-4.4l0.9-0.1 0.1 4.2q2-0.6 3.6-0.9c0.6-2.3 0-7.9-0.1-10.3-0.1-2.7-0.5-7.5 2.2-8q0.3 0 0.5 0-0.1-0.1-0.2-0.3-1-1-2.7-0.7c-2.9 0.3-3.5 7.1-3.5 9.6h-1c0-0.2 0-4 1.1-7.1q1-4.3 3.3-4.9c2.3-0.7 4.6 1.8 4.7 1.9l-0.4 0.4c0 0-2.2-2.4-4.2-1.8q-1 0.3-1.7 1.6c0.4-0.5 1-0.7 1.6-0.8 1.4-0.2 2.6 0.1 3.5 1q0.9 1 1.3 2.7c0.3 0.9 0.3 1.8 0.3 1.8q0 0.4 0 0.8 0.1 0.2 0.1 0.3l-0.1 0.1c0.1 7.3 1.1 11.8 1.6 13.4 0.9 0.2 1.3 0.6 1.3 0.7l-0.7 0.8c0-0.1-2.2-2.1-12.9 1.6l-0.3-1.1q0.9-0.3 1.7-0.5zm6.1-7.2c0.1-0.1 0.2-0.2 0.2-0.3-0.5-5.3-0.2-8.7-0.1-8.7 0-0.2-0.1-0.3-0.3-0.3-0.1 0-0.3 0.1-0.3 0.2 0 0.1-0.3 3.5 0.2 8.8 0 0.2 0.1 0.3 0.3 0.3z"/>
	<path id="&lt;Path&gt;" class="s3" d="m193.6 56.5c0 0-0.9-9.1 0.7-14.1 0 0 1.7-4.5 4.9-0.6l-0.2 12.8-2.3 1.1z"/>
	<path id="&lt;Compound Path&gt;" fill-rule="evenodd" class="s0" d="m193.1 56.4v-3.4h0.7v3.1q1.6-0.4 2.8-0.6c0.5-1.8 0-6.1 0-7.9-0.1-2-0.4-5.7 1.6-6q0.2-0.1 0.4-0.1 0-0.1-0.1-0.1-0.8-0.8-2.1-0.7c-2.1 0.3-2.6 5.4-2.7 7.4h-0.7c0-0.2 0.1-3.1 0.8-5.4q0.9-3.3 2.6-3.8c1.7-0.5 3.5 1.5 3.5 1.6l-0.3 0.2c0 0-1.6-1.8-3.1-1.4q-0.8 0.3-1.4 1.2 0.6-0.5 1.3-0.6c1-0.1 1.9 0.2 2.6 0.8q0.7 0.8 1 2.1c0.2 0.6 0.2 1.4 0.2 1.4q0 0.3 0 0.5 0 0.2 0 0.3c0 5.6 0.8 9 1.1 10.3 0.7 0.2 1 0.4 1 0.5l-0.5 0.6c0 0-1.6-1.6-9.8 1.2l-0.2-0.8q0.7-0.3 1.3-0.4zm4.6-5.5c0.1 0 0.2-0.1 0.2-0.2-0.4-4-0.1-6.6-0.1-6.7 0-0.1-0.1-0.2-0.2-0.2-0.1 0-0.2 0.1-0.2 0.2 0 0-0.3 2.7 0.1 6.7 0 0.1 0.1 0.2 0.2 0.2z"/>
	<path id="&lt;Path&gt;" class="s4" d="m203.5 81.9c0 0 3.2-2.8 5.2-2.9l-2.3 7.5z"/>
	<path id="&lt;Path&gt;" class="s3" d="m202.6 83l-1.4-3.6 3.7-1.5 4.7-1.2-1 3z"/>
	<path id="&lt;Compound Path&gt;" fill-rule="evenodd" class="s0" d="m221.2 75.3c-0.4 0.2-0.9 0-1.1-0.4q-0.2-0.5-0.4-0.8c-0.8 1.7-2.9 3.6-7.6 4.2-3.4 0.8-4.5 7.4-4.7 9.9 0 0.4-0.3 0.7-0.7 0.8-0.4 0-0.8-0.2-0.9-0.6-1.1-3.5-4.8-7.2-4.8-7.2l-0.3-0.3c-3.1-2.7-5.7-2.4-5.8-2.4-0.5 0.1-0.9-0.2-0.9-0.7-0.1-0.4 0.2-0.8 0.6-0.9 0.2 0 3.2-0.5 6.7 2.4 1.1-0.8 4-2.3 8.7-2.5q1 0 1.8-0.2 0.2 0 0.4 0c3.4-0.5 5.6-1.7 6.2-3.7-0.4-0.1-0.6 0-0.6 0-0.5 0-0.9-0.3-1-0.7-0.1-0.4 0.2-0.9 0.6-1 0.1 0 2.7-0.5 4.2 3 0.2 0.5 0 1-0.4 1.1zm-12.3 3.2c-3.2 0.3-5.3 1.3-6.3 1.9 0.7 0.8 2.3 2.7 3.6 4.8 0.4-2.1 1.2-4.8 2.7-6.7z"/>
	<path id="&lt;Path&gt;" class="s5" d="m258.5 54l-2.1-1.8-3.6-3.3c0 0-7.2-6.2-12.8-9.4-1.2-0.7-4.9-3.2-8.4-3.8-1.2-0.2-1.8-0.5-2-0.8-3.1-7-8.9-7.9-11-8.2-4.5-0.4-9.2 2.6-11.7 2.7-6.4 0.5-5.5-0.7-5.5-0.7l-5.3-0.7c0 0 2.5-4.9 11-9.9 0 0 3.4-3.2 10.6-2.2 7.2 1 17.4 2.1 20.8 2.5l3.9 1.6c0 0 9.1 3.7 12.1 15.5 3.1 11.9 3.7 14.2 3.7 14.2l2.4-1.7c0 0 6.6-3.8 14.7 2.9 0 0-0.9 2.5-3.3 3.4 0 0 4.5 6.4 1.6 11.3 0 0-0.5-2.1-2.7-2.5 0 0-10.7-1.6-11.1-7.5z"/>
	<path id="&lt;Path&gt;" class="s0" d="m257.6 49c-0.4 0.4-0.4 0.9-0.1 1.2 0.3 0.3 0.8 0.4 1.2 0.1 0.3-0.3 6.6-5.8 15.7 0.8-0.5 0.7-1.5 1.9-3.5 2.6-2.8 1-6.6 0.2-11.1-2.1 0.6-0.6 1.9-1.2 4.9-0.4 0.4 0.1 0.9-0.1 1-0.6 0.1-0.4-0.1-0.8-0.6-1-6.1-1.7-7.2 2-7.2 2.1-0.1 0.4 0 0.8 0.4 0.9 5.2 3 9.7 3.9 13.2 2.6 3.5-1.2 4.6-4 4.7-4.1 0.1-0.3 0-0.7-0.3-0.9-10.5-8.1-18.2-1.2-18.3-1.2z"/>
	<path id="&lt;Path&gt;" class="s0" d="m258.3 53.4c0 0 0.3 8.5 11.2 10.2 0 0 2.3 0.5 3.5 2.6 0.2 0.3 0.5 0.5 0.8 0.5 0.3-0.1 0.6-0.2 0.7-0.5 0.1-0.3 3.1-6.7-1.2-11.3-0.3-0.3-0.8-0.4-1.2 0-0.2 0.1-0.2 0.4-0.2 0.6q0 0.3 0.2 0.5c1.2 1.3 1.6 2.7 1.8 4.1 0.1 1.6-0.1 3-0.4 4-1.6-1.6-3.6-2.1-3.7-2.1-8.7-1.4-9.8-7.2-9.9-8.5q0-0.1 0-0.2 0 0 0 0c0-0.5-0.4-0.8-0.8-0.8-0.5 0-0.8 0.4-0.8 0.9z"/>
	<path id="&lt;Path&gt;" class="s6" d="m244.7 22.4c0 0 2.7-1.2 3.5 7.5 0.9 8.8 1.7 16 1.7 16l8.5 8-1.5-7.9c0 0-3.3-15.5-5-17.3-1.6-1.9-7.2-6.3-7.2-6.3z"/>
	<path id="&lt;Compound Path&gt;" fill-rule="evenodd" class="s0" d="m224.6 15.6l0.7 0.1c1 0.1 2.2 0.2 3.6 0.3 5.4 0.4 12.7 0.9 17.7 4.8 6.3 5 8.5 9.5 10.7 22l5.2 28.7q0 0.1 0 0.1c0.6 6.5-2.4 9.1-2.9 9.5-25.1 23-33.6 14.7-33.9 14.3-5.5-5.4-11-1.2-11.2-1-3.1 2.3-5.8 3.2-7.9 2.7-1.4-0.3-2.5-1.2-3.1-2.5-0.6-1.2-2.8-2.9-4.2-3.8-11.4-3.4-16.1-5.8-20-17.5q-0.7-2.4-0.9-4.4c-0.8-7.5 3.9-11.3 6.4-13.3l1-0.8c0.8-0.9 1.5-3.5 1-8.1q-0.2-1.9-0.7-4.3-0.1-0.5-0.1-1c-0.6-5.4 2.5-10.6 7.5-12.7 0.9-0.4 1.7-0.6 2.5-0.7-0.1-0.1-0.1-0.1-0.1-0.1 0 0 2-5.5 13.8-12.8 2-1.2 8.3-0.4 14.9 0.5zm-28.5 12.3c2.8-0.6 4.7 0 6 0.4 0.9 0.2 1.7 0.4 2.6 0.5 0.7 0 1.9-0.5 3.2-1 3.4-1.4 8.6-3.5 15-1 6.6 2.6 7.1 9.8 7.1 9.8v-0.1h-0.1c0 0-2.4-5.5-7.8-7.6-5.6-2.2-10.1-0.4-13.4 0.9-1.6 0.7-2.9 1.2-4.1 1.2-1.1-0.1-2.1-0.3-3.1-0.6-2-0.5-3.9-1-7.2 0.3-4.4 1.9-6.9 6.6-6 11.3 0.8 4.2 1.7 11.6-1 14.3l-1.1 1c-2.7 2.2-7.8 6.2-4.8 15.3 3.6 10.9 7.5 12.9 18.7 16.1q0.1 0.1 0.3 0.2c0.4 0.2 4 2.6 5.1 4.7 0.2 0.5 0.7 1.2 1.6 1.4 1 0.2 2.9 0 6-2.3 0.1-0.1 7.2-5.6 14.1 1.2 0.1 0 7.7 6.9 31-14.4q0-0.1 0.1-0.1c0.1-0.1 2.5-2 2-7.5-0.2-1.2-5.1-28.8-5.1-28.8-2.1-11.8-4.2-16-9.9-20.5-4.5-3.6-11.5-4-16.6-4.4-1.4-0.1-2.6-0.2-3.7-0.3l-0.6-0.1c-3.9-0.5-12-1.6-13.7-0.7-1.4 0.8-10.5 5.9-14.6 10.8z"/>
	<path id="&lt;Path&gt;" class="s0" d="m231.5 35.6c3.5 0.1 11.3 6.1 25.7 17.3 0.5 0.3 1.2 0.2 1.6-0.2 0.3-0.5 0.2-1.2-0.2-1.6-22.2-16.7-27.1-15.5-27.1-15.5z"/>
	<path id="&lt;Path&gt;" class="s7" d="m301.4 101.8c0 0-1.2 6-5.8 11.2 0 0 0.4 12.4 0.1 18.2 0 0 8.7-14.5 5.7-29.4z"/>
	<path id="&lt;Path&gt;" class="s8" d="m280.7 141.5c1.4-2.1 2.5-4.8 2.6-5 0.7-4.1 4.9-32.9-20.2-62.9l-0.8 4.6c0 0 20.1 22.6 18 57.5l-6.6 12.5 1.9-0.4c0 0 2.8-3 5.1-6.3z"/>
	<path id="&lt;Path&gt;" class="s5" d="m262.6 64.8c0 0 1.5 7 1.5 9.4 0 0 6.3 9.8 8.6 12.7 0 0 14.5-0.2 18.7 2.9 0 0-4-11.9-10.9-18.7z"/>
	<path id="&lt;Path&gt;" class="s9" d="m222.3 94.8c0 0-12 28.4 10.6 48.5 0 0 14.5 12.3 28.6 10.3 0 0 7.9 0.6 13.6-5.7 0 0 4.5-6.7 5.2-12.2 0 0 2.3-30.9-17.8-57.8 0 0-3.5 13-17.3 17.9 0 0-7.3 3.8-15.7 2.5 0 0-5.3-1-7.2-3.5z"/>
	<path id="&lt;Path&gt;" class="s5" d="m291.4 89.8c0 0 5.3 18 4.1 22.7 0 0 5.8-8.3 6.4-11.7 0 0-1-5.9-1.8-6 0 0-5-4.7-8.7-5z"/>
	<path id="&lt;Path&gt;" class="s5" d="m295.5 112.3c0 0-6.9 8.2-11.6 8.5 0 0 0 16.1-0.8 17.3 0 0-5.8 7.9-7.6 9.6 0 0 12.8-6.7 12.9-6.9 1.3-1.6 6.5-8 6.9-8.8 0 0 1.4-17.1 0.2-19.7z"/>
	<path id="&lt;Path&gt;" class="s7" d="m272.7 86.9c0 0 16.2 0.6 18.5 2.7 0 0 5.1 15.8 4.4 23.4 0 0-8.7 8.6-12.2 8.1 0 0-2.7-24.2-10.7-34.2z"/>
	<path id="&lt;Path&gt;" class="s7" d="m281.3 71.9c0 0 7.2 7.2 10 17 0 0 7.7 3.8 8.7 5.9 0 0-3.1-14-18.7-22.9z"/>
	<path id="&lt;Path&gt;" class="s8" d="m220.2 102.5c0 0 4.5 15.9 33.5 10.4 0 0-22.7 9.3-35-4.7z"/>
	<path id="&lt;Path&gt;" class="s8" d="m222.9 127.3c0 0 6.7 15.6 41.1 6.9 0 0-23.5 10.9-37.2 0.9 0 0-4.2-5.3-3.9-7.8z"/>
	<path id="&lt;Path&gt;" class="s8" d="m221.8 91.4c0 0 7.9 6.9 21.8-0.3 0 0 15.4-5.4 15.1-29 0 0 6.2 1.9 4.1 14.1 0 0-7.9 25.3-35.2 21.9 0 0-5.9-3.3-5.8-6.7z"/>
	<path id="&lt;Compound Path&gt;" fill-rule="evenodd" class="s0" d="m258.4 61.2l0.6 0.2c0.3 0 6.9 1.7 5.3 12.8 0 0.1-2.9 16.8-20.9 23.3-7.1 2.2-20.5 3.9-22.9-6.9l-0.1-0.1v-0.1c0 0.1 7.7 4.6 16.6 2.4 0 0 5.9-1.1 11.4-5.5 7.3-5.7 9.7-12.7 10.1-24.6zm-35.9 31.1c0.7 2.9 3.2 3.6 3.2 3.6 6.3 4 17.1 0 17.2 0 17.1-6.1 19.8-21.9 19.8-22 0.3-1.8 0.3-3.3 0.2-4.5-0.4-3.7-1.9-5.7-3-6.4 1.5 26.2-22.3 31.4-22.5 31.4-6.4 1.5-12.6-0.2-14.9-2.1z"/>
	<path id="&lt;Path&gt;" class="s0" d="m218.2 114.9c0.5 5.7 0.7 7.1 3 13.2 0.2 0.6 7.1 17.8 26.6 24.5 0.7 0.3 17.8 6.2 27.8-4.8l-0.5 0.1c-7.6 9.3-26.6 3.2-26.8 3.1-18.3-6-25.4-23.2-25.4-23.2-7-16.2-0.1-33.2-0.1-33.4l-0.7-0.1c-0.1 0.2-4.9 8.2-3.9 20.6z"/>
	<path id="&lt;Path&gt;" class="s0" d="m219.8 109.3c10.9 17.6 44.2 0.1 45.6-0.6l-2.8 0.9c-0.3 0.2-32.9 14.3-43-2z"/>
	<path id="&lt;Path&gt;" class="s0" d="m224 131.7c10.1 18 44.1 1.9 45.5 1.3l-2.8 0.7c-0.3 0.2-33.5 13-42.9-3.7z"/>
	<path id="&lt;Path&gt;" class="s0" d="m261.9 77.8c0.2 0.2 19.6 24.5 17.7 57.2l-1.2 5-3.2 8c-0.1 0 2.1-3.4 3.6-7.1 1.2-2.8 1.7-6.1 1.7-6.1 2.6-33.2-17.3-56.9-17.5-57.1z"/>
	<path id="&lt;Path&gt;" class="s0" d="m262.8 74.2c24.9 29.2 20 62.3 19.9 62.7l-2.8 5.2-4.4 5.8c0 0 3-2.6 5.3-5.6 1.9-2.6 3-5.8 3-5.9 0.6-3.7 4.6-36.8-19.7-62.2z"/>
	<path id="&lt;Path&gt;" class="s0" d="m279.6 70.9c19.8 19.3 15.3 61.5 15.2 61.9l0.9-1.6c0.2-1.8 5-42-14.8-59.7z"/>
	<path id="&lt;Path&gt;" class="s0" d="m272.6 87.7c0.2 0 21.4-1.5 28 8.5l0.7 0.2c-6.8-11.1-28.5-10.4-29.3-10.4z"/>
	<path id="&lt;Path&gt;" class="s0" d="m283.8 120.4l-0.3 1.7c15.9-6.3 18.5-21.9 18.5-22.1l-0.6 1c0 0.2-2.7 13.5-17.6 19.4z"/>
	<path id="&lt;Path&gt;" class="s0" d="m233.3 98.3c0 0-6.5 32.3 18.4 54 0 0-28.6-17.3-18.4-54z"/>
	<path id="&lt;Path&gt;" class="s0" d="m262.4 65.9c0.3 0 28.5 1.5 38 31.9 0.1 0.2 0.4 2.4 0.5 3.7 0.6 5.1 2.4 20.9-9.9 35.7-3.5 4.3-9.3 6.2-15.4 10.6v0.1c12.8-6.8 13-7 13.3-7.2 17.4-16.3 13.6-40.3 13.6-40.6l-0.6-3.1c-5.2-16.5-15.5-24.2-23.4-28.1-8.5-4.3-15.8-4.6-16.1-4.6z"/>
	<path id="&lt;Path&gt;" class="s0" d="m107.4 137.4c-13.1 17.5-43.6 0.2-45.1-0.5l2.8 0.9c0.3 0.1 29.5 14.1 42.5-2z"/>
	<path id="&lt;Path&gt;" class="s10" d="m31 107.2c0 0 1.3 6 5.8 11.1 0 0-0.4 12.3-0.1 18 0 0-8.6-14.3-5.7-29.1z"/>
	<path id="&lt;Path&gt;" class="s8" d="m51.6 146.5c-1.5-2.1-2.6-4.8-2.6-4.9-0.8-4.1-4.9-32.6 19.9-62.3l0.8 4.6c0 0-19.9 22.3-17.7 56.9l6.5 12.3-1.9-0.4c0 0-2.9-3-5-6.2z"/>
	<path id="&lt;Path&gt;" class="s11" d="m69.4 70.7c0 0-1.5 6.9-1.5 9.2 0 0-6.2 9.8-8.5 12.6 0 0-14.3-0.2-18.4 2.9 0 0 3.9-11.8 10.7-18.5z"/>
	<path id="&lt;Path&gt;" class="s9" d="m109.2 100.3c0 0 11.9 28.1-10.5 47.9 0 0-14.3 12.2-28.2 10.2 0 0-7.8 0.6-13.5-5.5 0 0-4.4-6.7-5-12.1 0 0-2.4-30.6 17.6-57.2 0 0 3.4 12.8 17 17.7 0 0 7.3 3.8 15.6 2.5 0 0 5.1-1 7-3.5z"/>
	<path id="&lt;Path&gt;" class="s11" d="m41 95.4c0 0-5.3 17.8-4.1 22.4 0 0-5.7-8.2-6.3-11.5 0 0 1-5.9 1.7-6 0 0 5-4.6 8.7-4.9z"/>
	<path id="&lt;Path&gt;" class="s11" d="m36.9 117.6c0 0 6.8 8.2 11.5 8.4 0 0 0 16 0.8 17.1 0 0 5.7 7.8 7.4 9.5 0 0-12.6-6.6-12.7-6.8-1.3-1.5-6.5-7.9-6.8-8.7 0 0-1.4-16.9-0.2-19.5z"/>
	<path id="&lt;Path&gt;" class="s10" d="m59.4 92.5c0 0-16 0.6-18.2 2.7 0 0-5.1 15.6-4.4 23.1 0 0 8.6 8.5 12.1 8 0 0 2.6-23.9 10.5-33.8z"/>
	<path id="&lt;Path&gt;" class="s10" d="m50.9 77.7c0 0-7.1 7.1-9.9 16.8 0 0-7.6 3.7-8.5 5.8 0 0 3-13.8 18.4-22.6z"/>
	<path id="&lt;Path&gt;" class="s8" d="m111.4 108c0 0-4.5 15.6-33.2 10.2 0 0 22.5 9.2 34.6-4.7z"/>
	<path id="&lt;Path&gt;" class="s8" d="m108.7 132.4c0 0-6.7 15.4-40.6 6.9 0 0 23.2 10.7 36.7 0.8 0 0 4.2-5.2 3.9-7.7z"/>
	<path id="&lt;Path&gt;" class="s0" d="m113.3 120.2c-0.5 5.6-0.7 7-3 13.1-0.2 0.6-7 17.6-26.2 24.2-0.7 0.2-17.6 6.1-27.5-4.8l0.4 0.2c7.5 9.1 26.4 3.1 26.5 3 18.1-5.9 25.1-22.9 25.1-22.9 7-16.1 0.2-32.9 0.1-33l0.7-0.1c0.1 0.1 4.9 8 3.9 20.3z"/>
	<path id="&lt;Path&gt;" class="s0" d="m111.7 114.6c-10.7 17.4-43.6 0.1-45.1-0.5l2.8 0.9c0.3 0.1 32.6 14.1 42.5-2z"/>
	<path id="&lt;Path&gt;" class="s0" d="m108.1 136.9c-9.9 17.8-43.6 2-45 1.4l2.8 0.7c0.3 0.2 33.1 12.7 42.4-3.8z"/>
	<path id="&lt;Path&gt;" class="s0" d="m70.1 83.5c-0.2 0.2-19.3 24.2-17.5 56.5l1.2 5 3.2 7.9c0 0-2.1-3.4-3.6-7-1.2-2.8-1.7-6-1.7-6.1-2.5-32.7 17.1-56.2 17.3-56.4z"/>
	<path id="&lt;Path&gt;" class="s0" d="m69.2 79.9c-24.6 28.9-19.7 61.7-19.7 62l2.8 5.2 4.3 5.7c0 0-2.9-2.5-5.1-5.5-1.9-2.6-3.1-5.8-3.1-5.8-0.5-3.7-4.5-36.5 19.5-61.6z"/>
	<path id="&lt;Path&gt;" class="s0" d="m52.6 76.7c-19.5 19.1-15.1 60.7-15 61.2l-0.9-1.6c-0.2-1.8-4.9-41.5 14.6-59z"/>
	<path id="&lt;Path&gt;" class="s0" d="m59.5 93.3c-0.2 0-21.1-1.5-27.7 8.4l-0.6 0.2c6.7-11 28.1-10.3 29-10.2z"/>
	<path id="&lt;Path&gt;" class="s0" d="m48.4 125.6l0.3 1.7c-15.7-6.2-18.2-21.7-18.3-21.8l0.7 1c0 0.1 2.6 13.3 17.3 19.1z"/>
	<path id="&lt;Path&gt;" class="s0" d="m98.3 103.8c0 0 6.5 31.9-18.1 53.3 0 0 28.2-17 18.1-53.3z"/>
	<path id="&lt;Path&gt;" class="s0" d="m69.6 71.8c-0.3 0-28.2 1.4-37.6 31.5 0 0.2-0.4 2.4-0.5 3.6-0.5 5.1-2.3 20.7 9.8 35.3 3.5 4.3 9.2 6.1 15.3 10.5l-0.1 0.1c-12.6-6.7-12.8-6.9-13.1-7.1-17.2-16.1-13.5-39.9-13.4-40.1v-0.1l0.6-3c5.1-16.4 15.3-24 23.1-27.8 8.4-4.2 16.1-4.6 16.4-4.6z"/>
	<path id="&lt;Path&gt;" class="s0" d="m137.5 45.2c0 0-0.2 13.4 6.7 13.1 7-0.3 7.6-5.8 7.6-5.8 0 0 4 18.4-12.6 18.9-16.5 0.5-11.3-10.8-11.3-10.8z"/>
	<path id="&lt;Path&gt;" class="s1" d="m126.1 32.2l-5.4-2.5-12.9-2.5c0 0-22 0-30.6 20.9 0 0-7.5 15.7-7.1 26.7 0 0 0.3 6.4 0.8 9.1 0.8 5.4 5.6 7.2 19.9 14.5 0 0 9.4 5 13.6 2.4 4.2-2.7 4.6-6.2 11-4.5 6.4 1.7 9.2 3.1 9.2 3.1l2.8-3.5 2.7-3.5 12.5-5.7 3.9-6.4c0 0 5-13.1 0-17.5-4.9-4.4-7.4-4.8-7.6-8.8-0.2-3.6-0.6-6.7-0.6-7.9 0-2.2-0.7-11.5-12.2-13.9z"/>
	<path id="&lt;Path&gt;" class="s2" d="m122.6 97.6c0 0-2.2-1.1-5.9-4.4-3.7-3.3-8.9-1-17.9-1.4-8.9-0.5-21.2-8.9-20.4-36.9 0 0-3.7-1.2-5.7 4.8-2 6.2-3.4 19.8-2.5 22.6 0.4 1.1 0.4 3 1 4 1.9 3.7 5.8 5.1 5.8 5.1l7.2 4.6 7.8 3.4 9.8 1.8 3.5-1.1 2.9-2.8 3.5-1.5 5.8 1.1 3.1 2.2z"/>
	<path id="&lt;Path&gt;" class="s0" d="m125.8 67.4c0 0 1.9-0.3 2.6-0.3 0.2 0.4 0.6 1.2 0.6 1.2 0.2 0.4 0.5 0.5 0.9 0.4 0.3-0.2 0.5-0.6 0.3-0.9l-0.8-1.7c-0.1-0.3-0.4-0.4-0.6-0.4l-3.2 0.3c-0.3 0.1-0.6 0.4-0.6 0.8 0.1 0.3 0.4 0.6 0.8 0.6z"/>
	<path id="&lt;Path&gt;" class="s3" d="m133.1 59c0 0-0.1-8.5-2-13 0 0-2-4-4.6-0.1l1.4 11.8 2.2 0.9z"/>
	<path id="&lt;Compound Path&gt;" fill-rule="evenodd" class="s0" d="m134.7 59.1l-0.1 0.8c-7.8-1.9-9.2-0.3-9.2-0.3l-0.5-0.5c0 0 0.2-0.3 0.9-0.5 0.2-1.2 0.6-4.5 0.1-9.6h-0.1q0-0.2 0-0.3 0-0.3 0-0.5c0 0-0.1-0.7 0.1-1.4q0.1-1.2 0.7-1.9c0.6-0.7 1.4-1 2.4-1q0.6 0 1.2 0.4-0.7-0.8-1.4-0.9c-1.4-0.3-2.8 1.5-2.8 1.5l-0.3-0.2c0.1-0.1 1.5-2.1 3.2-1.7q1.6 0.3 2.7 3.2c0.9 2.1 1.2 4.8 1.2 5h-0.7c-0.1-1.8-1.1-6.5-3.1-6.5q-1.2-0.1-1.9 0.7 0 0.1-0.1 0.2 0.2 0 0.4 0c1.9 0.1 2 3.6 2.1 5.5 0.1 1.6 0.1 5.6 0.7 7.2q1.1 0.1 2.6 0.4l-0.3-2.9 0.7-0.1 0.3 3.1q0.5 0.2 1.2 0.3zm-5.8-5.1c0-3.8-0.5-6.2-0.5-6.2 0-0.1-0.1-0.2-0.3-0.2-0.1 0-0.1 0.1-0.1 0.2 0 0.1 0.5 2.5 0.5 6.2 0 0.1 0.1 0.2 0.2 0.2 0.1 0 0.2-0.1 0.2-0.2z"/>
	<path id="&lt;Path&gt;" class="s0" d="m131.8 45.7q-0.3 0.1-0.6 0l-0.2 0.6q0.6 0.2 1.1-0.1c0.8-0.3 1.1-1.5 1.2-1.5l-0.7-0.2c0 0.3-0.4 1-0.8 1.2z"/>
	<path id="&lt;Path&gt;" class="s0" d="m132.1 47.7v0.6c1.3 0 2-0.9 2.1-1.4l-0.6-0.2c0 0-0.3 1-1.5 1z"/>
	<path id="&lt;Path&gt;" class="s0" d="m132.5 49.5v0.6c0.8 0 1.7-0.2 1.7-0.2l-0.2-0.6c0 0-0.7 0.2-1.5 0.2z"/>
	<path id="&lt;Path&gt;" class="s11" d="m130.4 77.8c0 0-0.2-1.9-1.5-1.9-1.2 0-3.1 1-3.1 1 0 0 0.2-1.5-1.7-1.5-1.8 0-6.4 1.5-6.4 1.5 0 0 5.4 2.1 7.7 1.9 2.3-0.2 5-1 5-1z"/>
	<path id="&lt;Path&gt;" class="s11" d="m124.3 86.7c0 0 1 6.7-2.8 6.6-3.8-0.2-3.3-10.3-2.8-8.9 0.5 1.4 2.3 3.7 2.3 3.7z"/>
	<path id="&lt;Path&gt;" class="s2" d="m97.6 70.2c0.4 1.8 2.8 2.7 5.3 2 2.5-0.7 4.2-2.6 3.7-4.4-0.5-1.8-2.9-2.7-5.4-2-2.5 0.6-4.1 2.6-3.6 4.4z"/>
	<path id="&lt;Path&gt;" class="s2" d="m137.2 70.1c-0.6 1.2 0.3 3 2.1 3.8 1.8 0.9 3.8 0.6 4.4-0.7 0.6-1.3-0.4-3-2.1-3.9-1.8-0.8-3.8-0.5-4.4 0.8z"/>
	<path id="&lt;Path&gt;" class="s12" d="m109.4 74l4.8 2.2 7.6 2.4 7.9-0.6-3.2 5.5c-1-0.6-2.3-1.1-4.1-1.2-1.8-0.2-3.7 0-5.1 0.2l-2.4-2-6.4-4.3-0.3-1.8z"/>
	<path id="&lt;Path&gt;" class="s10" d="m122.4 82.3c1.8 0.1 3.1 0.6 4.1 1.2l-0.4 0.6-4.6 4.4-4-5.8-0.2-0.2c1.4-0.2 3.3-0.4 5.1-0.2z"/>
	<path id="&lt;Compound Path&gt;" fill-rule="evenodd" class="s0" d="m112.4 74.9c2.1 1.2 4.9 2.8 9.5 3.4 3 0.4 5.4 0.1 7.4-0.4 0.1-0.1 0.1-0.2 0.2-0.2 0.1-0.1 0.2 0 0.3 0 3.2-1 4.9-2.8 4.9-2.8 0.1-0.1 0.3-0.1 0.4 0q0.1 0.1 0.1 0.2 0 0.2 0 0.2c-0.2 0.2-2 2.1-5.6 3.2-1.9 1.4-3.3 4.1-4.4 6.3-1 2.1-1.9 3.7-2.9 4q-0.4 0.2-0.9 0c-1.4-0.7-1.8-1.9-2.3-3.1-0.4-1.2-0.8-2.4-2.1-3.5-0.8-0.8-2.5-1.8-4.1-2.7-2.7-1.5-5.2-3-5.3-4.3 0-0.2 0-0.6 0.4-1 1.2-1.1 2.5-0.3 4.4 0.7zm9.7 13.3c0.8-0.2 1.6-1.9 2.5-3.7 1-1.9 2.1-4.1 3.7-5.7-1.8 0.3-4 0.5-6.5 0.1-4.7-0.6-7.7-2.3-9.7-3.4-1.9-1.1-2.8-1.6-3.6-0.8-0.3 0.2-0.3 0.3-0.3 0.5 0.1 0.9 2.7 2.4 5 3.7 1.7 1 3.3 2 4.3 2.8 1.3 1.2 1.8 2.6 2.2 3.7 0.5 1.3 0.8 2.2 2 2.8q0.2 0.1 0.4 0z"/>
	<path id="&lt;Path&gt;" class="s0" d="m71.6 61.6l3-2.5 10.8-9.3c0 0-3.5 14.6 3.2 16.4 6.7 1.9 8.2-5.1 8.2-5.1q0 0 0 0.3c-0.3 2.2-2.8 18.1-17.7 13.9-15.9-4.6-7.5-13.7-7.5-13.7z"/>
	<path id="&lt;Path&gt;" class="s3" d="m112.1 60.6c0 0-0.1-10.3-2.3-15.7 0 0-2.5-4.9-5.6-0.2l1.6 14.3 2.7 1z"/>
	<path id="&lt;Compound Path&gt;" fill-rule="evenodd" class="s0" d="m114 60.6l-0.1 0.9c-9.4-2.2-11-0.2-11.1-0.2l-0.6-0.6c0-0.1 0.3-0.4 1.1-0.7 0.2-1.4 0.7-5.3 0.1-11.5v-0.1q0-0.1 0-0.3-0.1-0.3-0.1-0.6c0 0-0.1-0.8 0.1-1.6q0.2-1.5 0.9-2.4c0.7-0.8 1.7-1.2 2.8-1.2 0.6 0.1 1.1 0.3 1.5 0.6q-0.8-1-1.6-1.2c-1.8-0.3-3.4 1.9-3.4 1.9l-0.4-0.3c0.1-0.1 1.8-2.5 3.8-2.1q2 0.4 3.3 4c1.1 2.5 1.4 5.7 1.5 5.9l-0.9 0.1c-0.2-2.2-1.3-7.8-3.7-7.9q-1.5-0.1-2.3 0.9 0 0.1-0.1 0.2 0.2-0.1 0.5 0c2.3 0.1 2.3 4.3 2.4 6.6 0.2 2 0.2 6.8 0.9 8.7q1.4 0.1 3.1 0.4l-0.3-3.5h0.8l0.3 3.7q0.7 0.2 1.5 0.3zm-7-6.1c0-4.5-0.6-7.5-0.6-7.5 0-0.1-0.1-0.2-0.2-0.2-0.2 0-0.3 0.2-0.2 0.3 0 0 0.6 2.9 0.6 7.4 0 0.1 0.1 0.2 0.2 0.2 0.1 0 0.2-0.1 0.2-0.2z"/>
	<path id="&lt;Path&gt;" class="s0" d="m102.7 45.1q0.3 0 0.6-0.2l0.5 0.6q-0.5 0.4-1.2 0.3c-1.1 0-2-1.1-2-1.1l0.6-0.5c0.2 0.2 0.8 0.8 1.5 0.9z"/>
	<path id="&lt;Path&gt;" class="s0" d="m103.1 47.5l0.3 0.7c-1.4 0.6-2.5-0.2-2.9-0.6l0.5-0.5c0.1 0 0.9 0.9 2.1 0.4z"/>
	<path id="&lt;Path&gt;" class="s0" d="m103.5 49.7l0.3 0.7c-0.9 0.3-1.9 0.5-1.9 0.5l-0.2-0.8c0.1 0 1-0.1 1.8-0.4z"/>
	<path id="&lt;Path&gt;" class="s0" d="m263.2 149.1c0 0-2.9-9.9 4.3-12.9 0 0 8.6-2.1 12.2 8.6 5.1 15.4 5.5 16.2 6.1 16.3 0 0 7.9-3.8 13.1-1.5 0 0 11 3.9 9.9 13.1 0 0-0.4 8.1-13.2 9 0 0-23.1-0.8-27.6-1.4 0 0-10.1-2.4-6.4-10.4 0 0 5.3-7.6 3.9-14.9 0 0-1.3-4.5-2.3-5.9z"/>
	<path id="&lt;Path&gt;" class="s0" d="m285.4 162.6c0 0-5.9 2.8-8.3 5.4"/>
	<path id="&lt;Path&gt;" class="s1" d="m264.3 148.8c0 0-3-8.1 4.4-10.9 0 0 5.3-2.1 10.2 7.7 0 0 4.1 16.5 6.5 16.8 0 0 7-3.3 11.8-1.4 0 0 7.9 1 9.4 10.8 0 0-0.4 7.7-12.2 8.6 0 0-21.5-0.5-25.7-1.7 0 0-7.3-0.2-5.4-8.2 0 0 4.8-7.3 3.3-14.7 0 0-1.4-5.8-2.3-7z"/>
	<path id="&lt;Path&gt;" class="s1" d="m285.1 162.5c0 0-5.5 2.5-7.7 4.9"/>
	<path id="&lt;Path&gt;" class="s2" d="m268.4 138.6c0 0 3.7-2.2 7.7 3.5 0 0 2.3 2.6 2.7 4.8 0 0 2.7 12.2 5.7 15.2 0 0-5.5 3.1-7 4.4q-0.1 0.1-0.2 0.2c-1 1.1 3.9-2.6 1.1-8.9 0 0-2.5-8-2.9-11.1 0 0-1.4-5.9-7.1-8.1z"/>
	<path id="&lt;Path&gt;" class="s2" d="m281.9 164.6c0 0 10.1-7.5 18.8-2.3 0 0 7.5 5.3 5.1 11.3 0 0-1.1 9.7-24.8 6 0 0 20.2-1 21-5.3 0 0 2.7-6.9-3.1-8.3 0 0-3.4-3.7-17-1.4z"/>
	<path id="&lt;Path&gt;" class="s0" d="m278.5 167l0.6 0.3c0.9-1.7 5.6-4.8 5.6-4.9l-0.4-0.5c-0.2 0.1-4.9 3.2-5.8 5.1z"/>
	<path id="&lt;Path&gt;" class="s0" d="m66.6 154.6c0 0 2.9-9.7-4.2-12.6 0 0-8.4-2-11.9 8.3-5 15.1-5.3 15.9-6 16 0 0-7.7-3.7-12.7-1.5 0 0-10.7 3.8-9.6 12.8 0 0 0.4 7.9 12.8 8.8 0 0 22.5-0.8 27-1.4 0 0 9.8-2.3 6.2-10.1 0 0-5.2-7.5-3.9-14.6 0 0 1.3-4.4 2.3-5.7z"/>
	<path id="&lt;Path&gt;" class="s0" d="m45 167.7c0 0 5.7 2.7 8 5.3"/>
	<path id="&lt;Path&gt;" class="s1" d="m65.6 154.2c0 0 2.8-7.9-4.3-10.5 0 0-5.2-2.1-10 7.4 0 0-4 16.1-6.4 16.4 0 0-6.7-3.2-11.5-1.4 0 0-7.7 1.1-9.1 10.6 0 0 0.3 7.5 11.9 8.4 0 0 21-0.5 25.1-1.7 0 0 7.1-0.2 5.2-7.9 0 0-4.7-7.2-3.2-14.4 0 0 1.4-5.7 2.3-6.9z"/>
	<path id="&lt;Path&gt;" class="s1" d="m45.3 167.6c0 0 5.3 2.5 7.5 4.8"/>
	<path id="&lt;Path&gt;" class="s2" d="m61.5 144.3c0 0-3.6-2.2-7.5 3.5 0 0-2.2 2.5-2.6 4.6 0 0-2.7 12-5.6 14.9 0 0 5.4 3 6.8 4.2q0.2 0.1 0.2 0.2c1 1.1-3.8-2.5-1-8.6 0 0 2.4-7.9 2.8-10.9 0 0 1.4-5.7 6.9-7.9z"/>
	<path id="&lt;Path&gt;" class="s2" d="m48.4 169.7c0 0-9.8-7.3-18.3-2.3 0 0-7.3 5.2-5.1 11 0 0 1.1 9.5 24.2 5.9 0 0-19.7-0.9-20.5-5.2 0 0-2.6-6.7 3.1-8.1 0 0 3.3-3.6 16.6-1.3z"/>
	<path id="&lt;Path&gt;" class="s0" d="m45.6 167.6c0.1 0 4.7 3 5.5 4.7l0.6-0.3c-0.9-1.8-5.5-4.9-5.7-5z"/>
	<path id="&lt;Path&gt;" class="s11" d="m71.7 61.8l1.9-1.9 3.3-3.3c0 0 6.6-6.3 11.7-9.6 1.1-0.8 4.6-3.5 7.9-4.2 1.1-0.2 1.7-0.5 1.8-0.8 2.7-6.9 8.1-8.1 10.2-8.5 4.2-0.7 8.9 1.9 11.3 2 6.1 0 5.2-1 5.2-1l5-1c0 0-2.7-4.6-11.1-8.9 0 0-3.4-2.9-10.2-1.5-6.9 1.4-16.6 2.9-19.8 3.5l-3.6 1.7c0 0-8.5 4.1-10.8 15.6-2.3 11.5-2.7 13.8-2.7 13.8l-2.4-1.5c0 0-6.5-3.3-14 3.5 0 0 1.1 2.3 3.4 3.2 0 0-3.9 6.3-0.9 10.8 0 0 0.3-2 2.5-2.5 0 0 10.1-2.1 10.1-7.8z"/>
	<path id="&lt;Path&gt;" class="s0" d="m72.3 57c0.4 0.3 0.4 0.8 0.1 1.1-0.2 0.4-0.7 0.4-1.1 0.1-0.2-0.2-6.6-5.1-14.9 1.6 0.4 0.7 1.5 1.9 3.4 2.4 2.8 0.8 6.3-0.1 10.5-2.6-0.6-0.5-1.9-1.1-4.7-0.1-0.4 0.1-0.8-0.1-1-0.5-0.1-0.4 0.1-0.9 0.5-1 5.8-2 7 1.4 7.1 1.6 0.1 0.3 0 0.7-0.3 0.9-4.9 3.1-9.2 4.2-12.6 3.2-3.3-1-4.6-3.6-4.7-3.7-0.1-0.3-0.1-0.7 0.2-0.9 9.6-8.3 17.4-2.2 17.5-2.1z"/>
	<path id="&lt;Path&gt;" class="s0" d="m71.9 61.2c0 0.1 0.1 8.2-10.2 10.4 0-0.1-2.2 0.6-3.2 2.7-0.2 0.3-0.4 0.4-0.7 0.4-0.3 0.1-0.6-0.1-0.7-0.4-0.2-0.2-3.3-6.2 0.5-10.8 0.3-0.4 0.8-0.4 1.1-0.1 0.2 0.1 0.3 0.4 0.3 0.6q0 0.3-0.2 0.5c-1 1.2-1.4 2.7-1.5 4-0.1 1.5 0.3 2.9 0.6 3.8 1.4-1.7 3.3-2.2 3.4-2.3 8.3-1.7 9-7.4 9-8.6q0-0.1 0-0.2 0 0 0 0c0-0.4 0.4-0.8 0.8-0.8 0.4 0 0.8 0.3 0.8 0.8z"/>
	<path id="&lt;Path&gt;" class="s13" d="m81.6 30.3c0 0-2.7-0.8-2.8 7.6-0.1 8.4-0.3 15.4-0.3 15.4l-7.5 8.5 0.8-7.8c0 0 1.9-15.1 3.3-17 1.5-2 6.5-6.7 6.5-6.7z"/>
	<path id="&lt;Compound Path&gt;" fill-rule="evenodd" class="s0" d="m114.6 21.3c12 5.8 14.5 11 14.5 11h-0.1c0 0 0.1 0 0 0 0.8 0.1 1.6 0.3 2.5 0.5 5 1.6 8.4 6.3 8.4 11.5q0 0.5-0.1 1.1-0.2 2.3-0.2 4.1c0 4.6 0.8 7 1.7 7.7l1 0.7c2.6 1.7 7.5 4.9 7.4 12.3q0 1.9-0.5 4.3c-2.6 11.6-6.9 14.4-17.6 18.7-1.2 0.9-3.2 2.8-3.7 4-0.5 1.3-1.4 2.3-2.7 2.7-2 0.7-4.7 0.1-7.9-1.9-0.2-0.1-5.8-3.7-10.7 2.1-0.3 0.3-7.7 9.2-34-10.7-0.5-0.3-3.6-2.6-3.6-8.9q0 0 0 0l2.3-28.2c1-12.3 2.7-16.8 8.2-22.1 4.5-4.3 11.6-5.5 16.7-6.3 1.3-0.2 2.5-0.4 3.4-0.6l0.7-0.2c6.3-1.5 12.2-2.9 14.3-1.8zm-0.8 1.9c-1.7-0.7-9.4 1.1-13.1 2l-0.6 0.1c-1 0.3-2.2 0.4-3.5 0.7-4.9 0.8-11.6 1.9-15.6 5.7-5.1 4.9-6.7 9.1-7.6 20.7 0 0-2.2 27-2.3 28.2 0 5.4 2.5 7 2.7 7q0 0.1 0.1 0.1c24.3 18.4 31 11.1 31.1 11 6.1-7.2 13.4-2.5 13.5-2.5 3.2 2 5 2 6 1.7 0.9-0.3 1.3-0.9 1.4-1.4 0.8-2.2 4.1-4.8 4.5-5.1q0.1-0.1 0.3-0.1c10.4-4.2 14-6.5 16.4-17.3 2.1-9.1-3.1-12.5-5.9-14.3l-1.2-0.8c-2.9-2.4-2.7-9.6-2.3-13.7 0.4-4.7-2.5-9-6.9-10.3-3.3-1.1-5-0.4-6.9 0.3-0.9 0.3-1.9 0.7-3 0.8-1.1 0.1-2.4-0.2-4-0.7-3.3-1-7.8-2.3-13 0.3-4.9 2.6-6.8 8.1-6.8 8.1v0.1c0 0-0.2-7 5.9-10 5.9-3.1 11.1-1.6 14.5-0.5 1.4 0.3 2.5 0.7 3.2 0.6 0.8-0.1 1.6-0.4 2.5-0.7 1.1-0.4 2.9-1.2 5.7-0.9-4.4-4.3-13.6-8.5-15.1-9.1z"/>
	<path id="&lt;Path&gt;" class="s0" d="m95.5 43c-3.4 0.4-10.3 6.9-23.2 19-0.4 0.4-1.1 0.4-1.5-0.1-0.4-0.4-0.4-1.1 0.1-1.5 19.8-18.1 24.6-17.4 24.6-17.4z"/>
	<path id="&lt;Path&gt;" class="s8" d="m110.8 96c0 0-8.8 6.4-21.9 1.7 0 0-15.2-3.7-17.2-26.4 0 0-5.8 2.5-2.6 13.9 0 0 9.3 23.5 35.1 17.5 0 0 4.3-0.8 6.6-6.7z"/>
	<path id="&lt;Compound Path&gt;" fill-rule="evenodd" class="s0" d="m71.9 71.5c0.2 10.5 4.5 18.2 12.1 23 5.6 3.6 11.4 4.1 11.4 4.1 8.7 1.2 16.2-3.7 16.3-3.7l-0.1 0.3c-2.2 9.8-14.9 10-21.9 8.5-17.8-4.5-22.2-20.1-22.2-20.3-2.6-10.4 3.6-12.6 3.8-12.7l0.7-0.3zm23.3 28.6c-0.2 0-23.4-2.6-24.6-27.8-1 0.7-2.2 2.8-2.2 6.3 0 1.3 0.2 2.7 0.6 4.3 0 0.2 4.2 15 21.1 19.2 0.1 0 11.8 2.8 18.4-2.7 0 0 1.1-1.2 2.1-3.2-2 2.1-9.1 4.8-15.4 3.9z"/>
	<path id="&lt;Path&gt;" class="s0" d="m63.5 87.8l-4 0.8c-5.6 1.1-26.1 18-26.1 18-3.9 2.3-9.1 6.9-9.1 6.9-0.7 1-1.3-0.4-1.3-0.4-0.6-1-1.9-2-1.9-2-0.9-0.7-0.6-1.7-0.6-1.7 0.2-1.1 0.3-2.4 0.3-2.4-0.5-3.6-4.1-3.6-4.1-3.6-5.2 0.7-6.8 5.5-6.8 5.5-1.7 6.7 4 9.5 4 9.5 1.6 0.8 0 1.8 0 1.8-2.6 2.6-5.7 7.6-5.7 7.6-1.6 3-1.5 4.9-1.5 4.9-0.3 2.4 2.9 3.1 2.9 3.1-0.3 0.3-0.5 1-0.5 1-1.4 5 2.3 5.1 2.3 5.1 1.6 0.3 2.9-1.1 2.9-1.1 0.2 1.5 2.3 1.3 2.3 1.3 3.1-0.3 3.9-4.2 3.9-4.2 1.9-6.1 6.5-10.7 6.5-10.7 3.3-2.5 0.6-5.7 0.6-5.7 0.6-0.8 3.7-1.6 3.7-1.6 0 0 22.3-5.8 29.2-10 0 0 9.8-4.8 10.5-9.6 0 0 2.9-12.1-7.5-12.5z"/>
	<path id="&lt;Path&gt;" class="s1" d="m59.2 89.8c-5.4 1.1-35.5 25.4-35.5 25.4-1.2 0.5-1.5 1.6-1.5 1.6-0.3 1 0.5-0.9 0.5-0.9 0.1-2.4-2.8-4.3-2.8-4.3-1.9-1.9-0.9-4.4-0.9-4.4 0.5-2.7-2.1-2.6-2.1-2.6-4 0.6-5.3 4.3-5.3 4.3-2.3 5.4 3.6 7.9 3.6 7.9 1.7 1.3 0.5 3.4 0.5 3.4-4.5 5.3-6.5 9-6.5 9-1.8 3.6 0 4.7 0 4.7 0.6 0.6 1 0 1 0 1.9-4.8 3.8-7.5 3.8-7.5-0.4-0.6-0.5-1.4-0.5-1.4 0-0.6 0.5-0.2 0.5-0.2 2.1 4.1 5.5 3.9 5.5 3.9 0.7 0.2 0.1 0.9 0.1 0.9-1.1 0-1.7-0.4-1.7-0.4l-0.2 0.4c-1.6 2.6-2.4 6.7-2.4 6.7-1.4 3.8 1.1 4.2 1.1 4.2 2.1 0.1 3-2.9 3-2.9 1.5-6.3 7.2-12.6 7.2-12.6 1.8-1.9-1.1-3.7-1.1-3.7 1.6-1.4 11.3-4.2 11.3-4.2 0 0 27.6-6.7 32.5-16.2 0 0 3.2-13.7-10.1-11.1z"/>
	<path id="&lt;Path&gt;" class="s1" d="m16.9 129c0 0-2.5 4.9-2.8 8.5 0 0 0.2 2.8-2.5 2.8 0 0-2.7 0-1.1-4.7 0 0 1.9-5.1 3.9-8.4 0 0 1.6 1.5 2.5 1.8z"/>
	<path id="&lt;Path&gt;" class="s2" d="m68.6 93.3c0 0 2.2 5.4 0 8.7 0 0-1.7 4.9-18.5 11 0 0-19.3 5.6-24.6 8.3 0 0 9.6-7.9 22.8-11.1 0 0 5.4-1.1 8.2-2.9 0 0 10.2-4.4 12.1-14z"/>
	<path id="&lt;Path&gt;" class="s0" d="m269.3 80.3l4.4 0.8c6 1.1 28.7 19.4 28.7 19.4 4.2 2.4 10 7.4 10 7.4 0.7 1 1.3-0.5 1.3-0.5 0.7-1.1 2.1-2.2 2.1-2.2 1-0.8 0.7-1.8 0.7-1.8-0.3-1.3-0.4-2.6-0.4-2.6 0.5-4 4.4-4.1 4.4-4.1 5.7 0.7 7.5 6 7.5 6 1.9 7.3-4.2 10.3-4.2 10.3-1.8 0.9 0 2.1 0 2.1 2.8 2.7 6.3 8.2 6.3 8.2 1.8 3.2 1.6 5.2 1.6 5.2 0.5 2.8-3 3.5-3 3.5 0.2 0.4 0.5 1.1 0.5 1.1 1.6 5.5-2.5 5.5-2.5 5.5-1.6 0.4-3.1-1.1-3.1-1.1-0.3 1.7-2.5 1.4-2.5 1.4-3.4-0.2-4.4-4.5-4.4-4.5-2.1-6.6-7.1-11.6-7.1-11.6-3.7-2.7-0.7-6.2-0.7-6.2-0.8-0.8-4.1-1.6-4.1-1.6 0 0-24.5-6.1-32.1-10.7 0 0-10.7-5-11.4-10.3 0 0-3.4-13.2 8-13.7z"/>
	<path id="&lt;Path&gt;" class="s1" d="m274 82.4c5.9 1.1 39 27.3 39 27.3 1.4 0.5 1.7 1.7 1.7 1.7 0.3 1.1-0.6-1-0.6-1-0.1-2.6 3-4.7 3-4.7 2.1-2.1 0.9-4.8 0.9-4.8-0.6-2.9 2.3-2.8 2.3-2.8 4.4 0.6 5.9 4.6 5.9 4.6 2.5 5.8-3.9 8.6-3.9 8.6-1.9 1.5-0.5 3.8-0.5 3.8 5 5.7 7.2 9.8 7.2 9.8 2 3.8 0.1 5 0.1 5-0.7 0.7-1.1 0.1-1.1 0.1-2.2-5.3-4.3-8.2-4.3-8.2 0.4-0.6 0.6-1.5 0.6-1.5 0-0.7-0.6-0.2-0.6-0.2-2.3 4.4-5.9 4.2-5.9 4.2-0.9 0.4-0.1 1.1-0.1 1.1 1.1 0 1.9-0.4 1.9-0.4l0.2 0.4c1.7 2.7 2.6 7.3 2.6 7.3 1.6 4.1-1.1 4.5-1.1 4.5-2.3 0.2-3.3-3.1-3.3-3.1-1.7-6.9-8-13.6-8-13.6-2-2.1 1.1-4.1 1.1-4.1-1.7-1.6-12.3-4.4-12.3-4.4 0 0-30.2-7-35.7-17.4 0 0-3.7-14.9 10.9-12.2z"/>
	<path id="&lt;Path&gt;" class="s1" d="m320.5 124.7c0 0 2.8 5.3 3.3 9.2 0 0-0.2 3.1 2.7 3 0 0 3 0.1 1.2-5.1 0 0-2.2-5.5-4.4-9.1 0 0-1.8 1.7-2.8 2z"/>
	<path id="&lt;Path&gt;" class="s2" d="m263.8 86.3c0 0-2.3 6 0.1 9.5 0 0 1.9 5.4 20.3 11.8 0 0 21.1 5.9 26.9 8.8 0 0-10.5-8.6-25-11.9 0 0-5.9-1.1-9-3 0 0-11.1-4.7-13.3-15.2z"/>
</svg>