<svg version="1.2" xmlns="http://www.w3.org/2000/svg" viewBox="0 0 340 200" width="340" height="200">
	<title>새 프로젝트</title>
	<style>
		.s0 { fill: #231f20 } 
		.s1 { fill: #fabb85 } 
		.s2 { fill: #f7931d } 
		.s3 { fill: #fefefe } 
		.s4 { fill: #d12329 } 
		.s5 { fill: #00a550 } 
		.s6 { fill: #00652e } 
		.s7 { fill: #8dc63f } 
		.s8 { fill: #ba9474 } 
		.s9 { fill: #fcd1af } 
		.s10 { fill: #fcb712 } 
		.s11 { fill: #f0593f } 
		.s12 { fill: #ffffff } 
		.s13 { fill: #8b0405 } 
	</style>
	<path id="&lt;Path&gt; copy" class="s0" d="m291.3 141.8l-3.7 0.4c11.7 2.6 11.1 4.7 11 4.8-2.2 4-13.2 2.8-13.3 2.7l0.8 1.2c0.5 0.1 9.6 0.5 14.6-2.5 3.9-2.3 4.1-3.9-9.4-6.6z"/>
	<path id="&lt;Path&gt; copy 2" class="s1" d="m289.2 141.7c0 0 20.7 4.8 4.1 8.5l-6.5 0.1-5.3-5.2v-1.5z"/>
	<path id="&lt;Path&gt; copy 3" class="s2" d="m299.1 145.6c-5.2 5.2-11.4 1.1-13.7 0.1-9.4-3.9 0.7 5.2 0.7 5.2l4.3-0.5 3.5-0.2c0 0 8.5-1.5 5.2-4.6z"/>
	<path id="&lt;Path&gt; copy 4" class="s0" d="m43.7 144l3.7 0.4c-11.8 2.6-11.1 4.7-11 4.8 2.2 4 13.2 2.8 13.3 2.7l-0.8 1.2c-0.5 0.1-9.6 0.6-14.7-2.5-3.8-2.3-4-3.9 9.5-6.6z"/>
	<path id="&lt;Path&gt; copy 5" class="s1" d="m45.8 143.9c0 0-20.7 4.8-4.2 8.5l6.6 0.2 5.3-5.3v-1.4z"/>
	<path id="&lt;Path&gt; copy 6" class="s2" d="m35.9 147.8c5.2 5.2 11.4 1.1 13.7 0.2 9.4-4-0.7 5.1-0.7 5.1l-4.3-0.4-3.5-0.3c0 0-8.5-1.5-5.2-4.6z"/>
	<path id="&lt;Path&gt; copy 7" class="s0" d="m248.6 142.6l-9.4-2.1c0 0-6.7-1.3-9.8 9.1 0 0-2.4 8-6.8 12.3 0 0-16.1-8.8-24.5 5.3 0 0-6.9 11.6 7.5 16.6 0 0 9.5 1.3 16.4 1.5 0 0 21 2.2 25.6-8.1 0 0 1.4-3.2-0.5-8.6 0 0-2.8-20 1.5-26z"/>
	<path id="&lt;Path&gt; copy 8" class="s1" d="m236.8 143c0 0-4.3 0-7.2 9.1 0 0-2.5 8.4-6.5 12.1 0 0-14.3-10.1-21.8 2.8 0 0-7.2 13.1 5.6 15.3 0 0 8.8 1.4 15.3 1.5 0 0 20.2 1.6 23.6-7.8 0 0 1.6-2.5-0.6-7.4 0 0-2.3-17.6 1.8-22.8z"/>
	<path id="&lt;Path&gt; copy 9" class="s2" d="m246 145q0 0-0.1 0.4c-0.3 2.6-2.7 19.8-0.3 24.5 0 0 4.9 11.4-13 13.1 0 0-19.5 1.6-28.9-2.5 0 0 27 3.7 33.8-1.5 0 0 6.1-4.2 3.9-8.8q-0.1-0.1-0.2-0.3c-2.6-4.6-1.5-5.7-0.8-10.1 0 0 2.3-9.9-2.7-16z"/>
	<path id="&lt;Path&gt; copy 10" class="s2" d="m223.9 163.7c0 0 2.7 2.4 3.5 2.6l2.6 0.7-4.3-4.5-0.6-0.4z"/>
	<path id="&lt;Path&gt; copy 11" class="s1" d="m222.9 163.5c0 0 1.6 2.3 6.1 3.3"/>
	<path id="&lt;Path&gt; copy 12" class="s0" d="m222.6 163.8c0 0.1 1.7 2.4 6.3 3.4l0.2-0.8c-4.2-1-5.9-3.1-5.9-3.1z"/>
	<path id="&lt;Path&gt; copy 13" class="s0" d="m87.2 147l9.1-2c0 0 6.4-1.3 9.5 8.7 0 0 2.3 7.8 6.5 11.9 0 0 15.6-8.5 23.7 5.1 0 0 6.7 11.2-7.2 16 0 0-9.2 1.4-15.9 1.5 0 0-20.2 2.2-24.7-7.8 0 0-1.4-3 0.5-8.3 0 0 2.7-19.3-1.5-25.1z"/>
	<path id="&lt;Path&gt; copy 14" class="s1" d="m98.6 147.4c0 0 4.1 0 7 8.8 0 0 2.3 8 6.3 11.6 0 0 13.8-9.7 21 2.7 0 0 7 12.7-5.5 14.8 0 0-8.4 1.4-14.7 1.5 0 0-19.5 1.5-22.7-7.6 0 0-1.6-2.4 0.6-7.1 0 0 2.1-17-1.8-22z"/>
	<path id="&lt;Path&gt; copy 15" class="s2" d="m89.7 149.3q0 0 0.1 0.4c0.4 2.5 2.6 19.1 0.3 23.7 0 0-4.7 11 12.6 12.6 0 0 18.8 1.5 27.9-2.4 0 0-26.1 3.6-32.6-1.5 0 0-5.9-4.1-3.8-8.4q0.1-0.2 0.1-0.3c2.6-4.5 1.5-5.6 0.9-9.8 0 0-2.3-9.5 2.5-15.5z"/>
	<path id="&lt;Path&gt; copy 16" class="s2" d="m111.1 167.3c0 0-2.6 2.4-3.4 2.6l-2.5 0.7 4.1-4.4 0.6-0.4z"/>
	<path id="&lt;Path&gt; copy 17" class="s1" d="m112 167.2c0 0-1.5 2.2-5.9 3.2"/>
	<path id="&lt;Path&gt; copy 18" class="s0" d="m106 170l0.2 0.8c4.4-1.1 6.1-3.3 6.2-3.4l-0.7-0.4c0 0-1.6 2-5.7 3z"/>
	<path id="&lt;Path&gt; copy 19" class="s0" d="m212.8 103.3c0 0-9 22.9-15.3 24.9 0 0-2.2 1.7-3.4 1.7 0 0-1 0.3-2.3 1.3-1.8 0.3-5.6 0.7-8.3 0.3 0 0-10.8-1.3-7.3 2.8l0.5 0.1c-1.3 0.3-2.5 1.3-1.8 4 0 0 0.6 0.6 1.6 1.3-0.4 0.9-0.6 2.1-0.3 3.8 0 0 2.1 4.4 8.6 1.3 0 0 9-4.4 13.6-5.1 0 0 4.5-0.6 6 2.2 0 0 1.5 7.7 5.4 7.4 0 0 5.2 0.5 4.5-5 0 0-0.6-4.3-2.6-6.1 0 0-1.7-2.8-1.5-5 0 0 1.1-1.1 0.2-1.7 0 0 4.3-2.9 6.9-6.4 2.6-3.4 13-34.8 13-34.8 0 0-8.9-4.8-17.5 13z"/>
	<path id="&lt;Path&gt; copy 20" class="s0" d="m153.4 138.3l0.5-0.1c3.3-3.9-7.1-2.7-7.1-2.7-2.7 0.5-6.4 0-8.1-0.2-1.3-1-2.2-1.2-2.2-1.2-1.2 0-3.3-1.7-3.3-1.7-6-1.8-14.8-23.6-14.8-23.6-8.4-16.9-16.9-12.4-16.9-12.4 0 0 10 29.8 12.5 33.1 2.5 3.3 6.7 6 6.7 6-0.8 0.6 0.2 1.7 0.2 1.7 0.2 2-1.5 4.7-1.5 4.7-1.8 1.7-2.5 5.8-2.5 5.8-0.6 5.2 4.4 4.8 4.4 4.8 3.8 0.2 5.2-7 5.2-7 1.5-2.7 5.9-2.1 5.9-2.1 4.3 0.6 13.1 4.7 13.1 4.7 6.3 3.1 8.4-1.2 8.4-1.2 0.2-1.6 0.1-2.7-0.3-3.6 0.9-0.6 1.5-1.2 1.5-1.2 0.7-2.6-0.5-3.5-1.7-3.8z"/>
	<path id="&lt;Path&gt; copy 21" class="s1" d="m193.2 131.4c0 0-5.3 1-8.8 0.4 0 0-10.2-1.2-7 2.7l13.8 2.4z"/>
	<path id="&lt;Compound Path&gt; copy" fill-rule="evenodd" class="s0" d="m194 130.7l-2.5 6.8-14.3-2.6-0.1-0.1q-1.2-1.4-0.6-2.3c1-1.9 6.8-1.3 8-1.2 3.4 0.6 8.6-0.4 8.6-0.4zm-9.6 1.6c-2.5-0.4-6.5-0.4-7 0.6q-0.1 0.1-0.1 0.2c0 0.3 0.3 0.6 0.5 0.9 0.3 0 12.3 2.2 13.1 2.3 0.2-0.6 1.2-3.2 1.6-4.3-1.7 0.2-5.4 0.7-8.1 0.3z"/>
	<path id="&lt;Path&gt; copy 22" class="s1" d="m192 132.6c0 0-7 2.9-12.1 1.9 0 0-4.9-0.9-3.7 3.8 0 0 3.7 3.5 7.2 2.5z"/>
	<path id="&lt;Compound Path&gt; copy 2" fill-rule="evenodd" class="s0" d="m191.8 132.1l0.6 0.9-8.7 8.3h-0.2c-3.7 1.1-7.5-2.4-7.6-2.6l-0.1-0.1-0.1-0.1q-0.6-2.4 0.5-3.6c1.3-1.3 3.7-1 3.8-0.9 4.9 0.9 11.7-1.8 11.8-1.9zm-12 2.8c0 0-1.9-0.3-2.8 0.7q-0.5 0.5-0.5 1.4 0 0.5 0.2 1.1c0.6 0.5 3.6 3 6.5 2.2 0.1-0.1 4.6-4.4 6.8-6.5-2.5 0.8-6.7 1.8-10.2 1.1z"/>
	<path id="&lt;Path&gt; copy 23" class="s1" d="m228.9 93c0 0-8.4-4.5-16.6 12.3 0 0-8.6 21.6-14.6 23.4 0 0-2 1.7-3.2 1.7 0 0-2.1 0.6-4.5 3.2 0 0-3.9 3.5-8.5 3.7 0 0-5.1-0.2-4.1 5.8 0 0 2.1 4.2 8.3 1.2 0 0 8.6-4.1 12.9-4.7 0 0 4.3-0.6 5.7 2 0 0 1.4 7.2 5.1 7 0 0 5 0.4 4.3-4.7 0 0-0.6-4.1-2.4-5.8 0 0-1.7-2.6-1.5-4.7 0 0 1.1-1 0.2-1.6 0 0 4.1-2.7 6.6-6 2.5-3.2 12.3-32.8 12.3-32.8z"/>
	<path id="&lt;Compound Path&gt; copy 3" fill-rule="evenodd" class="s0" d="m229.1 92.6l0.4 0.2-0.1 0.4c-0.4 1.2-9.9 29.6-12.4 32.9-2.1 2.8-5.3 5.2-6.3 5.9 0 0.1 0.2 0.2 0.2 0.3q0 0 0 0.1c0 0.5-0.4 1-0.6 1.2q0 0.1 0 0.2c0 1.8 1.3 4 1.4 4.1 1.9 1.7 2.5 5.7 2.5 5.9q0.1 0.5 0.1 0.9 0 2-1.1 3.1c-1.4 1.5-3.7 1.3-3.7 1.3-4 0.2-5.5-6.5-5.7-7.3-1.2-2.2-5.1-1.7-5.2-1.7-4.1 0.6-12.6 4.6-12.7 4.6-6.5 3.2-8.9-1.4-8.9-1.4v-0.1q-0.6-3.2 0.9-4.9c1.4-1.5 3.6-1.5 3.6-1.5 4.3-0.2 8.1-3.5 8.1-3.5 2.5-2.7 4.6-3.4 4.7-3.4h0.1 0.1c0.7 0 2.2-1 2.9-1.6h0.1l0.1-0.1c5.7-1.7 14.2-22.8 14.3-23.1 3.4-7 7.3-11.3 11.5-12.7 3.4-1 5.7 0.1 5.7 0.2zm-31.1 36.5c-0.2 0.2-2.1 1.7-3.4 1.8-0.4 0.1-2.2 0.8-4.3 3.1-0.2 0.1-4.1 3.6-8.8 3.8 0 0-1.8 0-2.9 1.2q-0.8 1-0.8 2.6 0 0.6 0.1 1.3c0.2 0.3 2.1 3.6 7.5 0.9 0.4-0.1 8.8-4.1 13.1-4.7 0.2 0 4.7-0.6 6.2 2.3l0.1 0.1c0.4 1.9 1.9 6.8 4.7 6.6 0 0 1.9 0.1 3-1q0.8-0.9 0.8-2.4 0-0.3-0.1-0.7c0-0.1-0.6-4-2.3-5.5v-0.1c-0.1-0.1-1.6-2.5-1.6-4.6q0-0.2 0-0.4l0.1-0.2 0.1-0.1c0.1-0.2 0.4-0.5 0.4-0.7q0 0 0 0c0-0.1 0-0.1-0.1-0.2l-0.6-0.4 0.6-0.4c0-0.1 4-2.7 6.4-5.9 2.2-2.9 10.9-28.5 12.1-32.2-0.7-0.2-2.4-0.6-4.6 0.1-2.7 0.9-6.8 3.7-10.9 12.1-0.4 0.9-8.7 21.5-14.8 23.6zm-3.4 1.7l-0.1 0.1q0 0 0.1 0 0-0.1 0-0.1z"/>
	<path id="&lt;Path&gt; copy 24" class="s1" d="m207.5 129.7c0 0 1.2 0.6 2.2 2"/>
	<path id="&lt;Path&gt; copy 25" class="s0" d="m207.3 130.1c0 0 1.1 0.6 2 1.9l0.9-0.6c-1.1-1.5-2.4-2.1-2.5-2.2z"/>
	<path id="&lt;Path&gt; copy 26" class="s2" d="m219.6 112.3c0 0 2.1 11.8-9.5 18.8l-2.4-1.8c0 0 9.4-7.4 11.9-17z"/>
	<path id="&lt;Path&gt; copy 27" class="s2" d="m209.2 133.6c0 0 0.1 3 2.2 5.5 0 0 3.2 5.2 1.2 7.7 0 0-3.1 3.1-5.8-0.2 0 0 4.3 2.6 5.6-1.5 0 0 0.1-2.9-1.6-5.7 0 0-1.8-3.1-1.6-5.8z"/>
	<path id="&lt;Path&gt; copy 28" class="s1" d="m137.6 135.2c0 0 5 0.9 8.3 0.3 0 0 9.7-1.1 6.6 2.6l-13 2.3z"/>
	<path id="&lt;Compound Path&gt; copy 4" fill-rule="evenodd" class="s0" d="m136.9 134.5l0.8 0.2c0 0 5 0.9 8.2 0.4 1.1-0.1 6.6-0.7 7.5 1.1q0.5 0.9-0.5 2.2l-0.2 0.1-13.5 2.4-2-5.6zm2.9 5.3c0.8-0.1 12.1-2.1 12.4-2.2 0.2-0.2 0.4-0.5 0.4-0.8q0-0.1 0-0.2c-0.5-0.9-4.3-0.9-6.6-0.6-2.6 0.5-6.1 0-7.7-0.3 0.4 1.1 1.3 3.6 1.5 4.1z"/>
	<path id="&lt;Path&gt; copy 29" class="s1" d="m138.8 136.3c0 0 6.5 2.7 11.4 1.8 0 0 4.6-0.8 3.5 3.6 0 0-3.5 3.3-6.8 2.4z"/>
	<path id="&lt;Compound Path&gt; copy 5" fill-rule="evenodd" class="s0" d="m138.9 135.9c0.1 0 6.5 2.6 11.2 1.7 0.1 0 2.4-0.4 3.5 0.9q1.1 1.2 0.5 3.4v0.1l-0.1 0.1c-0.2 0.1-3.7 3.4-7.2 2.4h-0.2l-8.2-7.8zm8.2 7.7c2.7 0.7 5.5-1.6 6.1-2.1q0.2-0.6 0.2-1.1 0-0.8-0.5-1.3c-0.8-0.9-2.6-0.6-2.6-0.6-3.3 0.7-7.3-0.3-9.6-1 2 1.9 6.2 5.9 6.4 6.1z"/>
	<path id="&lt;Path&gt; copy 30" class="s1" d="m104 99c0 0 7.9-4.2 15.6 11.6 0 0 8.2 20.3 13.8 22 0 0 1.9 1.6 3.1 1.6 0 0 1.9 0.6 4.2 3.1 0 0 3.7 3.3 7.9 3.5 0 0 4.9-0.2 3.9 5.4 0 0-2 4-7.7 1.1 0 0-8.2-3.8-12.2-4.4 0 0-4.1-0.6-5.4 1.9 0 0-1.4 6.8-4.9 6.6 0 0-4.6 0.4-4-4.4 0 0 0.6-3.9 2.3-5.5 0 0 1.5-2.5 1.4-4.4 0 0-1-1-0.2-1.6 0 0-3.9-2.5-6.2-5.6-2.3-3-11.6-30.9-11.6-30.9z"/>
	<path id="&lt;Compound Path&gt; copy 6" fill-rule="evenodd" class="s0" d="m109.1 98.5c4 1.2 7.7 5.3 11 11.9 0.1 0.2 8.1 20.1 13.4 21.8h0.1l0.1 0.1c0.7 0.5 2 1.4 2.8 1.4h0.1c0.1 0.1 2.1 0.7 4.4 3.2 0.1 0.1 3.6 3.2 7.6 3.4 0.1 0 2.2-0.1 3.5 1.4q1.4 1.6 0.9 4.6h-0.1v0.1c0 0-2.2 4.4-8.3 1.4-0.1-0.1-8.1-3.9-12.1-4.4 0 0-3.7-0.5-4.9 1.6-0.1 0.7-1.6 7.1-5.2 6.9-0.1 0-2.3 0.1-3.6-1.3q-1-1-1-2.8 0-0.5 0-0.9c0-0.2 0.6-3.9 2.4-5.6 0.1-0.1 1.3-2.2 1.3-3.9q0 0 0-0.1c-0.2-0.2-0.5-0.7-0.5-1.2q0 0 0-0.1c0-0.1 0.1-0.2 0.2-0.3-1-0.7-4-2.8-6-5.5-2.3-3.1-11.3-29.9-11.7-31l-0.1-0.4 0.4-0.2c0 0 2.2-1.2 5.3-0.1zm-4.5 0.8c1.1 3.4 9.3 27.6 11.4 30.4 2.2 2.9 6 5.4 6 5.5l0.6 0.3-0.6 0.4c-0.1 0.1-0.1 0.2-0.1 0.2q0 0 0 0c0 0.2 0.2 0.5 0.4 0.7l0.1 0.1v0.1q0 0.2 0 0.4c0 2-1.3 4.3-1.4 4.4l-0.1 0.1c-1.6 1.4-2.1 5.1-2.1 5.1q-0.1 0.4-0.1 0.8 0 1.4 0.8 2.2c1 1.1 2.8 0.9 2.9 0.9 2.5 0.2 4-4.4 4.3-6.2l0.1-0.1c1.5-2.8 5.7-2.2 5.9-2.2 4 0.6 11.9 4.4 12.3 4.5 5.1 2.5 6.9-0.6 7-0.9q0.1-0.6 0.2-1.2-0.1-1.6-0.8-2.5c-1-1.1-2.7-1.1-2.8-1.1-4.4-0.2-8.1-3.4-8.2-3.6-2-2.1-3.7-2.8-4-2.9-1.3-0.1-3.1-1.5-3.3-1.7-5.8-2-13.6-21.4-13.9-22.2-3.9-7.9-7.7-10.6-10.3-11.4-2.1-0.7-3.7-0.3-4.3-0.1zm31.9 35.4l-0.2-0.1q0 0 0.1 0.1 0 0 0.1 0z"/>
	<path id="&lt;Path&gt; copy 31" class="s1" d="m124.2 133.6c0 0-1.2 0.5-2.2 1.9"/>
	<path id="&lt;Path&gt; copy 32" class="s0" d="m121.7 135.2l0.7 0.6c0.9-1.3 2-1.8 2-1.8l-0.4-0.9c-0.1 0.1-1.3 0.7-2.3 2.1z"/>
	<path id="&lt;Path&gt; copy 33" class="s2" d="m112.7 117.2c0 0-1.9 11.1 9 17.7l2.2-1.7c0 0-8.8-7-11.2-16z"/>
	<path id="&lt;Path&gt; copy 34" class="s2" d="m122.5 137.3c0 0 0 2.8-2 5.1 0 0-3.1 5-1.1 7.3 0 0 2.8 3 5.4-0.2 0 0-4 2.5-5.3-1.4 0 0-0.1-2.7 1.5-5.4 0 0 1.8-2.9 1.5-5.4z"/>
	<path id="&lt;Path&gt; copy 35" class="s0" d="m225.7 133.6c13.9 18.6 46.5 0.1 48-0.6l-2.9 1c-0.4 0.1-31.5 15-45.4-2.2z"/>
	<path id="&lt;Path&gt; copy 36" class="s1" d="m199 23.1l5.7-3.2 13.8-4.1c0 0 23.8-2.3 35.3 19.4 0 0 9.7 16.3 10.4 28.3 0 0 0.4 6.9 0.2 9.9-0.4 6-5.4 8.4-20.1 17.9 0 0-9.8 6.4-14.5 3.9-4.8-2.4-5.7-6.2-12.4-3.7-6.8 2.5-9.7 4.4-9.7 4.4l-3.4-3.5-3.3-3.5-14.1-4.9-4.9-6.6c0 0-6.8-13.7-1.9-19 4.9-5.2 7.6-6 7.4-10.3-0.2-4-0.1-7.3-0.2-8.7-0.3-2.3-0.5-12.4 11.7-16.3z"/>
	<path id="&lt;Path&gt; copy 37" class="s2" d="m209.7 93.6c0 0 2.3-1.4 5.9-5.3 3.7-4 9.6-2 19.3-3.4 9.6-1.5 22-11.9 18.3-42.1 0 0 3.9-1.8 6.7 4.6 2.8 6.5 5.8 21.1 5 24.2-0.3 1.3-0.1 3.4-0.6 4.5-1.7 4.1-5.8 6.1-5.8 6.1l-7.3 5.8-8.1 4.4-10.5 3-3.9-0.8-3.4-2.8-3.9-1.3-6.3 1.9-3.1 2.7z"/>
	<path id="&lt;Path&gt; copy 38" class="s0" d="m198.5 65.4c0 0-2.2 0.5-2.9 0.7-0.4-0.5-0.9-1.4-0.9-1.4-0.2-0.3-0.7-0.4-1-0.2-0.3 0.2-0.5 0.7-0.2 1l1.1 1.9c0.2 0.2 0.5 0.4 0.8 0.3l3.5-0.9c0.4-0.1 0.6-0.5 0.5-0.9-0.1-0.4-0.5-0.6-0.9-0.5z"/>
	<path id="&lt;Path&gt; copy 39" class="s3" d="m216.8 54.5c0 0-1.2-12.7 0.9-19.6 0 0 2.4-6.2 6.9-0.9l-0.2 17.8-3.2 1.6z"/>
	<path id="&lt;Compound Path&gt; copy 7" fill-rule="evenodd" class="s0" d="m216.2 54.3v-4.7h1v4.3q2.2-0.6 3.8-0.9c0.7-2.4 0.1-8.3 0-10.8-0.1-2.9-0.6-8 2.2-8.5q0.3 0 0.6 0-0.1-0.1-0.2-0.2-1.1-1.1-2.9-0.9c-3 0.4-3.7 7.5-3.7 10.2h-1c0-0.2 0-4.3 1.1-7.5q1.1-4.5 3.5-5.2c2.5-0.7 4.9 2 5 2.1l-0.4 0.4c0-0.1-2.3-2.6-4.4-1.9q-1.1 0.3-1.9 1.6c0.5-0.4 1.1-0.7 1.7-0.8 1.5-0.2 2.8 0.2 3.7 1.1q1 1 1.4 2.8c0.4 0.9 0.4 1.9 0.4 1.9q0 0.4 0 0.8 0 0.2 0 0.4c0 7.8 1.1 12.5 1.6 14.2 1 0.3 1.3 0.6 1.4 0.7l-0.7 0.8c0 0-2.3-2.2-13.7 1.7l-0.3-1.1q1-0.3 1.8-0.5zm6.4-7.6c0.2-0.1 0.3-0.2 0.3-0.4-0.6-5.5-0.2-9.1-0.2-9.1 0-0.2-0.1-0.3-0.3-0.3-0.1-0.1-0.3 0.1-0.3 0.2 0 0.1-0.3 3.7 0.2 9.3 0 0.2 0.1 0.3 0.3 0.3z"/>
	<path id="&lt;Path&gt; copy 40" class="s3" d="m193.4 53.7c0 0-0.9-9.6 0.7-14.9 0 0 1.9-4.8 5.3-0.7l-0.3 13.5-2.4 1.2z"/>
	<path id="&lt;Compound Path&gt; copy 8" fill-rule="evenodd" class="s0" d="m192.9 53.5v-3.5h0.8v3.3q1.6-0.5 2.9-0.7c0.5-1.9 0-6.4 0-8.3-0.1-2.2-0.4-6 1.7-6.4q0.2 0 0.4 0 0-0.1-0.1-0.2-0.8-0.8-2.2-0.7c-2.3 0.3-2.8 5.7-2.8 7.8h-0.8c0-0.2 0.1-3.3 0.9-5.7q0.9-3.4 2.6-4c1.9-0.5 3.8 1.5 3.8 1.6l-0.3 0.3c0 0-1.7-1.9-3.3-1.4q-0.8 0.2-1.4 1.2c0.3-0.3 0.8-0.6 1.3-0.6 1.1-0.2 2 0.1 2.7 0.8q0.7 0.8 1.1 2.2c0.2 0.7 0.2 1.4 0.2 1.4q0 0.4 0 0.6 0 0.2 0 0.4c0 5.8 0.8 9.5 1.2 10.8 0.7 0.2 1 0.4 1 0.5l-0.5 0.6c0 0-1.7-1.6-10.3 1.3l-0.2-0.9q0.7-0.2 1.3-0.4zm4.9-5.8c0.1 0 0.2-0.1 0.2-0.2-0.4-4.2-0.1-7-0.1-7 0-0.1-0.1-0.2-0.2-0.2-0.1 0-0.2 0.1-0.3 0.2 0 0-0.2 2.8 0.1 7 0 0.2 0.2 0.2 0.3 0.2z"/>
	<path id="&lt;Path&gt; copy 41" class="s4" d="m203.9 80.5c0 0 3.3-3.1 5.4-3.1l-2.4 7.8z"/>
	<path id="&lt;Path&gt; copy 42" class="s3" d="m202.9 81.6l-1.5-3.8 4-1.6 4.9-1.2-1.1 3.1z"/>
	<path id="&lt;Compound Path&gt; copy 9" fill-rule="evenodd" class="s0" d="m222.5 73.5c-0.4 0.2-0.9 0-1.1-0.4q-0.2-0.5-0.4-0.9c-0.9 1.8-3.1 3.8-8.1 4.4-3.5 0.9-4.7 7.8-4.9 10.5 0 0.4-0.4 0.7-0.8 0.8-0.4 0-0.8-0.2-0.9-0.6-1.2-3.7-5-7.6-5-7.6v-0.1l-0.3-0.2c-3.3-2.9-6.1-2.6-6.2-2.6-0.5 0.1-0.9-0.2-1-0.7-0.1-0.4 0.3-0.9 0.7-1 0.2 0 3.4-0.4 7.1 2.5 1.2-0.7 4.2-2.3 9.1-2.5q1-0.1 2-0.2 0.2 0 0.3-0.1c3.7-0.5 5.9-1.8 6.6-3.8-0.4-0.1-0.7-0.1-0.7-0.1-0.4 0.1-0.9-0.2-1-0.7-0.1-0.5 0.2-0.9 0.7-1 0.1 0 2.8-0.6 4.4 3.2 0.2 0.4 0 0.9-0.5 1.1zm-12.9 3.4c-3.4 0.3-5.6 1.3-6.7 2 0.7 0.8 2.5 2.8 3.8 5 0.4-2.2 1.2-5.1 2.9-7z"/>
	<path id="&lt;Path&gt; copy 43" class="s5" d="m261.9 51l-2.2-1.9-3.9-3.4c0 0-7.6-6.6-13.4-9.9-1.3-0.8-5.2-3.5-8.9-4.1-1.3-0.2-2-0.5-2.1-0.8-3.3-7.4-9.4-8.4-11.6-8.6-4.7-0.5-9.8 2.6-12.3 2.8-6.7 0.5-5.9-0.7-5.9-0.7l-5.5-0.8c0 0 2.6-5.2 11.6-10.5 0 0 3.6-3.3 11.2-2.3 7.6 1.1 18.3 2.2 21.9 2.7l4.1 1.6c0 0 9.5 3.9 12.8 16.4 3.2 12.6 3.8 15 3.8 15l2.6-1.8c0 0 6.9-4 15.5 3 0 0-1 2.6-3.5 3.7 0 0 4.7 6.7 1.7 11.8 0 0-0.5-2.1-2.9-2.6 0 0-11.2-1.6-11.6-7.9z"/>
	<path id="&lt;Path&gt; copy 44" class="s0" d="m260.9 45.8c-0.4 0.3-0.4 0.9-0.1 1.2 0.4 0.4 0.9 0.4 1.3 0.1 0.2-0.3 6.9-6.1 16.5 0.8-0.5 0.8-1.6 2.1-3.6 2.8-3.1 1-7 0.3-11.7-2.2 0.6-0.6 2-1.3 5.1-0.4 0.4 0.1 0.9-0.2 1-0.6 0.2-0.5-0.1-1-0.6-1.1-6.4-1.8-7.6 2-7.6 2.2-0.1 0.4 0 0.8 0.4 1 5.6 3.1 10.3 4 14 2.7 3.6-1.3 4.9-4.2 4.9-4.3 0.2-0.4 0-0.8-0.3-1-11.1-8.5-19.2-1.3-19.3-1.2z"/>
	<path id="&lt;Path&gt; copy 45" class="s0" d="m261.6 50.3c0 0.1 0.4 9.1 11.9 10.8-0.1 0 2.4 0.6 3.7 2.8 0.1 0.3 0.4 0.5 0.8 0.5 0.3-0.1 0.6-0.3 0.7-0.5 0.2-0.3 3.2-7.1-1.2-11.9-0.4-0.4-0.9-0.4-1.3-0.1-0.2 0.2-0.3 0.5-0.2 0.7q0 0.3 0.2 0.5c1.2 1.4 1.7 2.9 1.9 4.4 0.1 1.6-0.1 3.1-0.5 4.2-1.6-1.8-3.7-2.3-3.8-2.3-9.2-1.4-10.3-7.6-10.4-8.9q-0.1-0.2-0.1-0.2 0 0 0-0.1c0-0.4-0.4-0.8-0.8-0.7-0.5 0-0.9 0.4-0.9 0.8z"/>
	<path id="&lt;Path&gt; copy 46" class="s6" d="m247.3 17.7c0 0 2.8-1.2 3.7 8 1 9.1 1.7 16.8 1.7 16.8l9.1 8.4-1.6-8.3c0 0-3.5-16.4-5.2-18.3-1.8-2-7.7-6.6-7.7-6.6z"/>
	<path id="&lt;Compound Path&gt; copy 10" fill-rule="evenodd" class="s0" d="m226.2 10.6l0.7 0.1c1 0.1 2.3 0.2 3.7 0.3 5.7 0.4 13.5 0.9 18.8 5 6.6 5.2 8.9 10 11.2 23.2l5.4 30.3q0 0.1 0 0.1c0.7 6.8-2.4 9.6-3 10-26.4 24.3-35.4 15.4-35.7 15.1-5.9-5.7-11.6-1.3-11.9-1.1-3.2 2.5-6 3.4-8.3 2.9-1.4-0.4-2.6-1.3-3.2-2.7-0.6-1.2-3-3.1-4.4-4-12.1-3.5-17-6.1-21.1-18.4q-0.8-2.5-1-4.6c-0.8-8 4.2-12 6.7-14.1l1.1-0.9c0.9-0.9 1.5-3.6 1-8.5q-0.2-2-0.6-4.5-0.1-0.5-0.2-1.1c-0.6-5.7 2.6-11.2 7.9-13.4 1-0.3 1.8-0.6 2.6-0.7-0.1-0.1 0-0.1 0-0.1 0 0 2.1-5.8 14.5-13.4 2.2-1.4 8.7-0.5 15.8 0.5zm-30.1 12.9c3-0.6 4.9 0.1 6.3 0.4 0.9 0.3 1.8 0.5 2.7 0.5 0.8 0 2-0.5 3.4-1 3.6-1.5 9-3.7 15.9-1 6.9 2.7 7.4 10.2 7.4 10.2h-0.1c0 0-2.6-5.9-8.2-8.1-5.9-2.3-10.7-0.4-14.1 1-1.7 0.7-3.1 1.2-4.3 1.2-1.2 0-2.3-0.3-3.3-0.6-2.1-0.5-4.1-1.1-7.6 0.4-4.6 1.9-7.3 6.9-6.4 11.9 0.9 4.4 1.9 12.2-1 15.1l-1.2 1c-2.8 2.3-8.1 6.5-5 16.1 3.8 11.5 7.9 13.6 19.7 17q0.1 0.1 0.3 0.2c0.4 0.3 4.2 2.7 5.3 5 0.3 0.5 0.8 1.2 1.8 1.4 1 0.3 3 0.1 6.3-2.4 0.1-0.1 7.6-5.9 14.9 1.3 0.1 0 8.1 7.3 32.6-15.2q0.1-0.1 0.1-0.1c0.1-0.1 2.7-2.1 2.1-7.9-0.2-1.3-5.4-30.3-5.4-30.3-2.2-12.5-4.3-17-10.4-21.7-4.7-3.8-12.1-4.3-17.4-4.6-1.5-0.1-2.8-0.2-3.9-0.4l-0.7-0.1c-4.1-0.5-12.6-1.7-14.4-0.7-1.5 0.8-11.1 6.2-15.4 11.4z"/>
	<path id="&lt;Path&gt; copy 47" class="s0" d="m233.4 31.6v0.1c3.7 0 11.9 6.3 27.1 18.1 0.5 0.4 1.2 0.3 1.6-0.2 0.4-0.5 0.3-1.2-0.2-1.6-23.3-17.6-28.5-16.4-28.5-16.4z"/>
	<path id="&lt;Path&gt; copy 48" class="s7" d="m307.1 101.4c0 0-1.3 6.3-6.2 11.9 0 0 0.5 13 0.2 19.1 0 0 9.1-15.3 6-31z"/>
	<path id="&lt;Path&gt; copy 49" class="s8" d="m285.2 143.3c1.5-2.2 2.7-5.1 2.8-5.3 0.8-4.4 5.2-34.7-21.3-66.4l-0.8 5c0 0 21.2 23.7 18.9 60.5l-7 13.2 2.1-0.4c0 0 3-3.2 5.3-6.6z"/>
	<path id="&lt;Path&gt; copy 50" class="s5" d="m266.2 62.4c0 0 1.6 7.4 1.6 9.9 0 0 6.6 10.4 9.1 13.4 0 0 15.2-0.2 19.6 3 0 0-4.2-12.5-11.5-19.7z"/>
	<path id="&lt;Path&gt; copy 51" class="s9" d="m223.7 94c0 0-12.6 29.9 11.2 51.1 0 0 15.3 13 30.1 10.9 0 0 8.3 0.6 14.4-5.9 0 0 4.7-7.2 5.4-13 0 0 2.5-32.5-18.8-60.9 0 0-3.6 13.7-18.2 18.8 0 0-7.7 4.1-16.5 2.7 0 0-5.6-1-7.6-3.7z"/>
	<path id="&lt;Path&gt; copy 52" class="s5" d="m296.5 88.7c0 0 5.6 19 4.4 24 0 0 6.1-8.8 6.7-12.3 0 0-1.1-6.3-1.8-6.4 0 0-5.4-4.9-9.3-5.3z"/>
	<path id="&lt;Path&gt; copy 53" class="s5" d="m300.9 112.5c0 0-7.3 8.7-12.3 9 0 0 0 16.9-0.8 18.2 0 0-6.1 8.3-8 10.1 0 0 13.4-7.1 13.6-7.3 1.4-1.6 6.9-8.4 7.3-9.3 0 0 1.4-17.9 0.2-20.7z"/>
	<path id="&lt;Path&gt; copy 54" class="s7" d="m276.9 85.7c0 0 17.1 0.6 19.4 2.9 0 0 5.4 16.6 4.6 24.7 0 0-9.1 9-12.8 8.4 0 0-2.8-25.4-11.2-36z"/>
	<path id="&lt;Path&gt; copy 55" class="s7" d="m285.9 69.9c0 0 7.5 7.5 10.5 17.9 0 0 8.2 4 9.2 6.2 0 0-3.3-14.8-19.7-24.1z"/>
	<path id="&lt;Path&gt; copy 56" class="s8" d="m221.5 102.2c0 0 4.8 16.7 35.3 10.9 0 0-24 9.8-36.9-5z"/>
	<path id="&lt;Path&gt; copy 57" class="s8" d="m224.3 128.3c0 0 7.1 16.4 43.3 7.3 0 0-24.8 11.4-39.2 0.9 0 0-4.4-5.6-4.1-8.2z"/>
	<path id="&lt;Path&gt; copy 58" class="s8" d="m223.1 90.5c0 0 8.3 7.2 23.1-0.3 0 0 16.2-5.7 15.8-30.7 0 0 6.6 2.1 4.4 14.9 0 0-8.3 26.7-37.1 23.1 0 0-6.2-3.4-6.2-7z"/>
	<path id="&lt;Compound Path&gt; copy 11" fill-rule="evenodd" class="s0" d="m261.7 58.6l0.7 0.2c0.3 0 7.3 1.8 5.6 13.5 0 0.1-3 17.7-22.1 24.6-7.4 2.3-21.6 4-24.1-7.3l-0.1-0.1-0.1-0.1c0.1 0.1 8.2 4.8 17.6 2.6 0-0.1 6.2-1.3 12-5.8 7.7-6.1 10.2-13.5 10.7-26zm-37.9 32.8c0.8 3 3.4 3.8 3.4 3.8 6.7 4.2 18.1 0 18.1 0 18-6.5 20.9-23.1 20.9-23.2 0.3-1.9 0.3-3.5 0.2-4.8-0.4-3.8-2-6-3.1-6.7 1.5 27.6-23.6 33.1-23.8 33.1-6.7 1.6-13.2-0.2-15.7-2.2z"/>
	<path id="&lt;Path&gt; copy 59" class="s0" d="m219.4 115.2c0.5 6 0.8 7.5 3.2 13.9 0.1 0.7 7.5 18.8 27.9 25.9 0.8 0.2 18.8 6.5 29.4-5.1l-0.5 0.2c-8 9.7-28.1 3.3-28.3 3.2-19.3-6.3-26.7-24.4-26.7-24.4-7.5-17.2-0.2-35.1-0.1-35.3l-0.8-0.1c-0.1 0.2-5.2 8.6-4.1 21.7z"/>
	<path id="&lt;Path&gt; copy 60" class="s0" d="m221.1 109.3c11.4 18.5 46.5 0.1 48.1-0.6l-3 0.9c-0.3 0.2-34.7 15.1-45.4-2.1z"/>
	<path id="&lt;Path&gt; copy 61" class="s0" d="m225.5 132.9c10.6 19 46.4 2 48 1.4l-3 0.8c-0.4 0.1-35.3 13.6-45.2-4z"/>
	<path id="&lt;Path&gt; copy 62" class="s0" d="m265.4 76.1c0.2 0.2 20.7 25.8 18.7 60.3l-1.2 5.2-3.5 8.5c0 0 2.3-3.6 3.9-7.5 1.2-2.9 1.8-6.4 1.8-6.5 2.6-34.9-18.3-59.9-18.5-60.1z"/>
	<path id="&lt;Path&gt; copy 63" class="s0" d="m266.4 72.3c26.2 30.8 21 65.7 21 66.1l-2.9 5.5-4.7 6.1c0 0 3.2-2.7 5.5-5.9 2-2.8 3.3-6.1 3.3-6.2 0.5-3.9 4.8-38.8-20.8-65.6z"/>
	<path id="&lt;Path&gt; copy 64" class="s0" d="m284.2 68.8c20.7 20.4 16 64.8 15.9 65.3l1-1.7c0.2-1.9 5.2-44.2-15.6-63z"/>
	<path id="&lt;Path&gt; copy 65" class="s0" d="m276.7 86.6c0.2 0 22.6-1.6 29.6 8.9l0.7 0.2c-7.2-11.7-30-10.9-31-10.9z"/>
	<path id="&lt;Path&gt; copy 66" class="s0" d="m288.5 121l-0.2 1.8c16.7-6.7 19.4-23.1 19.4-23.3l-0.6 1.1c0 0.1-2.9 14.2-18.6 20.4z"/>
	<path id="&lt;Path&gt; copy 67" class="s0" d="m235.3 97.7c0 0-6.8 34.1 19.4 56.9 0 0-30.1-18.2-19.4-56.9z"/>
	<path id="&lt;Path&gt; copy 68" class="s0" d="m266 63.6c0.2 0 30 1.6 40.1 33.6 0 0.2 0.4 2.6 0.5 3.9 0.5 5.4 2.5 22-10.4 37.6-3.8 4.6-9.9 6.5-16.3 11.2v0.1c13.5-7.2 13.7-7.4 14-7.6 18.3-17.2 14.4-42.5 14.3-42.8l-0.6-3.3c-5.5-17.4-16.3-25.5-24.6-29.6-9-4.5-16.7-4.8-17-4.8z"/>
	<path id="&lt;Path&gt; copy 69" class="s0" d="m109.5 138.6c-13.8 18.4-46 0.2-47.5-0.5l2.9 0.9c0.3 0.1 31.1 14.9 44.8-2.1z"/>
	<path id="&lt;Path&gt; copy 70" class="s10" d="m29 106.8c0 0 1.3 6.2 6.1 11.7 0 0-0.5 12.9-0.2 18.9 0 0-9-15.1-5.9-30.6z"/>
	<path id="&lt;Path&gt; copy 71" class="s8" d="m50.6 148.2c-1.5-2.2-2.7-5.1-2.7-5.2-0.8-4.3-5.2-34.3 21-65.6l0.8 4.8c0 0-20.9 23.5-18.7 59.9l6.9 13-2-0.4c0 0-3-3.1-5.3-6.5z"/>
	<path id="&lt;Path&gt; copy 72" class="s11" d="m69.4 68.2c0 0-1.6 7.3-1.6 9.8 0 0-6.5 10.3-8.9 13.3 0 0-15.1-0.2-19.5 3 0 0 4.2-12.4 11.4-19.5z"/>
	<path id="&lt;Path&gt; copy 73" class="s9" d="m111.4 99.5c0 0 12.5 29.6-11.1 50.5 0 0-15 12.8-29.8 10.7 0 0-8.1 0.7-14.1-5.8 0 0-4.7-7-5.4-12.8 0 0-2.5-32.2 18.6-60.3 0 0 3.6 13.6 18 18.7 0 0 7.6 4 16.3 2.6 0 0 5.5-1 7.5-3.6z"/>
	<path id="&lt;Path&gt; copy 74" class="s11" d="m39.4 94.3c0 0-5.5 18.7-4.3 23.6 0 0-6-8.6-6.6-12.1 0 0 1-6.2 1.8-6.3 0 0 5.3-4.9 9.1-5.2z"/>
	<path id="&lt;Path&gt; copy 75" class="s11" d="m35.1 117.7c0 0 7.2 8.6 12.1 8.9 0 0 0 16.8 0.9 18 0 0 6 8.3 7.9 10 0 0-13.3-6.9-13.5-7.2-1.3-1.6-6.8-8.3-7.2-9.2 0 0-1.4-17.7-0.2-20.5z"/>
	<path id="&lt;Path&gt; copy 76" class="s10" d="m58.9 91.3c0 0-16.9 0.5-19.3 2.8 0 0-5.3 16.5-4.5 24.4 0 0 9 9 12.7 8.4 0 0 2.7-25.2 11.1-35.6z"/>
	<path id="&lt;Path&gt; copy 77" class="s10" d="m49.9 75.6c0 0-7.4 7.5-10.4 17.7 0 0-8 4-9 6.2 0 0 3.2-14.6 19.4-23.9z"/>
	<path id="&lt;Path&gt; copy 78" class="s8" d="m113.6 107.5c0 0-4.7 16.6-34.9 10.8 0 0 23.7 9.7 36.4-4.9z"/>
	<path id="&lt;Path&gt; copy 79" class="s8" d="m110.8 133.4c0 0-7 16.2-42.8 7.2 0 0 24.5 11.3 38.7 0.9 0 0 4.4-5.5 4.1-8.1z"/>
	<path id="&lt;Path&gt; copy 80" class="s0" d="m115.7 120.5c-0.5 5.8-0.8 7.4-3.1 13.7-0.2 0.7-7.5 18.6-27.7 25.5-0.7 0.3-18.6 6.5-29-5l0.5 0.2c7.9 9.6 27.8 3.3 27.9 3.2 19.1-6.3 26.5-24.2 26.5-24.2 7.3-16.9 0.1-34.6 0.1-34.8l0.7-0.1c0.1 0.2 5.2 8.5 4.1 21.5z"/>
	<path id="&lt;Path&gt; copy 81" class="s0" d="m114 114.6c-11.3 18.3-46 0.1-47.5-0.6l2.9 0.9c0.3 0.2 34.3 14.9 44.8-2.1z"/>
	<path id="&lt;Path&gt; copy 82" class="s0" d="m110.2 138c-10.5 18.8-45.9 2.2-47.5 1.5l3 0.8c0.3 0.2 35 13.4 44.7-4.1z"/>
	<path id="&lt;Path&gt; copy 83" class="s0" d="m70.2 81.7c-0.2 0.3-20.4 25.6-18.5 59.7l1.2 5.2 3.4 8.3c0.1 0-2.2-3.5-3.8-7.4-1.2-2.9-1.8-6.3-1.8-6.4-2.6-34.5 18.1-59.2 18.3-59.5z"/>
	<path id="&lt;Path&gt; copy 84" class="s0" d="m69.2 78c-25.9 30.5-20.8 65-20.7 65.3l2.8 5.5 4.6 6c0 0-3.1-2.6-5.4-5.8-2-2.7-3.2-6-3.2-6.1-0.6-3.9-4.8-38.4 20.5-64.9z"/>
	<path id="&lt;Path&gt; copy 85" class="s0" d="m51.7 74.6c-20.6 20.1-15.9 64-15.8 64.5l-1-1.7c-0.2-1.9-5.2-43.7 15.4-62.2z"/>
	<path id="&lt;Path&gt; copy 86" class="s0" d="m59 92.1c-0.2 0-22.3-1.6-29.2 8.9l-0.7 0.1c7.1-11.5 29.6-10.8 30.6-10.7z"/>
	<path id="&lt;Path&gt; copy 87" class="s0" d="m47.3 126.2l0.3 1.7c-16.5-6.5-19.2-22.8-19.3-23l0.7 1.1c0 0.1 2.8 14 18.3 20.2z"/>
	<path id="&lt;Path&gt; copy 88" class="s0" d="m99.9 103.1c0 0 6.8 33.7-19.1 56.3 0 0 29.7-18 19.1-56.3z"/>
	<path id="&lt;Path&gt; copy 89" class="s0" d="m69.6 69.4c-0.2 0-29.7 1.6-39.6 33.2-0.1 0.2-0.4 2.6-0.5 3.9-0.6 5.3-2.5 21.8 10.3 37.2 3.7 4.5 9.7 6.4 16.1 11v0.1c-13.4-7-13.6-7.3-13.9-7.5-18.1-17-14.2-42-14.1-42.3l0.6-3.2c5.4-17.2 16.1-25.3 24.3-29.3 8.9-4.5 17-4.8 17.3-4.8z"/>
	<path id="&lt;Path&gt; copy 90" class="s0" d="m141.2 41.4c0 0-0.2 14.1 7.1 13.8 7.3-0.3 8-6.1 8-6.1 0 0 4.2 19.3-13.3 19.9-17.4 0.5-11.9-11.4-11.9-11.4z"/>
	<path id="&lt;Path&gt; copy 91" class="s1" d="m129.2 27.6l-5.7-2.5-13.6-2.6c0 0-23.2-0.1-32.3 21.9 0 0-7.8 16.6-7.4 28.2 0 0 0.3 6.7 0.8 9.6 0.9 5.7 5.9 7.5 20.9 15.3 0 0 10 5.3 14.4 2.5 4.4-2.8 4.8-6.5 11.6-4.8 6.8 1.8 9.7 3.4 9.7 3.4l3-3.7 2.8-3.7 13.1-6 4.1-6.9c0 0 5.4-13.8 0.1-18.4-5.2-4.6-7.8-5.1-8-9.2-0.2-3.9-0.6-7.1-0.6-8.4 0-2.3-0.8-12-12.9-14.7z"/>
	<path id="&lt;Path&gt; copy 92" class="s2" d="m125.5 96.6c0 0-2.3-1.2-6.2-4.6-3.9-3.5-9.5-1-18.9-1.5-9.4-0.5-22.3-9.4-21.5-38.8 0 0-3.9-1.4-6 5-2.1 6.5-3.6 20.9-2.6 23.8 0.4 1.2 0.4 3.2 1 4.2 2 3.9 6.1 5.4 6.1 5.4l7.6 4.9 8.3 3.5 10.3 1.9 3.7-1.2 3-2.9 3.7-1.6 6.2 1.2 3.2 2.3z"/>
	<path id="&lt;Path&gt; copy 93" class="s0" d="m128.8 64.7c0 0 2.1-0.2 2.8-0.3 0.3 0.5 0.6 1.4 0.6 1.4 0.2 0.3 0.6 0.5 1 0.3 0.3-0.1 0.5-0.5 0.3-0.9l-0.8-1.8c-0.1-0.3-0.4-0.4-0.7-0.4l-3.3 0.4c-0.4 0-0.7 0.4-0.6 0.7 0 0.4 0.3 0.7 0.7 0.6z"/>
	<path id="&lt;Path&gt; copy 94" class="s3" d="m136.5 56c0 0 0-9-2-13.8 0 0-2.1-4.2-4.9-0.1l1.4 12.5 2.4 0.9z"/>
	<path id="&lt;Compound Path&gt; copy 12" fill-rule="evenodd" class="s0" d="m138.2 56.1l-0.1 0.8c-8.2-2-9.6-0.3-9.7-0.3l-0.5-0.5c0-0.1 0.2-0.4 0.9-0.6 0.2-1.3 0.7-4.7 0.1-10.1q0-0.2 0-0.3 0-0.3-0.1-0.6c0 0 0-0.7 0.1-1.4q0.2-1.3 0.8-2.1c0.6-0.7 1.5-1 2.5-1q0.7 0 1.3 0.5-0.7-0.9-1.4-1.1c-1.6-0.3-3 1.7-3 1.7l-0.3-0.2c0-0.1 1.5-2.2 3.3-1.9q1.7 0.4 2.8 3.5c1 2.2 1.3 5 1.4 5.2h-0.8c-0.1-1.9-1.1-6.8-3.3-6.9q-1.2 0-1.9 0.8-0.1 0.1-0.1 0.2 0.1 0 0.4 0c2 0.1 2 3.8 2.1 5.8 0.1 1.7 0.1 5.9 0.8 7.6q1.2 0.1 2.7 0.4l-0.3-3.1h0.7l0.3 3.3q0.7 0.1 1.3 0.3zm-6.1-5.5c0-3.9-0.5-6.5-0.5-6.5 0-0.1-0.1-0.2-0.3-0.2-0.1 0.1-0.1 0.2-0.1 0.3 0 0 0.5 2.5 0.5 6.4 0 0.2 0.1 0.3 0.2 0.3 0.1-0.1 0.2-0.1 0.2-0.3z"/>
	<path id="&lt;Path&gt; copy 95" class="s0" d="m135.2 41.9q-0.3 0.1-0.6 0l-0.2 0.7q0.5 0.1 1.1-0.1c0.8-0.4 1.2-1.6 1.2-1.6l-0.6-0.3c-0.1 0.3-0.4 1.1-0.9 1.3z"/>
	<path id="&lt;Path&gt; copy 96" class="s0" d="m135.5 44v0.7c1.4 0 2.1-1 2.3-1.5l-0.7-0.2c0 0-0.3 1-1.6 1z"/>
	<path id="&lt;Path&gt; copy 97" class="s0" d="m136 45.9v0.7c0.8 0 1.7-0.2 1.7-0.2l-0.1-0.7c0 0-0.9 0.2-1.6 0.2z"/>
	<path id="&lt;Path&gt; copy 98" class="s11" d="m133.7 75.7c0 0-0.2-2-1.5-2-1.3 0-3.3 1.1-3.3 1.1 0 0 0.2-1.5-1.8-1.5-2-0.1-6.8 1.5-6.8 1.5 0 0 5.7 2.2 8.1 2 2.4-0.2 5.3-1.1 5.3-1.1z"/>
	<path id="&lt;Path&gt; copy 99" class="s11" d="m127.2 85.2c0 0 1.1 7-2.9 6.8-4-0.1-3.4-10.8-2.9-9.3 0.5 1.5 2.4 3.9 2.4 3.9z"/>
	<path id="&lt;Path&gt; copy 100" class="s2" d="m99.1 67.7c0.5 1.9 3 2.8 5.7 2.2 2.6-0.7 4.3-2.8 3.8-4.7-0.5-1.9-3-2.8-5.6-2.1-2.7 0.7-4.4 2.8-3.9 4.6z"/>
	<path id="&lt;Path&gt; copy 101" class="s12" d="m111.6 71.8l5 2.3 8.1 2.5 8.2-0.7-3.3 5.8c-1-0.5-2.4-1.1-4.3-1.2-1.9-0.2-3.9 0-5.4 0.2l-2.5-2.1-6.8-4.6-0.2-1.8z"/>
	<path id="&lt;Path&gt; copy 102" class="s10" d="m125.3 80.5c1.9 0.1 3.3 0.7 4.3 1.2l-0.5 0.7-4.7 4.6-4.3-6.1-0.2-0.2c1.5-0.2 3.5-0.4 5.4-0.2z"/>
	<path id="&lt;Compound Path&gt; copy 13" fill-rule="evenodd" class="s0" d="m114.8 72.7c2.1 1.3 5.1 2.9 9.9 3.6 3.2 0.5 5.8 0.1 7.9-0.5 0 0 0.1-0.1 0.2-0.2 0.1 0 0.2 0 0.3 0.1 3.4-1.1 5.1-3 5.1-3 0.2-0.1 0.4-0.1 0.5 0q0.1 0.1 0.1 0.2 0 0.2-0.1 0.3c-0.1 0.1-2 2.2-5.9 3.3-2 1.5-3.4 4.3-4.6 6.7-1.1 2.1-1.9 3.8-3 4.2q-0.5 0.2-1-0.1c-1.4-0.7-1.9-1.9-2.4-3.3-0.4-1.2-0.9-2.5-2.2-3.6-0.9-0.9-2.6-1.9-4.3-2.9-2.8-1.6-5.5-3.1-5.6-4.5-0.1-0.2 0-0.7 0.4-1 1.3-1.2 2.6-0.4 4.7 0.7zm10.2 14.1c0.8-0.3 1.7-2.1 2.6-3.9 1-2.1 2.2-4.4 3.9-6.1-1.9 0.4-4.2 0.5-6.9 0.2-4.9-0.7-8.1-2.5-10.2-3.7-2-1.1-2.9-1.6-3.8-0.8-0.3 0.2-0.3 0.3-0.3 0.5 0.1 1 2.9 2.6 5.3 4 1.8 1 3.5 2 4.5 2.9 1.4 1.3 1.9 2.7 2.4 3.9 0.4 1.3 0.8 2.3 2 2.9q0.3 0.2 0.5 0.1z"/>
	<path id="&lt;Path&gt; copy 103" class="s0" d="m71.7 58.7l3.1-2.7 11.5-9.7c0 0-3.8 15.4 3.3 17.3 7.1 1.9 8.7-5.4 8.7-5.4q0 0 0 0.3c-0.3 2.3-3 19-18.6 14.6-16.8-4.8-8-14.4-8-14.4z"/>
	<path id="&lt;Path&gt; copy 104" class="s3" d="m114.4 57.6c0 0-0.1-10.9-2.4-16.5 0 0-2.6-5.1-5.9-0.2l1.7 15 2.8 1.1z"/>
	<path id="&lt;Compound Path&gt; copy 14" fill-rule="evenodd" class="s0" d="m116.4 57.7l-0.1 0.9c-9.9-2.3-11.6-0.3-11.6-0.3l-0.7-0.6c0-0.1 0.3-0.4 1.1-0.7 0.3-1.5 0.8-5.6 0.1-12.2q0-0.2 0-0.3 0-0.4 0-0.7c0 0-0.1-0.9 0.1-1.7q0.2-1.5 0.9-2.5c0.7-0.8 1.8-1.3 3-1.2 0.6 0 1.1 0.2 1.5 0.5q-0.8-1-1.7-1.2c-1.8-0.4-3.5 2-3.5 2l-0.4-0.3c0-0.1 1.9-2.6 4-2.2q2 0.4 3.4 4.2c1.2 2.6 1.5 6 1.6 6.2l-0.9 0.1c-0.2-2.3-1.4-8.3-4-8.3q-1.5-0.1-2.3 0.9-0.1 0.1-0.2 0.2 0.3 0 0.5 0c2.4 0.2 2.5 4.6 2.6 7 0.2 2.1 0.1 7.2 0.9 9.2q1.5 0.1 3.3 0.4l-0.3-3.6 0.8-0.1 0.4 3.9q0.7 0.2 1.5 0.4zm-7.3-6.5c0-4.8-0.7-7.9-0.7-7.9 0-0.1-0.1-0.2-0.2-0.2-0.2 0-0.3 0.2-0.2 0.3 0 0 0.6 3.1 0.6 7.8 0 0.1 0.1 0.2 0.3 0.2 0.1 0 0.2-0.1 0.2-0.2z"/>
	<path id="&lt;Path&gt; copy 105" class="s0" d="m104.5 41.3q0.3 0 0.6-0.3l0.5 0.7q-0.5 0.4-1.2 0.4c-1.1-0.1-2.1-1.2-2.1-1.3l0.6-0.5c0.2 0.2 0.9 0.9 1.6 1z"/>
	<path id="&lt;Path&gt; copy 106" class="s0" d="m105 43.8l0.3 0.7c-1.5 0.6-2.7-0.1-3.2-0.6l0.7-0.6c0 0.1 0.8 1 2.2 0.5z"/>
	<path id="&lt;Path&gt; copy 107" class="s0" d="m105.4 46.1l0.3 0.7c-1 0.4-2 0.6-2.1 0.6l-0.1-0.8c0 0 1-0.2 1.9-0.5z"/>
	<path id="&lt;Path&gt; copy 108" class="s0" d="m324.9 43.4c-3.2-0.2-8 0.3-8 0.3 5.4-1.8 9.7-5.1 9.7-5.1 3.6-5.7-1.8-6.4-1.8-6.4-4.8 1-12.1 6.1-12.1 6.1 8.5-9.7 6-13.5 6-13.5-1.2-4.6-4.7-2.8-4.7-2.8-2.4 1-3.7 5-3.7 5-1 6.7-5.7 8.4-5.7 8.4 0.4-0.8 0.4-3 0.4-3-0.4-9.2-7.9-7.7-7.9-7.7-2.6 0.5-1.1 3.5-1.1 3.5 1.3 2.8 0 7.3 0 7.3-2 1.9-0.9 8.4-0.9 8.4 1.5 5.5-0.9 8.3-1.4 8.8-1.9 1.6-3.5 4.3-3.5 4.3-2.1 5.3-12.9 13.5-12.9 13.5-4.5 2.4-6.7 4.2-6.7 4.2-9 7.1-3.4 20.9-3.4 20.9 0 0 1.9 5.7 9.4 5 0 0 7.4 0.5 11-11.1 1-3.4 8-12.9 8-12.9 0 0 6-6.8 10.6-18.8 0.1-0.3 0.9-1.1 1.2-1.3 1.4-0.7 2.9-0.8 2.9-0.8 0.6-0.1 1.5-0.5 2-0.8 2.4-1.2 3.3-3.3 3.3-3.3 0.1-0.1 3.2 0.2 3.2 0.2 4.8 0.2 7.1-1.7 7.1-1.7 0.3-0.1 1-1.1 1-1.1 3.5-4.4-2-5.6-2-5.6z"/>
	<path id="&lt;Path&gt; copy 109" class="s1" d="m305 56.9c0.6-1 4.2-2.1 4.2-2.1 3-0.7 5-4 5-4 1-1.5 3.5-0.3 3.5-0.3 4.7 0.2 7.3-1.2 7.3-1.2 3.3-4.3-1.9-5.4-1.9-5.4-3.1-0.2-7.7 0.3-7.7 0.3 5.2-1.7 9.3-4.9 9.3-4.9 3.5-5.5-1.7-6.1-1.7-6.1-4.6 0.9-11.6 5.8-11.6 5.8 8.2-9.2 5.7-12.9 5.7-12.9-1.1-4.3-4.4-2.6-4.4-2.6-2.3 0.9-3.5 4.8-3.5 4.8-1 6.3-5.5 8-5.5 8 0.4-0.8 0.4-2.9 0.4-2.9-0.4-8.8-7.5-7.4-7.5-7.4-2.5 0.5-1 3.4-1 3.4 1.1 2.6-0.1 7-0.1 7-1.9 1.8-0.8 8-0.8 8 1.4 5.2-0.9 7.9-1.4 8.4-1.7 1.5-3.3 4.1-3.3 4.1-2 5.1-12.3 13-12.3 13-4.3 2.2-6.4 4-6.4 4-8.6 6.7-3.2 20-3.2 20 0 0 1.7 5.4 8.9 4.7 0 0 7.3-1.1 10.6-12.3 1.2-3.9 6.7-10.4 6.7-10.4 0 0 6.4-7.5 10.7-19z"/>
	<path id="&lt;Compound Path&gt; copy 15" fill-rule="evenodd" class="s0" d="m315.4 23c1 0.5 1.6 1.4 2 2.9 0.1 0.1 0.4 0.7 0.4 1.8 0 1.8-0.8 5-4.6 9.7 2.4-1.5 6.6-3.9 9.8-4.5 0.1 0 2.2 0.2 3 1.9q0.2 0.6 0.2 1.3 0 1.4-1.2 3.4l-0.1 0.1c0 0-3 2.3-7.1 4.1 1.6-0.1 3.7-0.2 5.4-0.1 0.1 0 2.5 0.5 3.1 2.3q0.6 1.5-1 3.6l-0.1 0.1c-0.1 0.1-2.8 1.5-7.5 1.2h-0.1-0.1c0 0-2.2-1-3 0.2-0.1 0.2-2.1 3.4-5.2 4.2-1.3 0.3-3.6 1.2-4 1.8-4.3 11.5-10.7 19.1-10.7 19.1-0.1 0.1-5.5 6.5-6.6 10.3-3.3 11.2-10.6 12.5-11 12.6-7.3 0.7-9.3-5-9.3-5 0-0.1-1.6-4.2-1.6-9 0-3.9 1.1-8.3 5-11.4 0-0.1 2.1-1.8 6.4-4 0.1-0.1 10.3-7.9 12.2-12.9 0-0.1 1.6-2.6 3.4-4.1 0.3-0.4 1.7-2 1.7-5.1q0-1.3-0.4-3.1c-0.1-0.1-0.3-1.8-0.3-3.6 0-1.7 0.2-3.6 1.1-4.6 0-0.1 0.5-1.9 0.5-3.9 0-0.9-0.1-2-0.5-2.8 0 0-0.4-0.9-0.4-1.8q0-0.5 0.2-1 0.4-0.8 1.6-1c0.1-0.1 2.9-0.6 5.1 1.2q2.5 2 2.8 6.5c0 0.2-0.1 1.3-0.2 2.2 1.2-0.7 3.8-2.7 4.6-7.4 0-0.2 1.3-4.1 3.6-5 0.1-0.1 1.5-0.8 2.9-0.2zm-5.9 5.3c-1 6.5-5.5 8.2-5.7 8.3l-0.8 0.3 0.4-0.8c0.3-0.5 0.4-2.1 0.4-2.7q-0.2-4.2-2.5-6c-2-1.5-4.6-1.1-4.6-1.1q-0.8 0.2-1.1 0.7c-0.4 0.9 0.3 2.2 0.3 2.2 1.2 2.8 0 7.1 0 7.3h-0.1v0.1c-1.5 1.4-1.1 6-0.8 7.7 1.4 5.5-1 8.2-1.5 8.8-1.7 1.4-3.2 4-3.2 3.9-2 5.1-12 12.8-12.5 13.2-4.2 2.2-6.3 3.9-6.3 4-8.3 6.4-3.2 19.4-3.1 19.6 0.1 0.2 1.8 5.2 8.5 4.5 0.1 0 7.2-1.3 10.4-12.1 1.2-3.9 6.5-10.2 6.7-10.5 0.1-0.1 6.5-7.6 10.7-19 0.7-1.1 4.1-2.1 4.5-2.2 2.7-0.7 4.7-3.8 4.7-3.9 1.1-1.6 3.5-0.6 3.9-0.4 4.3 0.2 6.8-1.1 7-1.2q1-1.3 1-2.3 0-0.3-0.1-0.6c-0.5-1.4-2.6-1.9-2.6-1.9-3-0.1-7.6 0.3-7.6 0.3l-0.2-0.6c4.9-1.6 8.8-4.6 9.2-4.8q1.1-1.8 1.1-3 0-0.6-0.3-1c-0.6-1.3-2.3-1.5-2.3-1.6-4.4 0.9-11.3 5.7-11.4 5.8l-0.4-0.5c7.8-8.9 5.7-12.5 5.6-12.6q-0.5-2-1.7-2.5c-1.1-0.5-2.2 0.1-2.3 0.1-2 0.9-3.3 4.5-3.3 4.5zm-19.2 28.7q0 0 0 0 0 0 0 0z"/>
	<path id="&lt;Path&gt; copy 110" class="s0" d="m303.3 35.9c0 0-0.5 2.6 0.4 3.9 0 0 2.6 1.2 3.6 3.4 0 0 0-2.3-2.8-4.1 0 0-1.8-0.1-1.2-3.2z"/>
	<path id="&lt;Path&gt; copy 111" class="s2" d="m277.1 98.3c0 0 7.3-1.2 10.5-12.2 1.2-3.8 6.6-10.3 6.6-10.3 0 0 6.3-7.4 10.6-18.8 0.6-1 4.2-2 4.2-2 2.9-0.8 4.9-4 4.9-4 1-1.5 3.4-0.3 3.4-0.3 4.7 0.2 7.3-1.2 7.3-1.2 2-2.6 0.8-4.1-0.5-4.8 0.5 1.1 0.6 2.6-1.8 3.8 0 0-4.3 0.8-7.8 0.6 0 0-0.8-0.3-2.4 1.5 0 0-4.8 4.4-7.4 4.5 0 0-0.7 0-2.5 4.6 0 0-7.8 13.8-10.8 15.7-2.9 2-6 8.7-7.1 11.5 0 0-4.8 8.4-9.1 7.5 0 0-7.7-0.6-8.1-9l-0.4 0.5c0.2 4.2 1.6 7.7 1.6 7.7 0 0 1.7 5.4 8.8 4.7z"/>
	<path id="&lt;Path&gt; copy 112" class="s2" d="m296.1 26.8c0 0 8.8 0.8 6.9 9.7l0.6-1.1c0 0 1.3-9.6-6.3-9.2z"/>
	<path id="&lt;Path&gt; copy 113" class="s2" d="m316 24.6c0 0 4.6 3.7-4.9 13.9l-0.2-0.5c0 0 8.3-9.1 5.1-13.4z"/>
	<path id="&lt;Path&gt; copy 114" class="s2" d="m325.3 36.2c0 0 1.7 3.6-10 7.5l-0.1-0.5c0 0 10.3-3.1 10.1-7z"/>
	<path id="&lt;Path&gt; copy 115" class="s0" d="m13.6 54.7c3-0.2 7.6 0.3 7.6 0.3-5.2-1.7-9.3-4.9-9.3-4.9-3.4-5.4 1.8-6.1 1.8-6.1 4.6 0.9 11.5 5.8 11.5 5.8-8.1-9.2-5.7-12.9-5.7-12.9 1.1-4.2 4.4-2.5 4.4-2.5 2.3 0.9 3.5 4.7 3.5 4.7 1 6.4 5.5 8 5.5 8-0.4-0.8-0.4-2.9-0.4-2.9 0.4-8.7 7.5-7.3 7.5-7.3 2.5 0.4 1 3.3 1 3.3-1.2 2.7 0 7 0 7 1.9 1.8 0.9 7.9 0.9 7.9-1.4 5.3 0.9 7.9 1.4 8.4 1.7 1.5 3.3 4.1 3.3 4.1 1.9 5 12.2 12.9 12.2 12.9 4.3 2.2 6.4 4 6.4 4 8.6 6.7 3.2 19.8 3.2 19.8 0 0-1.7 5.5-8.9 4.8 0 0-7 0.5-10.5-10.6-0.9-3.2-7.5-12.3-7.5-12.3 0 0-5.8-6.4-10.1-17.9-0.1-0.2-0.9-1-1.2-1.2-1.3-0.7-2.7-0.7-2.7-0.7-0.6-0.2-1.5-0.5-2-0.8-2.2-1.1-3.1-3.1-3.1-3.1-0.1-0.1-3 0.1-3 0.1-4.6 0.3-6.8-1.5-6.8-1.5-0.3-0.1-0.9-1.1-0.9-1.1-3.3-4.2 1.9-5.3 1.9-5.3z"/>
	<path id="&lt;Path&gt; copy 116" class="s1" d="m32.5 67.4c-0.6-1-4-2-4-2-2.8-0.7-4.8-3.8-4.8-3.8-0.9-1.4-3.3-0.3-3.3-0.3-4.4 0.2-6.9-1.1-6.9-1.1-3.2-4.1 1.8-5.1 1.8-5.1 2.9-0.2 7.3 0.2 7.3 0.2-5-1.6-8.9-4.6-8.9-4.6-3.2-5.2 1.7-5.8 1.7-5.8 4.4 0.8 11 5.5 11 5.5-7.8-8.8-5.4-12.3-5.4-12.3 1-4.1 4.2-2.5 4.2-2.5 2.1 0.9 3.3 4.6 3.3 4.6 1 6.1 5.2 7.6 5.2 7.6-0.3-0.7-0.4-2.7-0.4-2.7 0.4-8.4 7.2-7.1 7.2-7.1 2.4 0.5 1 3.2 1 3.2-1.2 2.6 0 6.7 0 6.7 1.8 1.7 0.8 7.6 0.8 7.6-1.3 5 0.8 7.5 1.3 8 1.7 1.5 3.2 3.9 3.2 3.9 1.8 4.8 11.7 12.3 11.7 12.3 4.1 2.2 6.1 3.9 6.1 3.9 8.1 6.4 3 19 3 19 0 0-1.7 5.2-8.5 4.5 0 0-7-1.1-10.1-11.7-1.1-3.7-6.3-9.9-6.3-9.9 0 0-6.1-7.2-10.2-18.1z"/>
	<path id="&lt;Compound Path&gt; copy 16" fill-rule="evenodd" class="s0" d="m25.3 35.3c2.3 1 3.5 4.6 3.5 4.8 0.7 4.5 3.2 6.4 4.4 7.1-0.2-0.9-0.2-2-0.2-2.1q0.2-4.3 2.6-6.2c2.2-1.7 4.8-1.2 4.9-1.2q1.1 0.2 1.5 1 0.2 0.5 0.2 0.9c0 0.9-0.4 1.7-0.4 1.8-0.4 0.8-0.5 1.7-0.5 2.7 0 1.8 0.5 3.5 0.5 3.7 0.9 0.9 1.1 2.6 1.1 4.3 0 1.7-0.3 3.3-0.3 3.5q-0.4 1.6-0.4 2.9c0 2.9 1.3 4.5 1.6 4.8 1.7 1.4 3.2 3.8 3.3 4 1.8 4.7 11.5 12.1 11.5 12.1 4.1 2.2 6.1 3.8 6.2 3.9 3.7 2.9 4.7 7.1 4.7 10.8 0 4.6-1.5 8.5-1.6 8.6 0 0-1.8 5.4-8.8 4.7-0.3 0-7.3-1.2-10.4-12-1.1-3.5-6.2-9.6-6.3-9.7 0-0.1-6.1-7.3-10.2-18.2-0.4-0.6-2.5-1.4-3.8-1.7-2.9-0.8-4.9-3.8-4.9-4-0.8-1.1-2.9-0.2-2.9-0.2h-0.1v0.1c-4.5 0.2-7.1-1.2-7.2-1.2l-0.1-0.1q-1.5-2-1-3.5c0.6-1.6 2.9-2.1 3.1-2.2 1.5-0.1 3.5 0 5 0.1-3.9-1.6-6.7-3.8-6.8-3.9q-1.2-1.9-1.2-3.3 0-0.7 0.3-1.2c0.7-1.6 2.7-1.8 2.9-1.9 3 0.6 6.9 2.9 9.2 4.4-3.6-4.6-4.4-7.6-4.4-9.2 0-1.1 0.3-1.7 0.3-1.7q0.6-2.1 2-2.8c1.3-0.6 2.7 0.1 2.7 0.1zm0.9 15.4c-0.1-0.1-6.6-4.7-10.7-5.5-0.1 0-1.8 0.2-2.3 1.5q-0.2 0.4-0.2 0.9 0 1.2 1 2.9c0.3 0.2 4 3 8.7 4.5l-0.1 0.7c-0.1 0-4.4-0.5-7.2-0.3-0.1 0-2.1 0.4-2.5 1.7q-0.2 0.3-0.2 0.7 0.1 0.9 1 2.1c0.2 0.1 2.6 1.3 6.7 1.1 0.3-0.2 2.6-1.1 3.6 0.5 0 0 1.9 2.9 4.6 3.6 0.3 0.1 3.5 1.1 4.2 2.1v0.1c4 10.7 10.1 17.9 10.1 18 0.2 0.2 5.3 6.3 6.4 10 3.1 10.2 9.8 11.5 9.9 11.5 6.4 0.6 8.1-4.1 8.1-4.4 0.1-0.1 4.9-12.4-3-18.6 0 0-2-1.7-6-3.8-0.4-0.3-10-7.6-11.8-12.4 0 0-1.5-2.4-3.1-3.8-0.5-0.5-2.8-3.2-1.4-8.4 0.2-1.5 0.7-6-0.7-7.3h-0.1v-0.1c-0.1-0.2-1.2-4.3 0-6.9 0 0 0.6-1.3 0.2-2.1q-0.2-0.5-1-0.7c0 0-2.5-0.4-4.4 1.1-1.4 1.1-2.2 3-2.3 5.7 0 0.5 0.1 2 0.3 2.5l0.4 0.8-0.8-0.3c-0.1-0.1-4.4-1.7-5.4-7.8 0-0.1-1.2-3.6-3.2-4.4 0 0-1.1-0.5-2.1-0.1-0.8 0.4-1.3 1.2-1.7 2.5 0 0-2 3.5 5.4 11.9z"/>
	<path id="&lt;Path&gt; copy 117" class="s0" d="m34.1 47.4c0 0 0.4 2.5-0.3 3.8 0 0-2.6 1-3.5 3.2 0 0 0-2.2 2.6-3.9 0 0 1.8-0.1 1.2-3.1z"/>
	<path id="&lt;Path&gt; copy 118" class="s2" d="m59 106.8c0 0-6.9-1.1-10-11.6-1.1-3.7-6.3-9.8-6.3-9.8 0 0-6-7.1-10-17.9-0.6-0.9-4-1.9-4-1.9-2.8-0.7-4.7-3.8-4.7-3.8-0.9-1.4-3.2-0.3-3.2-0.3-4.4 0.2-6.9-1.1-6.9-1.1-2-2.5-0.8-3.9 0.4-4.6-0.5 1.1-0.5 2.5 1.7 3.6 0 0 4.2 0.7 7.4 0.6 0 0 0.9-0.3 2.3 1.4 0 0 4.6 4.2 7.1 4.3 0 0 0.7 0 2.4 4.4 0 0 7.4 13.1 10.2 14.9 2.8 1.9 5.7 8.3 6.8 10.9 0 0 4.6 8 8.7 7.1 0 0 7.3-0.5 7.6-8.5l0.5 0.5c-0.2 4-1.6 7.3-1.6 7.3 0 0-1.6 5.1-8.4 4.5z"/>
	<path id="&lt;Path&gt; copy 119" class="s2" d="m40.9 38.8c0 0-8.3 0.8-6.5 9.2l-0.6-1c0 0-1.2-9.1 6-8.8z"/>
	<path id="&lt;Path&gt; copy 120" class="s2" d="m22 36.7c0 0-4.4 3.5 4.7 13.2l0.2-0.4c0 0-7.9-8.7-4.9-12.8z"/>
	<path id="&lt;Path&gt; copy 121" class="s2" d="m13.2 47.8c0 0-1.6 3.4 9.5 7.1l0.1-0.5c0 0-9.8-3-9.6-6.6z"/>
	<path id="&lt;Path&gt; copy 122" class="s0" d="m266.9 151.3c0 0-3.1-10.4 4.5-13.6 0 0 9.1-2.2 12.9 9 5.4 16.3 5.8 17.1 6.5 17.2 0 0 8.3-4 13.7-1.5 0 0 11.6 4 10.4 13.8 0 0-0.4 8.5-13.9 9.5 0 0-24.2-0.9-29.1-1.6 0 0-10.6-2.4-6.7-10.9 0 0 5.6-8 4.2-15.7 0 0-1.4-4.8-2.5-6.2z"/>
	<path id="&lt;Path&gt; copy 123" class="s0" d="m290.3 165.5c0 0-6.2 2.9-8.7 5.7"/>
	<path id="&lt;Path&gt; copy 124" class="s1" d="m268 150.9c0 0-3-8.5 4.7-11.4 0 0 5.6-2.2 10.7 8.1 0 0 4.4 17.3 6.9 17.7 0 0 7.3-3.5 12.5-1.5 0 0 8.3 1.1 9.8 11.4 0 0-0.3 8.1-12.8 9 0 0-22.7-0.5-27.1-1.7 0 0-7.7-0.3-5.7-8.6 0 0 5.1-7.8 3.5-15.6 0 0-1.5-6.1-2.5-7.4z"/>
	<path id="&lt;Path&gt; copy 125" class="s1" d="m290 165.4c0 0-5.8 2.6-8.1 5.1"/>
	<path id="&lt;Path&gt; copy 126" class="s2" d="m272.4 140.2c0 0 3.9-2.4 8.1 3.7 0 0 2.5 2.7 2.8 5.1 0 0 2.9 12.9 6.1 16 0 0-5.8 3.3-7.4 4.6q-0.1 0.1-0.2 0.2c-1.1 1.2 4.1-2.7 1.2-9.3 0 0-2.7-8.5-3.1-11.8 0 0-1.5-6.2-7.5-8.5z"/>
	<path id="&lt;Path&gt; copy 127" class="s2" d="m286.6 167.6c0 0 10.6-7.9 19.8-2.4 0 0 7.9 5.6 5.4 11.9 0 0-1.1 10.2-26.1 6.3 0 0 21.3-1 22.1-5.6 0 0 2.9-7.3-3.3-8.7 0 0-3.5-3.9-17.9-1.5z"/>
	<path id="&lt;Path&gt; copy 128" class="s0" d="m283 170.1l0.7 0.3c0.9-1.7 5.8-5 5.9-5.1l-0.4-0.6c-0.2 0.2-5.2 3.5-6.2 5.4z"/>
	<path id="&lt;Path&gt; copy 129" class="s0" d="m66.2 157c0 0 3.1-10.4-4.5-13.6 0 0-9.1-2.2-12.8 9-5.4 16.3-5.8 17.1-6.5 17.2 0 0-8.3-4-13.8-1.6 0 0-11.5 4.1-10.3 13.8 0 0 0.4 8.5 13.9 9.5 0 0 24.2-0.9 29-1.5 0 0 10.6-2.5 6.7-10.9 0 0-5.6-8.1-4.2-15.7 0 0 1.4-4.8 2.5-6.2z"/>
	<path id="&lt;Path&gt; copy 130" class="s0" d="m42.9 171.2c0 0 6.1 2.9 8.6 5.7"/>
	<path id="&lt;Path&gt; copy 131" class="s1" d="m65.1 156.6c0 0 3.1-8.5-4.6-11.4 0 0-5.6-2.2-10.8 8.1 0 0-4.3 17.3-6.9 17.7 0 0-7.3-3.6-12.4-1.5 0 0-8.3 1.1-9.8 11.3 0 0 0.3 8.1 12.8 9.1 0 0 22.6-0.6 27-1.8 0 0 7.7-0.2 5.7-8.6 0 0-5-7.7-3.5-15.5 0 0 1.5-6.1 2.5-7.4z"/>
	<path id="&lt;Path&gt; copy 132" class="s1" d="m43.2 171.1c0 0 5.7 2.6 8.1 5.1"/>
	<path id="&lt;Path&gt; copy 133" class="s2" d="m60.7 145.9c0 0-3.8-2.3-8.1 3.8 0 0-2.4 2.6-2.8 5 0 0-2.9 12.8-6 16 0 0 5.8 3.2 7.3 4.6q0.2 0.1 0.3 0.2c1 1.2-4.1-2.7-1.2-9.4 0 0 2.7-8.4 3-11.6 0 0 1.5-6.2 7.5-8.6z"/>
	<path id="&lt;Path&gt; copy 134" class="s2" d="m46.5 173.3c0 0-10.5-7.9-19.7-2.4 0 0-7.9 5.5-5.4 11.8 0 0 1.2 10.2 26.1 6.3 0 0-21.3-0.9-22.1-5.5 0 0-2.8-7.3 3.3-8.8 0 0 3.5-3.8 17.8-1.4z"/>
	<path id="&lt;Path&gt; copy 135" class="s0" d="m43.6 171c0 0 5 3.3 5.9 5.1l0.6-0.3c-1-2-5.9-5.3-6.1-5.4z"/>
	<path id="&lt;Path&gt; copy 136" class="s11" d="m71.8 58.9l2-2 3.5-3.5c0 0 6.9-6.7 12.3-10.2 1.3-0.8 4.9-3.6 8.4-4.3 1.1-0.3 1.8-0.6 1.9-0.9 2.8-7.3 8.5-8.6 10.7-8.9 4.5-0.7 9.4 2 11.9 2 6.4 0.1 5.5-1 5.5-1l5.3-1.1c0 0-2.8-4.8-11.7-9.3 0 0-3.6-3-10.8-1.6-7.2 1.4-17.4 3.1-20.8 3.7l-3.8 1.8c0 0-9 4.3-11.4 16.4-2.4 12.2-2.9 14.5-2.9 14.5l-2.5-1.5c0 0-6.9-3.5-14.7 3.7 0 0 1.1 2.4 3.6 3.3 0 0-4.2 6.7-1.1 11.5 0 0 0.4-2.2 2.7-2.7 0 0 10.6-2.2 10.7-8.2z"/>
	<path id="&lt;Path&gt; copy 137" class="s0" d="m72.5 53.8c0.3 0.3 0.4 0.8 0.1 1.2-0.3 0.4-0.8 0.4-1.2 0.1-0.2-0.2-6.9-5.4-15.7 1.7 0.5 0.7 1.6 1.9 3.6 2.5 2.9 0.8 6.7-0.1 11.1-2.8-0.7-0.5-2-1.1-5-0.1-0.4 0.2-0.9-0.1-1-0.5-0.2-0.4 0.1-0.9 0.5-1 6.1-2.1 7.4 1.5 7.5 1.6 0.1 0.4-0.1 0.8-0.4 1-5.2 3.3-9.6 4.4-13.2 3.4-3.6-1-4.9-3.8-5-3.9-0.1-0.3-0.1-0.7 0.2-1 10.2-8.7 18.4-2.2 18.5-2.2z"/>
	<path id="&lt;Path&gt; copy 138" class="s0" d="m72 58.2c0 0.1 0.2 8.7-10.7 11 0 0-2.3 0.7-3.4 2.9-0.2 0.3-0.5 0.4-0.8 0.4-0.3 0-0.6-0.1-0.7-0.4-0.2-0.3-3.5-6.6 0.6-11.5 0.2-0.3 0.8-0.4 1.1-0.1 0.2 0.2 0.3 0.5 0.3 0.7q0 0.3-0.2 0.5c-1.1 1.3-1.5 2.8-1.5 4.3-0.1 1.5 0.3 3 0.6 4 1.5-1.8 3.5-2.4 3.6-2.4 8.7-1.9 9.4-7.8 9.5-9.1q0-0.2 0-0.2 0 0 0-0.1c0-0.4 0.3-0.8 0.8-0.8 0.4 0 0.8 0.4 0.8 0.8z"/>
	<path id="&lt;Path&gt; copy 139" class="s13" d="m82.3 25.7c0 0-2.8-0.9-3 8-0.1 8.9-0.3 16.3-0.3 16.3l-8 8.9 0.9-8.2c0 0 2-16 3.5-18 1.6-2 6.9-7 6.9-7z"/>
	<path id="&lt;Compound Path&gt; copy 17" fill-rule="evenodd" class="s0" d="m117.1 16.2c12.6 6.1 15.2 11.5 15.2 11.5v0.1c0 0 0 0 0 0 0.8 0.1 1.6 0.3 2.5 0.5 5.3 1.7 8.9 6.7 8.9 12.2q0 0.5-0.1 1.1-0.2 2.4-0.2 4.3c0 4.8 0.9 7.4 1.8 8.2l1.1 0.7c2.7 1.8 7.8 5.1 7.8 12.9q0 2.1-0.5 4.5c-2.8 12.3-7.3 15.2-18.6 19.7-1.3 1.1-3.4 3.1-3.9 4.3-0.5 1.4-1.5 2.4-2.9 2.9-2.1 0.7-4.9 0-8.3-2-0.2-0.2-6.1-3.9-11.3 2.1-0.2 0.4-8.1 9.7-35.8-11.2-0.6-0.3-3.8-2.7-3.8-9.3q0-0.1 0-0.1l2.4-29.8c1-12.9 2.8-17.7 8.7-23.3 4.7-4.5 12.2-5.7 17.6-6.6 1.4-0.2 2.6-0.4 3.5-0.6l0.7-0.2c6.7-1.6 13-3 15.2-1.9zm-0.9 2c-1.8-0.8-9.9 1.1-13.8 2.1l-0.7 0.1c-1 0.3-2.2 0.5-3.6 0.7-5.2 0.9-12.2 2-16.4 6-5.4 5.2-7.1 9.7-8.1 21.9 0 0-2.3 28.4-2.4 29.7 0 5.7 2.7 7.4 2.8 7.4q0.1 0.1 0.1 0.1c25.7 19.4 32.8 11.7 32.8 11.6 6.4-7.6 14.2-2.6 14.2-2.6 3.5 2.1 5.4 2.1 6.4 1.8 0.9-0.4 1.3-1 1.5-1.6 0.9-2.3 4.3-5 4.7-5.3q0.1-0.1 0.3-0.2c11-4.4 14.8-6.8 17.4-18.1 2.1-9.6-3.4-13.2-6.3-15.1l-1.3-0.9c-3-2.5-2.8-10.1-2.4-14.4 0.5-4.9-2.6-9.5-7.2-10.9-3.5-1.1-5.4-0.4-7.3 0.3-1 0.4-2 0.8-3.1 0.9-1.2 0.1-2.6-0.3-4.3-0.8-3.5-1-8.2-2.4-13.7 0.4-5.2 2.7-7.2 8.5-7.2 8.5v0.1c0 0-0.2-7.3 6.2-10.6 6.3-3.2 11.7-1.6 15.3-0.5 1.4 0.4 2.7 0.8 3.4 0.7 0.9-0.1 1.7-0.4 2.6-0.7 1.2-0.5 3.1-1.3 6-1-4.6-4.6-14.3-8.9-15.9-9.6z"/>
	<path id="&lt;Path&gt; copy 140" class="s0" d="m96.9 39.1h0.1c-3.6 0.4-10.9 7.2-24.5 20-0.5 0.4-1.2 0.4-1.6-0.1-0.4-0.4-0.4-1.1 0.1-1.5 20.8-19.2 25.9-18.4 25.9-18.4z"/>
	<path id="&lt;Path&gt; copy 141" class="s8" d="m113.1 95c0 0-9.4 6.7-23.1 1.7 0 0-16.1-3.9-18.1-27.8 0 0-6.1 2.6-2.8 14.7 0 0 9.8 24.7 37 18.5 0 0 4.5-0.9 7-7.1z"/>
	<path id="&lt;Compound Path&gt; copy 18" fill-rule="evenodd" class="s0" d="m72.1 69.2c0.1 11 4.7 19.1 12.7 24.1 5.9 3.9 12 4.4 12 4.4 9.2 1.2 17.1-3.9 17.2-4h0.1l-0.2 0.4c-2.3 10.3-15.7 10.5-23.1 9-18.8-4.7-23.4-21.3-23.4-21.4-2.8-11 3.8-13.4 4.1-13.5l0.7-0.3zm24.6 30.2c-0.3 0-24.8-2.8-26-29.3-1 0.8-2.3 3-2.3 6.7 0 1.3 0.1 2.8 0.6 4.5 0 0.2 4.4 15.7 22.2 20.2 0.1 0 12.5 3 19.5-2.8 0 0 1.1-1.3 2.2-3.4-2.1 2.2-9.7 5-16.2 4.1z"/>
	<path id="&lt;Path&gt; copy 142" class="s2" d="m141.8 66.5c-0.6 1.4 0.4 3.2 2.3 4.1 1.8 0.9 3.9 0.6 4.5-0.8 0.7-1.3-0.3-3.1-2.2-4-1.9-1-3.9-0.6-4.6 0.7z"/>
	<g id="&lt;Group&gt;">
		<g id="&lt;Group&gt;">
			<path id="&lt;Path&gt;" class="s0" d="m291.3 141.8l-3.7 0.4c11.7 2.6 11.1 4.7 11 4.8-2.2 4-13.2 2.8-13.3 2.7l0.8 1.2c0.5 0.1 9.6 0.5 14.6-2.5 3.9-2.3 4.1-3.9-9.4-6.6z"/>
			<path id="&lt;Path&gt;" class="s1" d="m289.2 141.7c0 0 20.7 4.8 4.1 8.5l-6.5 0.1-5.3-5.2v-1.5z"/>
			<path id="&lt;Path&gt;" class="s2" d="m299.1 145.6c-5.2 5.2-11.4 1.1-13.7 0.1-9.4-3.9 0.7 5.2 0.7 5.2l4.3-0.5 3.5-0.2c0 0 8.5-1.5 5.2-4.6z"/>
		</g>
		<g id="&lt;Group&gt;">
			<path id="&lt;Path&gt;" class="s0" d="m43.7 144l3.7 0.4c-11.8 2.6-11.1 4.7-11 4.8 2.2 4 13.2 2.8 13.3 2.7l-0.8 1.2c-0.5 0.1-9.6 0.6-14.7-2.5-3.8-2.3-4-3.9 9.5-6.6z"/>
			<path id="&lt;Path&gt;" class="s1" d="m45.8 143.9c0 0-20.7 4.8-4.2 8.5l6.6 0.2 5.3-5.3v-1.4z"/>
			<path id="&lt;Path&gt;" class="s2" d="m35.9 147.8c5.2 5.2 11.4 1.1 13.7 0.2 9.4-4-0.7 5.1-0.7 5.1l-4.3-0.4-3.5-0.3c0 0-8.5-1.5-5.2-4.6z"/>
		</g>
		<g id="&lt;Group&gt;">
			<path id="&lt;Path&gt;" class="s0" d="m248.6 142.6l-9.4-2.1c0 0-6.7-1.3-9.8 9.1 0 0-2.4 8-6.8 12.3 0 0-16.1-8.8-24.5 5.3 0 0-6.9 11.6 7.5 16.6 0 0 9.5 1.3 16.4 1.5 0 0 21 2.2 25.6-8.1 0 0 1.4-3.2-0.5-8.6 0 0-2.8-20 1.5-26z"/>
			<g id="&lt;Group&gt;">
				<path id="&lt;Path&gt;" class="s1" d="m236.8 143c0 0-4.3 0-7.2 9.1 0 0-2.5 8.4-6.5 12.1 0 0-14.3-10.1-21.8 2.8 0 0-7.2 13.1 5.6 15.3 0 0 8.8 1.4 15.3 1.5 0 0 20.2 1.6 23.6-7.8 0 0 1.6-2.5-0.6-7.4 0 0-2.3-17.6 1.8-22.8z"/>
			</g>
			<path id="&lt;Path&gt;" class="s2" d="m246 145q0 0-0.1 0.4c-0.3 2.6-2.7 19.8-0.3 24.5 0 0 4.9 11.4-13 13.1 0 0-19.5 1.6-28.9-2.5 0 0 27 3.7 33.8-1.5 0 0 6.1-4.2 3.9-8.8q-0.1-0.1-0.2-0.3c-2.6-4.6-1.5-5.7-0.8-10.1 0 0 2.3-9.9-2.7-16z"/>
			<path id="&lt;Path&gt;" class="s2" d="m223.9 163.7c0 0 2.7 2.4 3.5 2.6l2.6 0.7-4.3-4.5-0.6-0.4z"/>
			<path id="&lt;Path&gt;" class="s1" d="m222.9 163.5c0 0 1.6 2.3 6.1 3.3"/>
			<path id="&lt;Path&gt;" class="s0" d="m222.6 163.8c0 0.1 1.7 2.4 6.3 3.4l0.2-0.8c-4.2-1-5.9-3.1-5.9-3.1z"/>
		</g>
		<g id="&lt;Group&gt;">
			<path id="&lt;Path&gt;" class="s0" d="m87.2 147l9.1-2c0 0 6.4-1.3 9.5 8.7 0 0 2.3 7.8 6.5 11.9 0 0 15.6-8.5 23.7 5.1 0 0 6.7 11.2-7.2 16 0 0-9.2 1.4-15.9 1.5 0 0-20.2 2.2-24.7-7.8 0 0-1.4-3 0.5-8.3 0 0 2.7-19.3-1.5-25.1z"/>
			<g id="&lt;Group&gt;">
				<path id="&lt;Path&gt;" class="s1" d="m98.6 147.4c0 0 4.1 0 7 8.8 0 0 2.3 8 6.3 11.6 0 0 13.8-9.7 21 2.7 0 0 7 12.7-5.5 14.8 0 0-8.4 1.4-14.7 1.5 0 0-19.5 1.5-22.7-7.6 0 0-1.6-2.4 0.6-7.1 0 0 2.1-17-1.8-22z"/>
			</g>
			<path id="&lt;Path&gt;" class="s2" d="m89.7 149.3q0 0 0.1 0.4c0.4 2.5 2.6 19.1 0.3 23.7 0 0-4.7 11 12.6 12.6 0 0 18.8 1.5 27.9-2.4 0 0-26.1 3.6-32.6-1.5 0 0-5.9-4.1-3.8-8.4q0.1-0.2 0.1-0.3c2.6-4.5 1.5-5.6 0.9-9.8 0 0-2.3-9.5 2.5-15.5z"/>
			<path id="&lt;Path&gt;" class="s2" d="m111.1 167.3c0 0-2.6 2.4-3.4 2.6l-2.5 0.7 4.1-4.4 0.6-0.4z"/>
			<path id="&lt;Path&gt;" class="s1" d="m112 167.2c0 0-1.5 2.2-5.9 3.2"/>
			<path id="&lt;Path&gt;" class="s0" d="m106 170l0.2 0.8c4.4-1.1 6.1-3.3 6.2-3.4l-0.7-0.4c0 0-1.6 2-5.7 3z"/>
		</g>
		<path id="&lt;Path&gt;" class="s0" d="m212.8 103.3c0 0-9 22.9-15.3 24.9 0 0-2.2 1.7-3.4 1.7 0 0-1 0.3-2.3 1.3-1.8 0.3-5.6 0.7-8.3 0.3 0 0-10.8-1.3-7.3 2.8l0.5 0.1c-1.3 0.3-2.5 1.3-1.8 4 0 0 0.6 0.6 1.6 1.3-0.4 0.9-0.6 2.1-0.3 3.8 0 0 2.1 4.4 8.6 1.3 0 0 9-4.4 13.6-5.1 0 0 4.5-0.6 6 2.2 0 0 1.5 7.7 5.4 7.4 0 0 5.2 0.5 4.5-5 0 0-0.6-4.3-2.6-6.1 0 0-1.7-2.8-1.5-5 0 0 1.1-1.1 0.2-1.7 0 0 4.3-2.9 6.9-6.4 2.6-3.4 13-34.8 13-34.8 0 0-8.9-4.8-17.5 13z"/>
		<path id="&lt;Path&gt;" class="s0" d="m153.4 138.3l0.5-0.1c3.3-3.9-7.1-2.7-7.1-2.7-2.7 0.5-6.4 0-8.1-0.2-1.3-1-2.2-1.2-2.2-1.2-1.2 0-3.3-1.7-3.3-1.7-6-1.8-14.8-23.6-14.8-23.6-8.4-16.9-16.9-12.4-16.9-12.4 0 0 10 29.8 12.5 33.1 2.5 3.3 6.7 6 6.7 6-0.8 0.6 0.2 1.7 0.2 1.7 0.2 2-1.5 4.7-1.5 4.7-1.8 1.7-2.5 5.8-2.5 5.8-0.6 5.2 4.4 4.8 4.4 4.8 3.8 0.2 5.2-7 5.2-7 1.5-2.7 5.9-2.1 5.9-2.1 4.3 0.6 13.1 4.7 13.1 4.7 6.3 3.1 8.4-1.2 8.4-1.2 0.2-1.6 0.1-2.7-0.3-3.6 0.9-0.6 1.5-1.2 1.5-1.2 0.7-2.6-0.5-3.5-1.7-3.8z"/>
		<g id="&lt;Group&gt;">
			<g id="&lt;Group&gt;">
				<path id="&lt;Path&gt;" class="s1" d="m193.2 131.4c0 0-5.3 1-8.8 0.4 0 0-10.2-1.2-7 2.7l13.8 2.4z"/>
				<path id="&lt;Compound Path&gt;" fill-rule="evenodd" class="s0" d="m194 130.7l-2.5 6.8-14.3-2.6-0.1-0.1q-1.2-1.4-0.6-2.3c1-1.9 6.8-1.3 8-1.2 3.4 0.6 8.6-0.4 8.6-0.4zm-9.6 1.6c-2.5-0.4-6.5-0.4-7 0.6q-0.1 0.1-0.1 0.2c0 0.3 0.3 0.6 0.5 0.9 0.3 0 12.3 2.2 13.1 2.3 0.2-0.6 1.2-3.2 1.6-4.3-1.7 0.2-5.4 0.7-8.1 0.3z"/>
				<path id="&lt;Path&gt;" class="s1" d="m192 132.6c0 0-7 2.9-12.1 1.9 0 0-4.9-0.9-3.7 3.8 0 0 3.7 3.5 7.2 2.5z"/>
				<path id="&lt;Compound Path&gt;" fill-rule="evenodd" class="s0" d="m191.8 132.1l0.6 0.9-8.7 8.3h-0.2c-3.7 1.1-7.5-2.4-7.6-2.6l-0.1-0.1-0.1-0.1q-0.6-2.4 0.5-3.6c1.3-1.3 3.7-1 3.8-0.9 4.9 0.9 11.7-1.8 11.8-1.9zm-12 2.8c0 0-1.9-0.3-2.8 0.7q-0.5 0.5-0.5 1.4 0 0.5 0.2 1.1c0.6 0.5 3.6 3 6.5 2.2 0.1-0.1 4.6-4.4 6.8-6.5-2.5 0.8-6.7 1.8-10.2 1.1z"/>
				<path id="&lt;Path&gt;" class="s1" d="m228.9 93c0 0-8.4-4.5-16.6 12.3 0 0-8.6 21.6-14.6 23.4 0 0-2 1.7-3.2 1.7 0 0-2.1 0.6-4.5 3.2 0 0-3.9 3.5-8.5 3.7 0 0-5.1-0.2-4.1 5.8 0 0 2.1 4.2 8.3 1.2 0 0 8.6-4.1 12.9-4.7 0 0 4.3-0.6 5.7 2 0 0 1.4 7.2 5.1 7 0 0 5 0.4 4.3-4.7 0 0-0.6-4.1-2.4-5.8 0 0-1.7-2.6-1.5-4.7 0 0 1.1-1 0.2-1.6 0 0 4.1-2.7 6.6-6 2.5-3.2 12.3-32.8 12.3-32.8z"/>
				<path id="&lt;Compound Path&gt;" fill-rule="evenodd" class="s0" d="m229.1 92.6l0.4 0.2-0.1 0.4c-0.4 1.2-9.9 29.6-12.4 32.9-2.1 2.8-5.3 5.2-6.3 5.9 0 0.1 0.2 0.2 0.2 0.3q0 0 0 0.1c0 0.5-0.4 1-0.6 1.2q0 0.1 0 0.2c0 1.8 1.3 4 1.4 4.1 1.9 1.7 2.5 5.7 2.5 5.9q0.1 0.5 0.1 0.9 0 2-1.1 3.1c-1.4 1.5-3.7 1.3-3.7 1.3-4 0.2-5.5-6.5-5.7-7.3-1.2-2.2-5.1-1.7-5.2-1.7-4.1 0.6-12.6 4.6-12.7 4.6-6.5 3.2-8.9-1.4-8.9-1.4v-0.1q-0.6-3.2 0.9-4.9c1.4-1.5 3.6-1.5 3.6-1.5 4.3-0.2 8.1-3.5 8.1-3.5 2.5-2.7 4.6-3.4 4.7-3.4h0.1 0.1c0.7 0 2.2-1 2.9-1.6h0.1l0.1-0.1c5.7-1.7 14.2-22.8 14.3-23.1 3.4-7 7.3-11.3 11.5-12.7 3.4-1 5.7 0.1 5.7 0.2zm-31.1 36.5c-0.2 0.2-2.1 1.7-3.4 1.8-0.4 0.1-2.2 0.8-4.3 3.1-0.2 0.1-4.1 3.6-8.8 3.8 0 0-1.8 0-2.9 1.2q-0.8 1-0.8 2.6 0 0.6 0.1 1.3c0.2 0.3 2.1 3.6 7.5 0.9 0.4-0.1 8.8-4.1 13.1-4.7 0.2 0 4.7-0.6 6.2 2.3l0.1 0.1c0.4 1.9 1.9 6.8 4.7 6.6 0 0 1.9 0.1 3-1q0.8-0.9 0.8-2.4 0-0.3-0.1-0.7c0-0.1-0.6-4-2.3-5.5v-0.1c-0.1-0.1-1.6-2.5-1.6-4.6q0-0.2 0-0.4l0.1-0.2 0.1-0.1c0.1-0.2 0.4-0.5 0.4-0.7q0 0 0 0c0-0.1 0-0.1-0.1-0.2l-0.6-0.4 0.6-0.4c0-0.1 4-2.7 6.4-5.9 2.2-2.9 10.9-28.5 12.1-32.2-0.7-0.2-2.4-0.6-4.6 0.1-2.7 0.9-6.8 3.7-10.9 12.1-0.4 0.9-8.7 21.5-14.8 23.6zm-3.4 1.7l-0.1 0.1q0 0 0.1 0 0-0.1 0-0.1z"/>
				<path id="&lt;Path&gt;" class="s1" d="m207.5 129.7c0 0 1.2 0.6 2.2 2"/>
				<path id="&lt;Path&gt;" class="s0" d="m207.3 130.1c0 0 1.1 0.6 2 1.9l0.9-0.6c-1.1-1.5-2.4-2.1-2.5-2.2z"/>
			</g>
			<path id="&lt;Path&gt;" class="s2" d="m219.6 112.3c0 0 2.1 11.8-9.5 18.8l-2.4-1.8c0 0 9.4-7.4 11.9-17z"/>
			<path id="&lt;Path&gt;" class="s2" d="m209.2 133.6c0 0 0.1 3 2.2 5.5 0 0 3.2 5.2 1.2 7.7 0 0-3.1 3.1-5.8-0.2 0 0 4.3 2.6 5.6-1.5 0 0 0.1-2.9-1.6-5.7 0 0-1.8-3.1-1.6-5.8z"/>
		</g>
		<g id="&lt;Group&gt;">
			<g id="&lt;Group&gt;">
				<path id="&lt;Path&gt;" class="s1" d="m137.6 135.2c0 0 5 0.9 8.3 0.3 0 0 9.7-1.1 6.6 2.6l-13 2.3z"/>
				<path id="&lt;Compound Path&gt;" fill-rule="evenodd" class="s0" d="m136.9 134.5l0.8 0.2c0 0 5 0.9 8.2 0.4 1.1-0.1 6.6-0.7 7.5 1.1q0.5 0.9-0.5 2.2l-0.2 0.1-13.5 2.4-2-5.6zm2.9 5.3c0.8-0.1 12.1-2.1 12.4-2.2 0.2-0.2 0.4-0.5 0.4-0.8q0-0.1 0-0.2c-0.5-0.9-4.3-0.9-6.6-0.6-2.6 0.5-6.1 0-7.7-0.3 0.4 1.1 1.3 3.6 1.5 4.1z"/>
				<path id="&lt;Path&gt;" class="s1" d="m138.8 136.3c0 0 6.5 2.7 11.4 1.8 0 0 4.6-0.8 3.5 3.6 0 0-3.5 3.3-6.8 2.4z"/>
				<path id="&lt;Compound Path&gt;" fill-rule="evenodd" class="s0" d="m138.9 135.9c0.1 0 6.5 2.6 11.2 1.7 0.1 0 2.4-0.4 3.5 0.9q1.1 1.2 0.5 3.4v0.1l-0.1 0.1c-0.2 0.1-3.7 3.4-7.2 2.4h-0.2l-8.2-7.8zm8.2 7.7c2.7 0.7 5.5-1.6 6.1-2.1q0.2-0.6 0.2-1.1 0-0.8-0.5-1.3c-0.8-0.9-2.6-0.6-2.6-0.6-3.3 0.7-7.3-0.3-9.6-1 2 1.9 6.2 5.9 6.4 6.1z"/>
				<path id="&lt;Path&gt;" class="s1" d="m104 99c0 0 7.9-4.2 15.6 11.6 0 0 8.2 20.3 13.8 22 0 0 1.9 1.6 3.1 1.6 0 0 1.9 0.6 4.2 3.1 0 0 3.7 3.3 7.9 3.5 0 0 4.9-0.2 3.9 5.4 0 0-2 4-7.7 1.1 0 0-8.2-3.8-12.2-4.4 0 0-4.1-0.6-5.4 1.9 0 0-1.4 6.8-4.9 6.6 0 0-4.6 0.4-4-4.4 0 0 0.6-3.9 2.3-5.5 0 0 1.5-2.5 1.4-4.4 0 0-1-1-0.2-1.6 0 0-3.9-2.5-6.2-5.6-2.3-3-11.6-30.9-11.6-30.9z"/>
				<path id="&lt;Compound Path&gt;" fill-rule="evenodd" class="s0" d="m109.1 98.5c4 1.2 7.7 5.3 11 11.9 0.1 0.2 8.1 20.1 13.4 21.8h0.1l0.1 0.1c0.7 0.5 2 1.4 2.8 1.4h0.1c0.1 0.1 2.1 0.7 4.4 3.2 0.1 0.1 3.6 3.2 7.6 3.4 0.1 0 2.2-0.1 3.5 1.4q1.4 1.6 0.9 4.6h-0.1v0.1c0 0-2.2 4.4-8.3 1.4-0.1-0.1-8.1-3.9-12.1-4.4 0 0-3.7-0.5-4.9 1.6-0.1 0.7-1.6 7.1-5.2 6.9-0.1 0-2.3 0.1-3.6-1.3q-1-1-1-2.8 0-0.5 0-0.9c0-0.2 0.6-3.9 2.4-5.6 0.1-0.1 1.3-2.2 1.3-3.9q0 0 0-0.1c-0.2-0.2-0.5-0.7-0.5-1.2q0 0 0-0.1c0-0.1 0.1-0.2 0.2-0.3-1-0.7-4-2.8-6-5.5-2.3-3.1-11.3-29.9-11.7-31l-0.1-0.4 0.4-0.2c0 0 2.2-1.2 5.3-0.1zm-4.5 0.8c1.1 3.4 9.3 27.6 11.4 30.4 2.2 2.9 6 5.4 6 5.5l0.6 0.3-0.6 0.4c-0.1 0.1-0.1 0.2-0.1 0.2q0 0 0 0c0 0.2 0.2 0.5 0.4 0.7l0.1 0.1v0.1q0 0.2 0 0.4c0 2-1.3 4.3-1.4 4.4l-0.1 0.1c-1.6 1.4-2.1 5.1-2.1 5.1q-0.1 0.4-0.1 0.8 0 1.4 0.8 2.2c1 1.1 2.8 0.9 2.9 0.9 2.5 0.2 4-4.4 4.3-6.2l0.1-0.1c1.5-2.8 5.7-2.2 5.9-2.2 4 0.6 11.9 4.4 12.3 4.5 5.1 2.5 6.9-0.6 7-0.9q0.1-0.6 0.2-1.2-0.1-1.6-0.8-2.5c-1-1.1-2.7-1.1-2.8-1.1-4.4-0.2-8.1-3.4-8.2-3.6-2-2.1-3.7-2.8-4-2.9-1.3-0.1-3.1-1.5-3.3-1.7-5.8-2-13.6-21.4-13.9-22.2-3.9-7.9-7.7-10.6-10.3-11.4-2.1-0.7-3.7-0.3-4.3-0.1zm31.9 35.4l-0.2-0.1q0 0 0.1 0.1 0 0 0.1 0z"/>
				<path id="&lt;Path&gt;" class="s1" d="m124.2 133.6c0 0-1.2 0.5-2.2 1.9"/>
				<path id="&lt;Path&gt;" class="s0" d="m121.7 135.2l0.7 0.6c0.9-1.3 2-1.8 2-1.8l-0.4-0.9c-0.1 0.1-1.3 0.7-2.3 2.1z"/>
			</g>
			<path id="&lt;Path&gt;" class="s2" d="m112.7 117.2c0 0-1.9 11.1 9 17.7l2.2-1.7c0 0-8.8-7-11.2-16z"/>
			<path id="&lt;Path&gt;" class="s2" d="m122.5 137.3c0 0 0 2.8-2 5.1 0 0-3.1 5-1.1 7.3 0 0 2.8 3 5.4-0.2 0 0-4 2.5-5.3-1.4 0 0-0.1-2.7 1.5-5.4 0 0 1.8-2.9 1.5-5.4z"/>
		</g>
		<path id="&lt;Path&gt;" class="s0" d="m225.7 133.6c13.9 18.6 46.5 0.1 48-0.6l-2.9 1c-0.4 0.1-31.5 15-45.4-2.2z"/>
		<path id="&lt;Path&gt;" class="s1" d="m199 23.1l5.7-3.2 13.8-4.1c0 0 23.8-2.3 35.3 19.4 0 0 9.7 16.3 10.4 28.3 0 0 0.4 6.9 0.2 9.9-0.4 6-5.4 8.4-20.1 17.9 0 0-9.8 6.4-14.5 3.9-4.8-2.4-5.7-6.2-12.4-3.7-6.8 2.5-9.7 4.4-9.7 4.4l-3.4-3.5-3.3-3.5-14.1-4.9-4.9-6.6c0 0-6.8-13.7-1.9-19 4.9-5.2 7.6-6 7.4-10.3-0.2-4-0.1-7.3-0.2-8.7-0.3-2.3-0.5-12.4 11.7-16.3z"/>
		<path id="&lt;Path&gt;" class="s2" d="m209.7 93.6c0 0 2.3-1.4 5.9-5.3 3.7-4 9.6-2 19.3-3.4 9.6-1.5 22-11.9 18.3-42.1 0 0 3.9-1.8 6.7 4.6 2.8 6.5 5.8 21.1 5 24.2-0.3 1.3-0.1 3.4-0.6 4.5-1.7 4.1-5.8 6.1-5.8 6.1l-7.3 5.8-8.1 4.4-10.5 3-3.9-0.8-3.4-2.8-3.9-1.3-6.3 1.9-3.1 2.7z"/>
		<path id="&lt;Path&gt;" class="s0" d="m198.5 65.4c0 0-2.2 0.5-2.9 0.7-0.4-0.5-0.9-1.4-0.9-1.4-0.2-0.3-0.7-0.4-1-0.2-0.3 0.2-0.5 0.7-0.2 1l1.1 1.9c0.2 0.2 0.5 0.4 0.8 0.3l3.5-0.9c0.4-0.1 0.6-0.5 0.5-0.9-0.1-0.4-0.5-0.6-0.9-0.5z"/>
		<path id="&lt;Path&gt;" class="s3" d="m216.8 54.5c0 0-1.2-12.7 0.9-19.6 0 0 2.4-6.2 6.9-0.9l-0.2 17.8-3.2 1.6z"/>
		<path id="&lt;Compound Path&gt;" fill-rule="evenodd" class="s0" d="m216.2 54.3v-4.7h1v4.3q2.2-0.6 3.8-0.9c0.7-2.4 0.1-8.3 0-10.8-0.1-2.9-0.6-8 2.2-8.5q0.3 0 0.6 0-0.1-0.1-0.2-0.2-1.1-1.1-2.9-0.9c-3 0.4-3.7 7.5-3.7 10.2h-1c0-0.2 0-4.3 1.1-7.5q1.1-4.5 3.5-5.2c2.5-0.7 4.9 2 5 2.1l-0.4 0.4c0-0.1-2.3-2.6-4.4-1.9q-1.1 0.3-1.9 1.6c0.5-0.4 1.1-0.7 1.7-0.8 1.5-0.2 2.8 0.2 3.7 1.1q1 1 1.4 2.8c0.4 0.9 0.4 1.9 0.4 1.9q0 0.4 0 0.8 0 0.2 0 0.4c0 7.8 1.1 12.5 1.6 14.2 1 0.3 1.3 0.6 1.4 0.7l-0.7 0.8c0 0-2.3-2.2-13.7 1.7l-0.3-1.1q1-0.3 1.8-0.5zm6.4-7.6c0.2-0.1 0.3-0.2 0.3-0.4-0.6-5.5-0.2-9.1-0.2-9.1 0-0.2-0.1-0.3-0.3-0.3-0.1-0.1-0.3 0.1-0.3 0.2 0 0.1-0.3 3.7 0.2 9.3 0 0.2 0.1 0.3 0.3 0.3z"/>
		<path id="&lt;Path&gt;" class="s3" d="m193.4 53.7c0 0-0.9-9.6 0.7-14.9 0 0 1.9-4.8 5.3-0.7l-0.3 13.5-2.4 1.2z"/>
		<path id="&lt;Compound Path&gt;" fill-rule="evenodd" class="s0" d="m192.9 53.5v-3.5h0.8v3.3q1.6-0.5 2.9-0.7c0.5-1.9 0-6.4 0-8.3-0.1-2.2-0.4-6 1.7-6.4q0.2 0 0.4 0 0-0.1-0.1-0.2-0.8-0.8-2.2-0.7c-2.3 0.3-2.8 5.7-2.8 7.8h-0.8c0-0.2 0.1-3.3 0.9-5.7q0.9-3.4 2.6-4c1.9-0.5 3.8 1.5 3.8 1.6l-0.3 0.3c0 0-1.7-1.9-3.3-1.4q-0.8 0.2-1.4 1.2c0.3-0.3 0.8-0.6 1.3-0.6 1.1-0.2 2 0.1 2.7 0.8q0.7 0.8 1.1 2.2c0.2 0.7 0.2 1.4 0.2 1.4q0 0.4 0 0.6 0 0.2 0 0.4c0 5.8 0.8 9.5 1.2 10.8 0.7 0.2 1 0.4 1 0.5l-0.5 0.6c0 0-1.7-1.6-10.3 1.3l-0.2-0.9q0.7-0.2 1.3-0.4zm4.9-5.8c0.1 0 0.2-0.1 0.2-0.2-0.4-4.2-0.1-7-0.1-7 0-0.1-0.1-0.2-0.2-0.2-0.1 0-0.2 0.1-0.3 0.2 0 0-0.2 2.8 0.1 7 0 0.2 0.2 0.2 0.3 0.2z"/>
		<path id="&lt;Path&gt;" class="s4" d="m203.9 80.5c0 0 3.3-3.1 5.4-3.1l-2.4 7.8z"/>
		<path id="&lt;Path&gt;" class="s3" d="m202.9 81.6l-1.5-3.8 4-1.6 4.9-1.2-1.1 3.1z"/>
		<path id="&lt;Compound Path&gt;" fill-rule="evenodd" class="s0" d="m222.5 73.5c-0.4 0.2-0.9 0-1.1-0.4q-0.2-0.5-0.4-0.9c-0.9 1.8-3.1 3.8-8.1 4.4-3.5 0.9-4.7 7.8-4.9 10.5 0 0.4-0.4 0.7-0.8 0.8-0.4 0-0.8-0.2-0.9-0.6-1.2-3.7-5-7.6-5-7.6v-0.1l-0.3-0.2c-3.3-2.9-6.1-2.6-6.2-2.6-0.5 0.1-0.9-0.2-1-0.7-0.1-0.4 0.3-0.9 0.7-1 0.2 0 3.4-0.4 7.1 2.5 1.2-0.7 4.2-2.3 9.1-2.5q1-0.1 2-0.2 0.2 0 0.3-0.1c3.7-0.5 5.9-1.8 6.6-3.8-0.4-0.1-0.7-0.1-0.7-0.1-0.4 0.1-0.9-0.2-1-0.7-0.1-0.5 0.2-0.9 0.7-1 0.1 0 2.8-0.6 4.4 3.2 0.2 0.4 0 0.9-0.5 1.1zm-12.9 3.4c-3.4 0.3-5.6 1.3-6.7 2 0.7 0.8 2.5 2.8 3.8 5 0.4-2.2 1.2-5.1 2.9-7z"/>
		<path id="&lt;Path&gt;" class="s5" d="m261.9 51l-2.2-1.9-3.9-3.4c0 0-7.6-6.6-13.4-9.9-1.3-0.8-5.2-3.5-8.9-4.1-1.3-0.2-2-0.5-2.1-0.8-3.3-7.4-9.4-8.4-11.6-8.6-4.7-0.5-9.8 2.6-12.3 2.8-6.7 0.5-5.9-0.7-5.9-0.7l-5.5-0.8c0 0 2.6-5.2 11.6-10.5 0 0 3.6-3.3 11.2-2.3 7.6 1.1 18.3 2.2 21.9 2.7l4.1 1.6c0 0 9.5 3.9 12.8 16.4 3.2 12.6 3.8 15 3.8 15l2.6-1.8c0 0 6.9-4 15.5 3 0 0-1 2.6-3.5 3.7 0 0 4.7 6.7 1.7 11.8 0 0-0.5-2.1-2.9-2.6 0 0-11.2-1.6-11.6-7.9z"/>
		<path id="&lt;Path&gt;" class="s0" d="m260.9 45.8c-0.4 0.3-0.4 0.9-0.1 1.2 0.4 0.4 0.9 0.4 1.3 0.1 0.2-0.3 6.9-6.1 16.5 0.8-0.5 0.8-1.6 2.1-3.6 2.8-3.1 1-7 0.3-11.7-2.2 0.6-0.6 2-1.3 5.1-0.4 0.4 0.1 0.9-0.2 1-0.6 0.2-0.5-0.1-1-0.6-1.1-6.4-1.8-7.6 2-7.6 2.2-0.1 0.4 0 0.8 0.4 1 5.6 3.1 10.3 4 14 2.7 3.6-1.3 4.9-4.2 4.9-4.3 0.2-0.4 0-0.8-0.3-1-11.1-8.5-19.2-1.3-19.3-1.2z"/>
		<path id="&lt;Path&gt;" class="s0" d="m261.6 50.3c0 0.1 0.4 9.1 11.9 10.8-0.1 0 2.4 0.6 3.7 2.8 0.1 0.3 0.4 0.5 0.8 0.5 0.3-0.1 0.6-0.3 0.7-0.5 0.2-0.3 3.2-7.1-1.2-11.9-0.4-0.4-0.9-0.4-1.3-0.1-0.2 0.2-0.3 0.5-0.2 0.7q0 0.3 0.2 0.5c1.2 1.4 1.7 2.9 1.9 4.4 0.1 1.6-0.1 3.1-0.5 4.2-1.6-1.8-3.7-2.3-3.8-2.3-9.2-1.4-10.3-7.6-10.4-8.9q-0.1-0.2-0.1-0.2 0 0 0-0.1c0-0.4-0.4-0.8-0.8-0.7-0.5 0-0.9 0.4-0.9 0.8z"/>
		<path id="&lt;Path&gt;" class="s6" d="m247.3 17.7c0 0 2.8-1.2 3.7 8 1 9.1 1.7 16.8 1.7 16.8l9.1 8.4-1.6-8.3c0 0-3.5-16.4-5.2-18.3-1.8-2-7.7-6.6-7.7-6.6z"/>
		<path id="&lt;Compound Path&gt;" fill-rule="evenodd" class="s0" d="m226.2 10.6l0.7 0.1c1 0.1 2.3 0.2 3.7 0.3 5.7 0.4 13.5 0.9 18.8 5 6.6 5.2 8.9 10 11.2 23.2l5.4 30.3q0 0.1 0 0.1c0.7 6.8-2.4 9.6-3 10-26.4 24.3-35.4 15.4-35.7 15.1-5.9-5.7-11.6-1.3-11.9-1.1-3.2 2.5-6 3.4-8.3 2.9-1.4-0.4-2.6-1.3-3.2-2.7-0.6-1.2-3-3.1-4.4-4-12.1-3.5-17-6.1-21.1-18.4q-0.8-2.5-1-4.6c-0.8-8 4.2-12 6.7-14.1l1.1-0.9c0.9-0.9 1.5-3.6 1-8.5q-0.2-2-0.6-4.5-0.1-0.5-0.2-1.1c-0.6-5.7 2.6-11.2 7.9-13.4 1-0.3 1.8-0.6 2.6-0.7-0.1-0.1 0-0.1 0-0.1 0 0 2.1-5.8 14.5-13.4 2.2-1.4 8.7-0.5 15.8 0.5zm-30.1 12.9c3-0.6 4.9 0.1 6.3 0.4 0.9 0.3 1.8 0.5 2.7 0.5 0.8 0 2-0.5 3.4-1 3.6-1.5 9-3.7 15.9-1 6.9 2.7 7.4 10.2 7.4 10.2h-0.1c0 0-2.6-5.9-8.2-8.1-5.9-2.3-10.7-0.4-14.1 1-1.7 0.7-3.1 1.2-4.3 1.2-1.2 0-2.3-0.3-3.3-0.6-2.1-0.5-4.1-1.1-7.6 0.4-4.6 1.9-7.3 6.9-6.4 11.9 0.9 4.4 1.9 12.2-1 15.1l-1.2 1c-2.8 2.3-8.1 6.5-5 16.1 3.8 11.5 7.9 13.6 19.7 17q0.1 0.1 0.3 0.2c0.4 0.3 4.2 2.7 5.3 5 0.3 0.5 0.8 1.2 1.8 1.4 1 0.3 3 0.1 6.3-2.4 0.1-0.1 7.6-5.9 14.9 1.3 0.1 0 8.1 7.3 32.6-15.2q0.1-0.1 0.1-0.1c0.1-0.1 2.7-2.1 2.1-7.9-0.2-1.3-5.4-30.3-5.4-30.3-2.2-12.5-4.3-17-10.4-21.7-4.7-3.8-12.1-4.3-17.4-4.6-1.5-0.1-2.8-0.2-3.9-0.4l-0.7-0.1c-4.1-0.5-12.6-1.7-14.4-0.7-1.5 0.8-11.1 6.2-15.4 11.4z"/>
		<path id="&lt;Path&gt;" class="s0" d="m233.4 31.6v0.1c3.7 0 11.9 6.3 27.1 18.1 0.5 0.4 1.2 0.3 1.6-0.2 0.4-0.5 0.3-1.2-0.2-1.6-23.3-17.6-28.5-16.4-28.5-16.4z"/>
		<path id="&lt;Path&gt;" class="s7" d="m307.1 101.4c0 0-1.3 6.3-6.2 11.9 0 0 0.5 13 0.2 19.1 0 0 9.1-15.3 6-31z"/>
		<path id="&lt;Path&gt;" class="s8" d="m285.2 143.3c1.5-2.2 2.7-5.1 2.8-5.3 0.8-4.4 5.2-34.7-21.3-66.4l-0.8 5c0 0 21.2 23.7 18.9 60.5l-7 13.2 2.1-0.4c0 0 3-3.2 5.3-6.6z"/>
		<path id="&lt;Path&gt;" class="s5" d="m266.2 62.4c0 0 1.6 7.4 1.6 9.9 0 0 6.6 10.4 9.1 13.4 0 0 15.2-0.2 19.6 3 0 0-4.2-12.5-11.5-19.7z"/>
		<path id="&lt;Path&gt;" class="s9" d="m223.7 94c0 0-12.6 29.9 11.2 51.1 0 0 15.3 13 30.1 10.9 0 0 8.3 0.6 14.4-5.9 0 0 4.7-7.2 5.4-13 0 0 2.5-32.5-18.8-60.9 0 0-3.6 13.7-18.2 18.8 0 0-7.7 4.1-16.5 2.7 0 0-5.6-1-7.6-3.7z"/>
		<path id="&lt;Path&gt;" class="s5" d="m296.5 88.7c0 0 5.6 19 4.4 24 0 0 6.1-8.8 6.7-12.3 0 0-1.1-6.3-1.8-6.4 0 0-5.4-4.9-9.3-5.3z"/>
		<path id="&lt;Path&gt;" class="s5" d="m300.9 112.5c0 0-7.3 8.7-12.3 9 0 0 0 16.9-0.8 18.2 0 0-6.1 8.3-8 10.1 0 0 13.4-7.1 13.6-7.3 1.4-1.6 6.9-8.4 7.3-9.3 0 0 1.4-17.9 0.2-20.7z"/>
		<path id="&lt;Path&gt;" class="s7" d="m276.9 85.7c0 0 17.1 0.6 19.4 2.9 0 0 5.4 16.6 4.6 24.7 0 0-9.1 9-12.8 8.4 0 0-2.8-25.4-11.2-36z"/>
		<path id="&lt;Path&gt;" class="s7" d="m285.9 69.9c0 0 7.5 7.5 10.5 17.9 0 0 8.2 4 9.2 6.2 0 0-3.3-14.8-19.7-24.1z"/>
		<path id="&lt;Path&gt;" class="s8" d="m221.5 102.2c0 0 4.8 16.7 35.3 10.9 0 0-24 9.8-36.9-5z"/>
		<path id="&lt;Path&gt;" class="s8" d="m224.3 128.3c0 0 7.1 16.4 43.3 7.3 0 0-24.8 11.4-39.2 0.9 0 0-4.4-5.6-4.1-8.2z"/>
		<path id="&lt;Path&gt;" class="s8" d="m223.1 90.5c0 0 8.3 7.2 23.1-0.3 0 0 16.2-5.7 15.8-30.7 0 0 6.6 2.1 4.4 14.9 0 0-8.3 26.7-37.1 23.1 0 0-6.2-3.4-6.2-7z"/>
		<path id="&lt;Compound Path&gt;" fill-rule="evenodd" class="s0" d="m261.7 58.6l0.7 0.2c0.3 0 7.3 1.8 5.6 13.5 0 0.1-3 17.7-22.1 24.6-7.4 2.3-21.6 4-24.1-7.3l-0.1-0.1-0.1-0.1c0.1 0.1 8.2 4.8 17.6 2.6 0-0.1 6.2-1.3 12-5.8 7.7-6.1 10.2-13.5 10.7-26zm-37.9 32.8c0.8 3 3.4 3.8 3.4 3.8 6.7 4.2 18.1 0 18.1 0 18-6.5 20.9-23.1 20.9-23.2 0.3-1.9 0.3-3.5 0.2-4.8-0.4-3.8-2-6-3.1-6.7 1.5 27.6-23.6 33.1-23.8 33.1-6.7 1.6-13.2-0.2-15.7-2.2z"/>
		<path id="&lt;Path&gt;" class="s0" d="m219.4 115.2c0.5 6 0.8 7.5 3.2 13.9 0.1 0.7 7.5 18.8 27.9 25.9 0.8 0.2 18.8 6.5 29.4-5.1l-0.5 0.2c-8 9.7-28.1 3.3-28.3 3.2-19.3-6.3-26.7-24.4-26.7-24.4-7.5-17.2-0.2-35.1-0.1-35.3l-0.8-0.1c-0.1 0.2-5.2 8.6-4.1 21.7z"/>
		<path id="&lt;Path&gt;" class="s0" d="m221.1 109.3c11.4 18.5 46.5 0.1 48.1-0.6l-3 0.9c-0.3 0.2-34.7 15.1-45.4-2.1z"/>
		<path id="&lt;Path&gt;" class="s0" d="m225.5 132.9c10.6 19 46.4 2 48 1.4l-3 0.8c-0.4 0.1-35.3 13.6-45.2-4z"/>
		<path id="&lt;Path&gt;" class="s0" d="m265.4 76.1c0.2 0.2 20.7 25.8 18.7 60.3l-1.2 5.2-3.5 8.5c0 0 2.3-3.6 3.9-7.5 1.2-2.9 1.8-6.4 1.8-6.5 2.6-34.9-18.3-59.9-18.5-60.1z"/>
		<path id="&lt;Path&gt;" class="s0" d="m266.4 72.3c26.2 30.8 21 65.7 21 66.1l-2.9 5.5-4.7 6.1c0 0 3.2-2.7 5.5-5.9 2-2.8 3.3-6.1 3.3-6.2 0.5-3.9 4.8-38.8-20.8-65.6z"/>
		<path id="&lt;Path&gt;" class="s0" d="m284.2 68.8c20.7 20.4 16 64.8 15.9 65.3l1-1.7c0.2-1.9 5.2-44.2-15.6-63z"/>
		<path id="&lt;Path&gt;" class="s0" d="m276.7 86.6c0.2 0 22.6-1.6 29.6 8.9l0.7 0.2c-7.2-11.7-30-10.9-31-10.9z"/>
		<path id="&lt;Path&gt;" class="s0" d="m288.5 121l-0.2 1.8c16.7-6.7 19.4-23.1 19.4-23.3l-0.6 1.1c0 0.1-2.9 14.2-18.6 20.4z"/>
		<path id="&lt;Path&gt;" class="s0" d="m235.3 97.7c0 0-6.8 34.1 19.4 56.9 0 0-30.1-18.2-19.4-56.9z"/>
		<path id="&lt;Path&gt;" class="s0" d="m266 63.6c0.2 0 30 1.6 40.1 33.6 0 0.2 0.4 2.6 0.5 3.9 0.5 5.4 2.5 22-10.4 37.6-3.8 4.6-9.9 6.5-16.3 11.2v0.1c13.5-7.2 13.7-7.4 14-7.6 18.3-17.2 14.4-42.5 14.3-42.8l-0.6-3.3c-5.5-17.4-16.3-25.5-24.6-29.6-9-4.5-16.7-4.8-17-4.8z"/>
		<path id="&lt;Path&gt;" class="s0" d="m109.5 138.6c-13.8 18.4-46 0.2-47.5-0.5l2.9 0.9c0.3 0.1 31.1 14.9 44.8-2.1z"/>
		<path id="&lt;Path&gt;" class="s10" d="m29 106.8c0 0 1.3 6.2 6.1 11.7 0 0-0.5 12.9-0.2 18.9 0 0-9-15.1-5.9-30.6z"/>
		<path id="&lt;Path&gt;" class="s8" d="m50.6 148.2c-1.5-2.2-2.7-5.1-2.7-5.2-0.8-4.3-5.2-34.3 21-65.6l0.8 4.8c0 0-20.9 23.5-18.7 59.9l6.9 13-2-0.4c0 0-3-3.1-5.3-6.5z"/>
		<path id="&lt;Path&gt;" class="s11" d="m69.4 68.2c0 0-1.6 7.3-1.6 9.8 0 0-6.5 10.3-8.9 13.3 0 0-15.1-0.2-19.5 3 0 0 4.2-12.4 11.4-19.5z"/>
		<path id="&lt;Path&gt;" class="s9" d="m111.4 99.5c0 0 12.5 29.6-11.1 50.5 0 0-15 12.8-29.8 10.7 0 0-8.1 0.7-14.1-5.8 0 0-4.7-7-5.4-12.8 0 0-2.5-32.2 18.6-60.3 0 0 3.6 13.6 18 18.7 0 0 7.6 4 16.3 2.6 0 0 5.5-1 7.5-3.6z"/>
		<path id="&lt;Path&gt;" class="s11" d="m39.4 94.3c0 0-5.5 18.7-4.3 23.6 0 0-6-8.6-6.6-12.1 0 0 1-6.2 1.8-6.3 0 0 5.3-4.9 9.1-5.2z"/>
		<path id="&lt;Path&gt;" class="s11" d="m35.1 117.7c0 0 7.2 8.6 12.1 8.9 0 0 0 16.8 0.9 18 0 0 6 8.3 7.9 10 0 0-13.3-6.9-13.5-7.2-1.3-1.6-6.8-8.3-7.2-9.2 0 0-1.4-17.7-0.2-20.5z"/>
		<path id="&lt;Path&gt;" class="s10" d="m58.9 91.3c0 0-16.9 0.5-19.3 2.8 0 0-5.3 16.5-4.5 24.4 0 0 9 9 12.7 8.4 0 0 2.7-25.2 11.1-35.6z"/>
		<path id="&lt;Path&gt;" class="s10" d="m49.9 75.6c0 0-7.4 7.5-10.4 17.7 0 0-8 4-9 6.2 0 0 3.2-14.6 19.4-23.9z"/>
		<path id="&lt;Path&gt;" class="s8" d="m113.6 107.5c0 0-4.7 16.6-34.9 10.8 0 0 23.7 9.7 36.4-4.9z"/>
		<path id="&lt;Path&gt;" class="s8" d="m110.8 133.4c0 0-7 16.2-42.8 7.2 0 0 24.5 11.3 38.7 0.9 0 0 4.4-5.5 4.1-8.1z"/>
		<path id="&lt;Path&gt;" class="s0" d="m115.7 120.5c-0.5 5.8-0.8 7.4-3.1 13.7-0.2 0.7-7.5 18.6-27.7 25.5-0.7 0.3-18.6 6.5-29-5l0.5 0.2c7.9 9.6 27.8 3.3 27.9 3.2 19.1-6.3 26.5-24.2 26.5-24.2 7.3-16.9 0.1-34.6 0.1-34.8l0.7-0.1c0.1 0.2 5.2 8.5 4.1 21.5z"/>
		<path id="&lt;Path&gt;" class="s0" d="m114 114.6c-11.3 18.3-46 0.1-47.5-0.6l2.9 0.9c0.3 0.2 34.3 14.9 44.8-2.1z"/>
		<path id="&lt;Path&gt;" class="s0" d="m110.2 138c-10.5 18.8-45.9 2.2-47.5 1.5l3 0.8c0.3 0.2 35 13.4 44.7-4.1z"/>
		<path id="&lt;Path&gt;" class="s0" d="m70.2 81.7c-0.2 0.3-20.4 25.6-18.5 59.7l1.2 5.2 3.4 8.3c0.1 0-2.2-3.5-3.8-7.4-1.2-2.9-1.8-6.3-1.8-6.4-2.6-34.5 18.1-59.2 18.3-59.5z"/>
		<path id="&lt;Path&gt;" class="s0" d="m69.2 78c-25.9 30.5-20.8 65-20.7 65.3l2.8 5.5 4.6 6c0 0-3.1-2.6-5.4-5.8-2-2.7-3.2-6-3.2-6.1-0.6-3.9-4.8-38.4 20.5-64.9z"/>
		<path id="&lt;Path&gt;" class="s0" d="m51.7 74.6c-20.6 20.1-15.9 64-15.8 64.5l-1-1.7c-0.2-1.9-5.2-43.7 15.4-62.2z"/>
		<path id="&lt;Path&gt;" class="s0" d="m59 92.1c-0.2 0-22.3-1.6-29.2 8.9l-0.7 0.1c7.1-11.5 29.6-10.8 30.6-10.7z"/>
		<path id="&lt;Path&gt;" class="s0" d="m47.3 126.2l0.3 1.7c-16.5-6.5-19.2-22.8-19.3-23l0.7 1.1c0 0.1 2.8 14 18.3 20.2z"/>
		<path id="&lt;Path&gt;" class="s0" d="m99.9 103.1c0 0 6.8 33.7-19.1 56.3 0 0 29.7-18 19.1-56.3z"/>
		<path id="&lt;Path&gt;" class="s0" d="m69.6 69.4c-0.2 0-29.7 1.6-39.6 33.2-0.1 0.2-0.4 2.6-0.5 3.9-0.6 5.3-2.5 21.8 10.3 37.2 3.7 4.5 9.7 6.4 16.1 11v0.1c-13.4-7-13.6-7.3-13.9-7.5-18.1-17-14.2-42-14.1-42.3l0.6-3.2c5.4-17.2 16.1-25.3 24.3-29.3 8.9-4.5 17-4.8 17.3-4.8z"/>
		<path id="&lt;Path&gt;" class="s0" d="m141.2 41.4c0 0-0.2 14.1 7.1 13.8 7.3-0.3 8-6.1 8-6.1 0 0 4.2 19.3-13.3 19.9-17.4 0.5-11.9-11.4-11.9-11.4z"/>
		<path id="&lt;Path&gt;" class="s1" d="m129.2 27.6l-5.7-2.5-13.6-2.6c0 0-23.2-0.1-32.3 21.9 0 0-7.8 16.6-7.4 28.2 0 0 0.3 6.7 0.8 9.6 0.9 5.7 5.9 7.5 20.9 15.3 0 0 10 5.3 14.4 2.5 4.4-2.8 4.8-6.5 11.6-4.8 6.8 1.8 9.7 3.4 9.7 3.4l3-3.7 2.8-3.7 13.1-6 4.1-6.9c0 0 5.4-13.8 0.1-18.4-5.2-4.6-7.8-5.1-8-9.2-0.2-3.9-0.6-7.1-0.6-8.4 0-2.3-0.8-12-12.9-14.7z"/>
		<path id="&lt;Path&gt;" class="s2" d="m125.5 96.6c0 0-2.3-1.2-6.2-4.6-3.9-3.5-9.5-1-18.9-1.5-9.4-0.5-22.3-9.4-21.5-38.8 0 0-3.9-1.4-6 5-2.1 6.5-3.6 20.9-2.6 23.8 0.4 1.2 0.4 3.2 1 4.2 2 3.9 6.1 5.4 6.1 5.4l7.6 4.9 8.3 3.5 10.3 1.9 3.7-1.2 3-2.9 3.7-1.6 6.2 1.2 3.2 2.3z"/>
		<path id="&lt;Path&gt;" class="s0" d="m128.8 64.7c0 0 2.1-0.2 2.8-0.3 0.3 0.5 0.6 1.4 0.6 1.4 0.2 0.3 0.6 0.5 1 0.3 0.3-0.1 0.5-0.5 0.3-0.9l-0.8-1.8c-0.1-0.3-0.4-0.4-0.7-0.4l-3.3 0.4c-0.4 0-0.7 0.4-0.6 0.7 0 0.4 0.3 0.7 0.7 0.6z"/>
		<g id="&lt;Group&gt;">
			<path id="&lt;Path&gt;" class="s3" d="m136.5 56c0 0 0-9-2-13.8 0 0-2.1-4.2-4.9-0.1l1.4 12.5 2.4 0.9z"/>
			<path id="&lt;Compound Path&gt;" fill-rule="evenodd" class="s0" d="m138.2 56.1l-0.1 0.8c-8.2-2-9.6-0.3-9.7-0.3l-0.5-0.5c0-0.1 0.2-0.4 0.9-0.6 0.2-1.3 0.7-4.7 0.1-10.1q0-0.2 0-0.3 0-0.3-0.1-0.6c0 0 0-0.7 0.1-1.4q0.2-1.3 0.8-2.1c0.6-0.7 1.5-1 2.5-1q0.7 0 1.3 0.5-0.7-0.9-1.4-1.1c-1.6-0.3-3 1.7-3 1.7l-0.3-0.2c0-0.1 1.5-2.2 3.3-1.9q1.7 0.4 2.8 3.5c1 2.2 1.3 5 1.4 5.2h-0.8c-0.1-1.9-1.1-6.8-3.3-6.9q-1.2 0-1.9 0.8-0.1 0.1-0.1 0.2 0.1 0 0.4 0c2 0.1 2 3.8 2.1 5.8 0.1 1.7 0.1 5.9 0.8 7.6q1.2 0.1 2.7 0.4l-0.3-3.1h0.7l0.3 3.3q0.7 0.1 1.3 0.3zm-6.1-5.5c0-3.9-0.5-6.5-0.5-6.5 0-0.1-0.1-0.2-0.3-0.2-0.1 0.1-0.1 0.2-0.1 0.3 0 0 0.5 2.5 0.5 6.4 0 0.2 0.1 0.3 0.2 0.3 0.1-0.1 0.2-0.1 0.2-0.3z"/>
			<path id="&lt;Path&gt;" class="s0" d="m135.2 41.9q-0.3 0.1-0.6 0l-0.2 0.7q0.5 0.1 1.1-0.1c0.8-0.4 1.2-1.6 1.2-1.6l-0.6-0.3c-0.1 0.3-0.4 1.1-0.9 1.3z"/>
			<path id="&lt;Path&gt;" class="s0" d="m135.5 44v0.7c1.4 0 2.1-1 2.3-1.5l-0.7-0.2c0 0-0.3 1-1.6 1z"/>
			<path id="&lt;Path&gt;" class="s0" d="m136 45.9v0.7c0.8 0 1.7-0.2 1.7-0.2l-0.1-0.7c0 0-0.9 0.2-1.6 0.2z"/>
		</g>
		<path id="&lt;Path&gt;" class="s11" d="m133.7 75.7c0 0-0.2-2-1.5-2-1.3 0-3.3 1.1-3.3 1.1 0 0 0.2-1.5-1.8-1.5-2-0.1-6.8 1.5-6.8 1.5 0 0 5.7 2.2 8.1 2 2.4-0.2 5.3-1.1 5.3-1.1z"/>
		<path id="&lt;Path&gt;" class="s11" d="m127.2 85.2c0 0 1.1 7-2.9 6.8-4-0.1-3.4-10.8-2.9-9.3 0.5 1.5 2.4 3.9 2.4 3.9z"/>
		<path id="&lt;Path&gt;" class="s2" d="m99.1 67.7c0.5 1.9 3 2.8 5.7 2.2 2.6-0.7 4.3-2.8 3.8-4.7-0.5-1.9-3-2.8-5.6-2.1-2.7 0.7-4.4 2.8-3.9 4.6z"/>
		<path id="&lt;Path&gt;" class="s12" d="m111.6 71.8l5 2.3 8.1 2.5 8.2-0.7-3.3 5.8c-1-0.5-2.4-1.1-4.3-1.2-1.9-0.2-3.9 0-5.4 0.2l-2.5-2.1-6.8-4.6-0.2-1.8z"/>
		<path id="&lt;Path&gt;" class="s10" d="m125.3 80.5c1.9 0.1 3.3 0.7 4.3 1.2l-0.5 0.7-4.7 4.6-4.3-6.1-0.2-0.2c1.5-0.2 3.5-0.4 5.4-0.2z"/>
		<path id="&lt;Compound Path&gt;" fill-rule="evenodd" class="s0" d="m114.8 72.7c2.1 1.3 5.1 2.9 9.9 3.6 3.2 0.5 5.8 0.1 7.9-0.5 0 0 0.1-0.1 0.2-0.2 0.1 0 0.2 0 0.3 0.1 3.4-1.1 5.1-3 5.1-3 0.2-0.1 0.4-0.1 0.5 0q0.1 0.1 0.1 0.2 0 0.2-0.1 0.3c-0.1 0.1-2 2.2-5.9 3.3-2 1.5-3.4 4.3-4.6 6.7-1.1 2.1-1.9 3.8-3 4.2q-0.5 0.2-1-0.1c-1.4-0.7-1.9-1.9-2.4-3.3-0.4-1.2-0.9-2.5-2.2-3.6-0.9-0.9-2.6-1.9-4.3-2.9-2.8-1.6-5.5-3.1-5.6-4.5-0.1-0.2 0-0.7 0.4-1 1.3-1.2 2.6-0.4 4.7 0.7zm10.2 14.1c0.8-0.3 1.7-2.1 2.6-3.9 1-2.1 2.2-4.4 3.9-6.1-1.9 0.4-4.2 0.5-6.9 0.2-4.9-0.7-8.1-2.5-10.2-3.7-2-1.1-2.9-1.6-3.8-0.8-0.3 0.2-0.3 0.3-0.3 0.5 0.1 1 2.9 2.6 5.3 4 1.8 1 3.5 2 4.5 2.9 1.4 1.3 1.9 2.7 2.4 3.9 0.4 1.3 0.8 2.3 2 2.9q0.3 0.2 0.5 0.1z"/>
		<path id="&lt;Path&gt;" class="s0" d="m71.7 58.7l3.1-2.7 11.5-9.7c0 0-3.8 15.4 3.3 17.3 7.1 1.9 8.7-5.4 8.7-5.4q0 0 0 0.3c-0.3 2.3-3 19-18.6 14.6-16.8-4.8-8-14.4-8-14.4z"/>
		<path id="&lt;Path&gt;" class="s3" d="m114.4 57.6c0 0-0.1-10.9-2.4-16.5 0 0-2.6-5.1-5.9-0.2l1.7 15 2.8 1.1z"/>
		<path id="&lt;Compound Path&gt;" fill-rule="evenodd" class="s0" d="m116.4 57.7l-0.1 0.9c-9.9-2.3-11.6-0.3-11.6-0.3l-0.7-0.6c0-0.1 0.3-0.4 1.1-0.7 0.3-1.5 0.8-5.6 0.1-12.2q0-0.2 0-0.3 0-0.4 0-0.7c0 0-0.1-0.9 0.1-1.7q0.2-1.5 0.9-2.5c0.7-0.8 1.8-1.3 3-1.2 0.6 0 1.1 0.2 1.5 0.5q-0.8-1-1.7-1.2c-1.8-0.4-3.5 2-3.5 2l-0.4-0.3c0-0.1 1.9-2.6 4-2.2q2 0.4 3.4 4.2c1.2 2.6 1.5 6 1.6 6.2l-0.9 0.1c-0.2-2.3-1.4-8.3-4-8.3q-1.5-0.1-2.3 0.9-0.1 0.1-0.2 0.2 0.3 0 0.5 0c2.4 0.2 2.5 4.6 2.6 7 0.2 2.1 0.1 7.2 0.9 9.2q1.5 0.1 3.3 0.4l-0.3-3.6 0.8-0.1 0.4 3.9q0.7 0.2 1.5 0.4zm-7.3-6.5c0-4.8-0.7-7.9-0.7-7.9 0-0.1-0.1-0.2-0.2-0.2-0.2 0-0.3 0.2-0.2 0.3 0 0 0.6 3.1 0.6 7.8 0 0.1 0.1 0.2 0.3 0.2 0.1 0 0.2-0.1 0.2-0.2z"/>
		<path id="&lt;Path&gt;" class="s0" d="m104.5 41.3q0.3 0 0.6-0.3l0.5 0.7q-0.5 0.4-1.2 0.4c-1.1-0.1-2.1-1.2-2.1-1.3l0.6-0.5c0.2 0.2 0.9 0.9 1.6 1z"/>
		<path id="&lt;Path&gt;" class="s0" d="m105 43.8l0.3 0.7c-1.5 0.6-2.7-0.1-3.2-0.6l0.7-0.6c0 0.1 0.8 1 2.2 0.5z"/>
		<path id="&lt;Path&gt;" class="s0" d="m105.4 46.1l0.3 0.7c-1 0.4-2 0.6-2.1 0.6l-0.1-0.8c0 0 1-0.2 1.9-0.5z"/>
		<path id="&lt;Path&gt;" class="s0" d="m324.9 43.4c-3.2-0.2-8 0.3-8 0.3 5.4-1.8 9.7-5.1 9.7-5.1 3.6-5.7-1.8-6.4-1.8-6.4-4.8 1-12.1 6.1-12.1 6.1 8.5-9.7 6-13.5 6-13.5-1.2-4.6-4.7-2.8-4.7-2.8-2.4 1-3.7 5-3.7 5-1 6.7-5.7 8.4-5.7 8.4 0.4-0.8 0.4-3 0.4-3-0.4-9.2-7.9-7.7-7.9-7.7-2.6 0.5-1.1 3.5-1.1 3.5 1.3 2.8 0 7.3 0 7.3-2 1.9-0.9 8.4-0.9 8.4 1.5 5.5-0.9 8.3-1.4 8.8-1.9 1.6-3.5 4.3-3.5 4.3-2.1 5.3-12.9 13.5-12.9 13.5-4.5 2.4-6.7 4.2-6.7 4.2-9 7.1-3.4 20.9-3.4 20.9 0 0 1.9 5.7 9.4 5 0 0 7.4 0.5 11-11.1 1-3.4 8-12.9 8-12.9 0 0 6-6.8 10.6-18.8 0.1-0.3 0.9-1.1 1.2-1.3 1.4-0.7 2.9-0.8 2.9-0.8 0.6-0.1 1.5-0.5 2-0.8 2.4-1.2 3.3-3.3 3.3-3.3 0.1-0.1 3.2 0.2 3.2 0.2 4.8 0.2 7.1-1.7 7.1-1.7 0.3-0.1 1-1.1 1-1.1 3.5-4.4-2-5.6-2-5.6z"/>
		<g id="&lt;Group&gt;">
			<g id="&lt;Group&gt;">
				<path id="&lt;Path&gt;" class="s1" d="m305 56.9c0.6-1 4.2-2.1 4.2-2.1 3-0.7 5-4 5-4 1-1.5 3.5-0.3 3.5-0.3 4.7 0.2 7.3-1.2 7.3-1.2 3.3-4.3-1.9-5.4-1.9-5.4-3.1-0.2-7.7 0.3-7.7 0.3 5.2-1.7 9.3-4.9 9.3-4.9 3.5-5.5-1.7-6.1-1.7-6.1-4.6 0.9-11.6 5.8-11.6 5.8 8.2-9.2 5.7-12.9 5.7-12.9-1.1-4.3-4.4-2.6-4.4-2.6-2.3 0.9-3.5 4.8-3.5 4.8-1 6.3-5.5 8-5.5 8 0.4-0.8 0.4-2.9 0.4-2.9-0.4-8.8-7.5-7.4-7.5-7.4-2.5 0.5-1 3.4-1 3.4 1.1 2.6-0.1 7-0.1 7-1.9 1.8-0.8 8-0.8 8 1.4 5.2-0.9 7.9-1.4 8.4-1.7 1.5-3.3 4.1-3.3 4.1-2 5.1-12.3 13-12.3 13-4.3 2.2-6.4 4-6.4 4-8.6 6.7-3.2 20-3.2 20 0 0 1.7 5.4 8.9 4.7 0 0 7.3-1.1 10.6-12.3 1.2-3.9 6.7-10.4 6.7-10.4 0 0 6.4-7.5 10.7-19z"/>
				<path id="&lt;Compound Path&gt;" fill-rule="evenodd" class="s0" d="m315.4 23c1 0.5 1.6 1.4 2 2.9 0.1 0.1 0.4 0.7 0.4 1.8 0 1.8-0.8 5-4.6 9.7 2.4-1.5 6.6-3.9 9.8-4.5 0.1 0 2.2 0.2 3 1.9q0.2 0.6 0.2 1.3 0 1.4-1.2 3.4l-0.1 0.1c0 0-3 2.3-7.1 4.1 1.6-0.1 3.7-0.2 5.4-0.1 0.1 0 2.5 0.5 3.1 2.3q0.6 1.5-1 3.6l-0.1 0.1c-0.1 0.1-2.8 1.5-7.5 1.2h-0.1-0.1c0 0-2.2-1-3 0.2-0.1 0.2-2.1 3.4-5.2 4.2-1.3 0.3-3.6 1.2-4 1.8-4.3 11.5-10.7 19.1-10.7 19.1-0.1 0.1-5.5 6.5-6.6 10.3-3.3 11.2-10.6 12.5-11 12.6-7.3 0.7-9.3-5-9.3-5 0-0.1-1.6-4.2-1.6-9 0-3.9 1.1-8.3 5-11.4 0-0.1 2.1-1.8 6.4-4 0.1-0.1 10.3-7.9 12.2-12.9 0-0.1 1.6-2.6 3.4-4.1 0.3-0.4 1.7-2 1.7-5.1q0-1.3-0.4-3.1c-0.1-0.1-0.3-1.8-0.3-3.6 0-1.7 0.2-3.6 1.1-4.6 0-0.1 0.5-1.9 0.5-3.9 0-0.9-0.1-2-0.5-2.8 0 0-0.4-0.9-0.4-1.8q0-0.5 0.2-1 0.4-0.8 1.6-1c0.1-0.1 2.9-0.6 5.1 1.2q2.5 2 2.8 6.5c0 0.2-0.1 1.3-0.2 2.2 1.2-0.7 3.8-2.7 4.6-7.4 0-0.2 1.3-4.1 3.6-5 0.1-0.1 1.5-0.8 2.9-0.2zm-5.9 5.3c-1 6.5-5.5 8.2-5.7 8.3l-0.8 0.3 0.4-0.8c0.3-0.5 0.4-2.1 0.4-2.7q-0.2-4.2-2.5-6c-2-1.5-4.6-1.1-4.6-1.1q-0.8 0.2-1.1 0.7c-0.4 0.9 0.3 2.2 0.3 2.2 1.2 2.8 0 7.1 0 7.3h-0.1v0.1c-1.5 1.4-1.1 6-0.8 7.7 1.4 5.5-1 8.2-1.5 8.8-1.7 1.4-3.2 4-3.2 3.9-2 5.1-12 12.8-12.5 13.2-4.2 2.2-6.3 3.9-6.3 4-8.3 6.4-3.2 19.4-3.1 19.6 0.1 0.2 1.8 5.2 8.5 4.5 0.1 0 7.2-1.3 10.4-12.1 1.2-3.9 6.5-10.2 6.7-10.5 0.1-0.1 6.5-7.6 10.7-19 0.7-1.1 4.1-2.1 4.5-2.2 2.7-0.7 4.7-3.8 4.7-3.9 1.1-1.6 3.5-0.6 3.9-0.4 4.3 0.2 6.8-1.1 7-1.2q1-1.3 1-2.3 0-0.3-0.1-0.6c-0.5-1.4-2.6-1.9-2.6-1.9-3-0.1-7.6 0.3-7.6 0.3l-0.2-0.6c4.9-1.6 8.8-4.6 9.2-4.8q1.1-1.8 1.1-3 0-0.6-0.3-1c-0.6-1.3-2.3-1.5-2.3-1.6-4.4 0.9-11.3 5.7-11.4 5.8l-0.4-0.5c7.8-8.9 5.7-12.5 5.6-12.6q-0.5-2-1.7-2.5c-1.1-0.5-2.2 0.1-2.3 0.1-2 0.9-3.3 4.5-3.3 4.5zm-19.2 28.7q0 0 0 0 0 0 0 0z"/>
				<path id="&lt;Path&gt;" class="s0" d="m303.3 35.9c0 0-0.5 2.6 0.4 3.9 0 0 2.6 1.2 3.6 3.4 0 0 0-2.3-2.8-4.1 0 0-1.8-0.1-1.2-3.2z"/>
			</g>
			<path id="&lt;Path&gt;" class="s2" d="m277.1 98.3c0 0 7.3-1.2 10.5-12.2 1.2-3.8 6.6-10.3 6.6-10.3 0 0 6.3-7.4 10.6-18.8 0.6-1 4.2-2 4.2-2 2.9-0.8 4.9-4 4.9-4 1-1.5 3.4-0.3 3.4-0.3 4.7 0.2 7.3-1.2 7.3-1.2 2-2.6 0.8-4.1-0.5-4.8 0.5 1.1 0.6 2.6-1.8 3.8 0 0-4.3 0.8-7.8 0.6 0 0-0.8-0.3-2.4 1.5 0 0-4.8 4.4-7.4 4.5 0 0-0.7 0-2.5 4.6 0 0-7.8 13.8-10.8 15.7-2.9 2-6 8.7-7.1 11.5 0 0-4.8 8.4-9.1 7.5 0 0-7.7-0.6-8.1-9l-0.4 0.5c0.2 4.2 1.6 7.7 1.6 7.7 0 0 1.7 5.4 8.8 4.7z"/>
			<path id="&lt;Path&gt;" class="s2" d="m296.1 26.8c0 0 8.8 0.8 6.9 9.7l0.6-1.1c0 0 1.3-9.6-6.3-9.2z"/>
			<path id="&lt;Path&gt;" class="s2" d="m316 24.6c0 0 4.6 3.7-4.9 13.9l-0.2-0.5c0 0 8.3-9.1 5.1-13.4z"/>
			<path id="&lt;Path&gt;" class="s2" d="m325.3 36.2c0 0 1.7 3.6-10 7.5l-0.1-0.5c0 0 10.3-3.1 10.1-7z"/>
		</g>
		<path id="&lt;Path&gt;" class="s0" d="m13.6 54.7c3-0.2 7.6 0.3 7.6 0.3-5.2-1.7-9.3-4.9-9.3-4.9-3.4-5.4 1.8-6.1 1.8-6.1 4.6 0.9 11.5 5.8 11.5 5.8-8.1-9.2-5.7-12.9-5.7-12.9 1.1-4.2 4.4-2.5 4.4-2.5 2.3 0.9 3.5 4.7 3.5 4.7 1 6.4 5.5 8 5.5 8-0.4-0.8-0.4-2.9-0.4-2.9 0.4-8.7 7.5-7.3 7.5-7.3 2.5 0.4 1 3.3 1 3.3-1.2 2.7 0 7 0 7 1.9 1.8 0.9 7.9 0.9 7.9-1.4 5.3 0.9 7.9 1.4 8.4 1.7 1.5 3.3 4.1 3.3 4.1 1.9 5 12.2 12.9 12.2 12.9 4.3 2.2 6.4 4 6.4 4 8.6 6.7 3.2 19.8 3.2 19.8 0 0-1.7 5.5-8.9 4.8 0 0-7 0.5-10.5-10.6-0.9-3.2-7.5-12.3-7.5-12.3 0 0-5.8-6.4-10.1-17.9-0.1-0.2-0.9-1-1.2-1.2-1.3-0.7-2.7-0.7-2.7-0.7-0.6-0.2-1.5-0.5-2-0.8-2.2-1.1-3.1-3.1-3.1-3.1-0.1-0.1-3 0.1-3 0.1-4.6 0.3-6.8-1.5-6.8-1.5-0.3-0.1-0.9-1.1-0.9-1.1-3.3-4.2 1.9-5.3 1.9-5.3z"/>
		<g id="&lt;Group&gt;">
			<g id="&lt;Group&gt;">
				<path id="&lt;Path&gt;" class="s1" d="m32.5 67.4c-0.6-1-4-2-4-2-2.8-0.7-4.8-3.8-4.8-3.8-0.9-1.4-3.3-0.3-3.3-0.3-4.4 0.2-6.9-1.1-6.9-1.1-3.2-4.1 1.8-5.1 1.8-5.1 2.9-0.2 7.3 0.2 7.3 0.2-5-1.6-8.9-4.6-8.9-4.6-3.2-5.2 1.7-5.8 1.7-5.8 4.4 0.8 11 5.5 11 5.5-7.8-8.8-5.4-12.3-5.4-12.3 1-4.1 4.2-2.5 4.2-2.5 2.1 0.9 3.3 4.6 3.3 4.6 1 6.1 5.2 7.6 5.2 7.6-0.3-0.7-0.4-2.7-0.4-2.7 0.4-8.4 7.2-7.1 7.2-7.1 2.4 0.5 1 3.2 1 3.2-1.2 2.6 0 6.7 0 6.7 1.8 1.7 0.8 7.6 0.8 7.6-1.3 5 0.8 7.5 1.3 8 1.7 1.5 3.2 3.9 3.2 3.9 1.8 4.8 11.7 12.3 11.7 12.3 4.1 2.2 6.1 3.9 6.1 3.9 8.1 6.4 3 19 3 19 0 0-1.7 5.2-8.5 4.5 0 0-7-1.1-10.1-11.7-1.1-3.7-6.3-9.9-6.3-9.9 0 0-6.1-7.2-10.2-18.1z"/>
				<path id="&lt;Compound Path&gt;" fill-rule="evenodd" class="s0" d="m25.3 35.3c2.3 1 3.5 4.6 3.5 4.8 0.7 4.5 3.2 6.4 4.4 7.1-0.2-0.9-0.2-2-0.2-2.1q0.2-4.3 2.6-6.2c2.2-1.7 4.8-1.2 4.9-1.2q1.1 0.2 1.5 1 0.2 0.5 0.2 0.9c0 0.9-0.4 1.7-0.4 1.8-0.4 0.8-0.5 1.7-0.5 2.7 0 1.8 0.5 3.5 0.5 3.7 0.9 0.9 1.1 2.6 1.1 4.3 0 1.7-0.3 3.3-0.3 3.5q-0.4 1.6-0.4 2.9c0 2.9 1.3 4.5 1.6 4.8 1.7 1.4 3.2 3.8 3.3 4 1.8 4.7 11.5 12.1 11.5 12.1 4.1 2.2 6.1 3.8 6.2 3.9 3.7 2.9 4.7 7.1 4.7 10.8 0 4.6-1.5 8.5-1.6 8.6 0 0-1.8 5.4-8.8 4.7-0.3 0-7.3-1.2-10.4-12-1.1-3.5-6.2-9.6-6.3-9.7 0-0.1-6.1-7.3-10.2-18.2-0.4-0.6-2.5-1.4-3.8-1.7-2.9-0.8-4.9-3.8-4.9-4-0.8-1.1-2.9-0.2-2.9-0.2h-0.1v0.1c-4.5 0.2-7.1-1.2-7.2-1.2l-0.1-0.1q-1.5-2-1-3.5c0.6-1.6 2.9-2.1 3.1-2.2 1.5-0.1 3.5 0 5 0.1-3.9-1.6-6.7-3.8-6.8-3.9q-1.2-1.9-1.2-3.3 0-0.7 0.3-1.2c0.7-1.6 2.7-1.8 2.9-1.9 3 0.6 6.9 2.9 9.2 4.4-3.6-4.6-4.4-7.6-4.4-9.2 0-1.1 0.3-1.7 0.3-1.7q0.6-2.1 2-2.8c1.3-0.6 2.7 0.1 2.7 0.1zm0.9 15.4c-0.1-0.1-6.6-4.7-10.7-5.5-0.1 0-1.8 0.2-2.3 1.5q-0.2 0.4-0.2 0.9 0 1.2 1 2.9c0.3 0.2 4 3 8.7 4.5l-0.1 0.7c-0.1 0-4.4-0.5-7.2-0.3-0.1 0-2.1 0.4-2.5 1.7q-0.2 0.3-0.2 0.7 0.1 0.9 1 2.1c0.2 0.1 2.6 1.3 6.7 1.1 0.3-0.2 2.6-1.1 3.6 0.5 0 0 1.9 2.9 4.6 3.6 0.3 0.1 3.5 1.1 4.2 2.1v0.1c4 10.7 10.1 17.9 10.1 18 0.2 0.2 5.3 6.3 6.4 10 3.1 10.2 9.8 11.5 9.9 11.5 6.4 0.6 8.1-4.1 8.1-4.4 0.1-0.1 4.9-12.4-3-18.6 0 0-2-1.7-6-3.8-0.4-0.3-10-7.6-11.8-12.4 0 0-1.5-2.4-3.1-3.8-0.5-0.5-2.8-3.2-1.4-8.4 0.2-1.5 0.7-6-0.7-7.3h-0.1v-0.1c-0.1-0.2-1.2-4.3 0-6.9 0 0 0.6-1.3 0.2-2.1q-0.2-0.5-1-0.7c0 0-2.5-0.4-4.4 1.1-1.4 1.1-2.2 3-2.3 5.7 0 0.5 0.1 2 0.3 2.5l0.4 0.8-0.8-0.3c-0.1-0.1-4.4-1.7-5.4-7.8 0-0.1-1.2-3.6-3.2-4.4 0 0-1.1-0.5-2.1-0.1-0.8 0.4-1.3 1.2-1.7 2.5 0 0-2 3.5 5.4 11.9z"/>
				<path id="&lt;Path&gt;" class="s0" d="m34.1 47.4c0 0 0.4 2.5-0.3 3.8 0 0-2.6 1-3.5 3.2 0 0 0-2.2 2.6-3.9 0 0 1.8-0.1 1.2-3.1z"/>
			</g>
			<path id="&lt;Path&gt;" class="s2" d="m59 106.8c0 0-6.9-1.1-10-11.6-1.1-3.7-6.3-9.8-6.3-9.8 0 0-6-7.1-10-17.9-0.6-0.9-4-1.9-4-1.9-2.8-0.7-4.7-3.8-4.7-3.8-0.9-1.4-3.2-0.3-3.2-0.3-4.4 0.2-6.9-1.1-6.9-1.1-2-2.5-0.8-3.9 0.4-4.6-0.5 1.1-0.5 2.5 1.7 3.6 0 0 4.2 0.7 7.4 0.6 0 0 0.9-0.3 2.3 1.4 0 0 4.6 4.2 7.1 4.3 0 0 0.7 0 2.4 4.4 0 0 7.4 13.1 10.2 14.9 2.8 1.9 5.7 8.3 6.8 10.9 0 0 4.6 8 8.7 7.1 0 0 7.3-0.5 7.6-8.5l0.5 0.5c-0.2 4-1.6 7.3-1.6 7.3 0 0-1.6 5.1-8.4 4.5z"/>
			<path id="&lt;Path&gt;" class="s2" d="m40.9 38.8c0 0-8.3 0.8-6.5 9.2l-0.6-1c0 0-1.2-9.1 6-8.8z"/>
			<path id="&lt;Path&gt;" class="s2" d="m22 36.7c0 0-4.4 3.5 4.7 13.2l0.2-0.4c0 0-7.9-8.7-4.9-12.8z"/>
			<path id="&lt;Path&gt;" class="s2" d="m13.2 47.8c0 0-1.6 3.4 9.5 7.1l0.1-0.5c0 0-9.8-3-9.6-6.6z"/>
		</g>
		<g id="&lt;Group&gt;">
			<g id="&lt;Group&gt;">
				<path id="&lt;Path&gt;" class="s0" d="m266.9 151.3c0 0-3.1-10.4 4.5-13.6 0 0 9.1-2.2 12.9 9 5.4 16.3 5.8 17.1 6.5 17.2 0 0 8.3-4 13.7-1.5 0 0 11.6 4 10.4 13.8 0 0-0.4 8.5-13.9 9.5 0 0-24.2-0.9-29.1-1.6 0 0-10.6-2.4-6.7-10.9 0 0 5.6-8 4.2-15.7 0 0-1.4-4.8-2.5-6.2z"/>
				<path id="&lt;Path&gt;" class="s0" d="m290.3 165.5c0 0-6.2 2.9-8.7 5.7"/>
			</g>
			<g id="&lt;Group&gt;">
				<path id="&lt;Path&gt;" class="s1" d="m268 150.9c0 0-3-8.5 4.7-11.4 0 0 5.6-2.2 10.7 8.1 0 0 4.4 17.3 6.9 17.7 0 0 7.3-3.5 12.5-1.5 0 0 8.3 1.1 9.8 11.4 0 0-0.3 8.1-12.8 9 0 0-22.7-0.5-27.1-1.7 0 0-7.7-0.3-5.7-8.6 0 0 5.1-7.8 3.5-15.6 0 0-1.5-6.1-2.5-7.4z"/>
				<path id="&lt;Path&gt;" class="s1" d="m290 165.4c0 0-5.8 2.6-8.1 5.1"/>
			</g>
			<path id="&lt;Path&gt;" class="s2" d="m272.4 140.2c0 0 3.9-2.4 8.1 3.7 0 0 2.5 2.7 2.8 5.1 0 0 2.9 12.9 6.1 16 0 0-5.8 3.3-7.4 4.6q-0.1 0.1-0.2 0.2c-1.1 1.2 4.1-2.7 1.2-9.3 0 0-2.7-8.5-3.1-11.8 0 0-1.5-6.2-7.5-8.5z"/>
			<path id="&lt;Path&gt;" class="s2" d="m286.6 167.6c0 0 10.6-7.9 19.8-2.4 0 0 7.9 5.6 5.4 11.9 0 0-1.1 10.2-26.1 6.3 0 0 21.3-1 22.1-5.6 0 0 2.9-7.3-3.3-8.7 0 0-3.5-3.9-17.9-1.5z"/>
			<path id="&lt;Path&gt;" class="s0" d="m283 170.1l0.7 0.3c0.9-1.7 5.8-5 5.9-5.1l-0.4-0.6c-0.2 0.2-5.2 3.5-6.2 5.4z"/>
		</g>
		<g id="&lt;Group&gt;">
			<g id="&lt;Group&gt;">
				<path id="&lt;Path&gt;" class="s0" d="m66.2 157c0 0 3.1-10.4-4.5-13.6 0 0-9.1-2.2-12.8 9-5.4 16.3-5.8 17.1-6.5 17.2 0 0-8.3-4-13.8-1.6 0 0-11.5 4.1-10.3 13.8 0 0 0.4 8.5 13.9 9.5 0 0 24.2-0.9 29-1.5 0 0 10.6-2.5 6.7-10.9 0 0-5.6-8.1-4.2-15.7 0 0 1.4-4.8 2.5-6.2z"/>
				<path id="&lt;Path&gt;" class="s0" d="m42.9 171.2c0 0 6.1 2.9 8.6 5.7"/>
			</g>
			<g id="&lt;Group&gt;">
				<path id="&lt;Path&gt;" class="s1" d="m65.1 156.6c0 0 3.1-8.5-4.6-11.4 0 0-5.6-2.2-10.8 8.1 0 0-4.3 17.3-6.9 17.7 0 0-7.3-3.6-12.4-1.5 0 0-8.3 1.1-9.8 11.3 0 0 0.3 8.1 12.8 9.1 0 0 22.6-0.6 27-1.8 0 0 7.7-0.2 5.7-8.6 0 0-5-7.7-3.5-15.5 0 0 1.5-6.1 2.5-7.4z"/>
				<path id="&lt;Path&gt;" class="s1" d="m43.2 171.1c0 0 5.7 2.6 8.1 5.1"/>
			</g>
			<path id="&lt;Path&gt;" class="s2" d="m60.7 145.9c0 0-3.8-2.3-8.1 3.8 0 0-2.4 2.6-2.8 5 0 0-2.9 12.8-6 16 0 0 5.8 3.2 7.3 4.6q0.2 0.1 0.3 0.2c1 1.2-4.1-2.7-1.2-9.4 0 0 2.7-8.4 3-11.6 0 0 1.5-6.2 7.5-8.6z"/>
			<path id="&lt;Path&gt;" class="s2" d="m46.5 173.3c0 0-10.5-7.9-19.7-2.4 0 0-7.9 5.5-5.4 11.8 0 0 1.2 10.2 26.1 6.3 0 0-21.3-0.9-22.1-5.5 0 0-2.8-7.3 3.3-8.8 0 0 3.5-3.8 17.8-1.4z"/>
			<path id="&lt;Path&gt;" class="s0" d="m43.6 171c0 0 5 3.3 5.9 5.1l0.6-0.3c-1-2-5.9-5.3-6.1-5.4z"/>
		</g>
		<g id="&lt;Group&gt;">
			<path id="&lt;Path&gt;" class="s11" d="m71.8 58.9l2-2 3.5-3.5c0 0 6.9-6.7 12.3-10.2 1.3-0.8 4.9-3.6 8.4-4.3 1.1-0.3 1.8-0.6 1.9-0.9 2.8-7.3 8.5-8.6 10.7-8.9 4.5-0.7 9.4 2 11.9 2 6.4 0.1 5.5-1 5.5-1l5.3-1.1c0 0-2.8-4.8-11.7-9.3 0 0-3.6-3-10.8-1.6-7.2 1.4-17.4 3.1-20.8 3.7l-3.8 1.8c0 0-9 4.3-11.4 16.4-2.4 12.2-2.9 14.5-2.9 14.5l-2.5-1.5c0 0-6.9-3.5-14.7 3.7 0 0 1.1 2.4 3.6 3.3 0 0-4.2 6.7-1.1 11.5 0 0 0.4-2.2 2.7-2.7 0 0 10.6-2.2 10.7-8.2z"/>
			<path id="&lt;Path&gt;" class="s0" d="m72.5 53.8c0.3 0.3 0.4 0.8 0.1 1.2-0.3 0.4-0.8 0.4-1.2 0.1-0.2-0.2-6.9-5.4-15.7 1.7 0.5 0.7 1.6 1.9 3.6 2.5 2.9 0.8 6.7-0.1 11.1-2.8-0.7-0.5-2-1.1-5-0.1-0.4 0.2-0.9-0.1-1-0.5-0.2-0.4 0.1-0.9 0.5-1 6.1-2.1 7.4 1.5 7.5 1.6 0.1 0.4-0.1 0.8-0.4 1-5.2 3.3-9.6 4.4-13.2 3.4-3.6-1-4.9-3.8-5-3.9-0.1-0.3-0.1-0.7 0.2-1 10.2-8.7 18.4-2.2 18.5-2.2z"/>
			<path id="&lt;Path&gt;" class="s0" d="m72 58.2c0 0.1 0.2 8.7-10.7 11 0 0-2.3 0.7-3.4 2.9-0.2 0.3-0.5 0.4-0.8 0.4-0.3 0-0.6-0.1-0.7-0.4-0.2-0.3-3.5-6.6 0.6-11.5 0.2-0.3 0.8-0.4 1.1-0.1 0.2 0.2 0.3 0.5 0.3 0.7q0 0.3-0.2 0.5c-1.1 1.3-1.5 2.8-1.5 4.3-0.1 1.5 0.3 3 0.6 4 1.5-1.8 3.5-2.4 3.6-2.4 8.7-1.9 9.4-7.8 9.5-9.1q0-0.2 0-0.2 0 0 0-0.1c0-0.4 0.3-0.8 0.8-0.8 0.4 0 0.8 0.4 0.8 0.8z"/>
			<path id="&lt;Path&gt;" class="s13" d="m82.3 25.7c0 0-2.8-0.9-3 8-0.1 8.9-0.3 16.3-0.3 16.3l-8 8.9 0.9-8.2c0 0 2-16 3.5-18 1.6-2 6.9-7 6.9-7z"/>
		</g>
		<path id="&lt;Compound Path&gt;" fill-rule="evenodd" class="s0" d="m117.1 16.2c12.6 6.1 15.2 11.5 15.2 11.5v0.1c0 0 0 0 0 0 0.8 0.1 1.6 0.3 2.5 0.5 5.3 1.7 8.9 6.7 8.9 12.2q0 0.5-0.1 1.1-0.2 2.4-0.2 4.3c0 4.8 0.9 7.4 1.8 8.2l1.1 0.7c2.7 1.8 7.8 5.1 7.8 12.9q0 2.1-0.5 4.5c-2.8 12.3-7.3 15.2-18.6 19.7-1.3 1.1-3.4 3.1-3.9 4.3-0.5 1.4-1.5 2.4-2.9 2.9-2.1 0.7-4.9 0-8.3-2-0.2-0.2-6.1-3.9-11.3 2.1-0.2 0.4-8.1 9.7-35.8-11.2-0.6-0.3-3.8-2.7-3.8-9.3q0-0.1 0-0.1l2.4-29.8c1-12.9 2.8-17.7 8.7-23.3 4.7-4.5 12.2-5.7 17.6-6.6 1.4-0.2 2.6-0.4 3.5-0.6l0.7-0.2c6.7-1.6 13-3 15.2-1.9zm-0.9 2c-1.8-0.8-9.9 1.1-13.8 2.1l-0.7 0.1c-1 0.3-2.2 0.5-3.6 0.7-5.2 0.9-12.2 2-16.4 6-5.4 5.2-7.1 9.7-8.1 21.9 0 0-2.3 28.4-2.4 29.7 0 5.7 2.7 7.4 2.8 7.4q0.1 0.1 0.1 0.1c25.7 19.4 32.8 11.7 32.8 11.6 6.4-7.6 14.2-2.6 14.2-2.6 3.5 2.1 5.4 2.1 6.4 1.8 0.9-0.4 1.3-1 1.5-1.6 0.9-2.3 4.3-5 4.7-5.3q0.1-0.1 0.3-0.2c11-4.4 14.8-6.8 17.4-18.1 2.1-9.6-3.4-13.2-6.3-15.1l-1.3-0.9c-3-2.5-2.8-10.1-2.4-14.4 0.5-4.9-2.6-9.5-7.2-10.9-3.5-1.1-5.4-0.4-7.3 0.3-1 0.4-2 0.8-3.1 0.9-1.2 0.1-2.6-0.3-4.3-0.8-3.5-1-8.2-2.4-13.7 0.4-5.2 2.7-7.2 8.5-7.2 8.5v0.1c0 0-0.2-7.3 6.2-10.6 6.3-3.2 11.7-1.6 15.3-0.5 1.4 0.4 2.7 0.8 3.4 0.7 0.9-0.1 1.7-0.4 2.6-0.7 1.2-0.5 3.1-1.3 6-1-4.6-4.6-14.3-8.9-15.9-9.6z"/>
		<path id="&lt;Path&gt;" class="s0" d="m96.9 39.1h0.1c-3.6 0.4-10.9 7.2-24.5 20-0.5 0.4-1.2 0.4-1.6-0.1-0.4-0.4-0.4-1.1 0.1-1.5 20.8-19.2 25.9-18.4 25.9-18.4z"/>
		<path id="&lt;Path&gt;" class="s8" d="m113.1 95c0 0-9.4 6.7-23.1 1.7 0 0-16.1-3.9-18.1-27.8 0 0-6.1 2.6-2.8 14.7 0 0 9.8 24.7 37 18.5 0 0 4.5-0.9 7-7.1z"/>
		<path id="&lt;Compound Path&gt;" fill-rule="evenodd" class="s0" d="m72.1 69.2c0.1 11 4.7 19.1 12.7 24.1 5.9 3.9 12 4.4 12 4.4 9.2 1.2 17.1-3.9 17.2-4h0.1l-0.2 0.4c-2.3 10.3-15.7 10.5-23.1 9-18.8-4.7-23.4-21.3-23.4-21.4-2.8-11 3.8-13.4 4.1-13.5l0.7-0.3zm24.6 30.2c-0.3 0-24.8-2.8-26-29.3-1 0.8-2.3 3-2.3 6.7 0 1.3 0.1 2.8 0.6 4.5 0 0.2 4.4 15.7 22.2 20.2 0.1 0 12.5 3 19.5-2.8 0 0 1.1-1.3 2.2-3.4-2.1 2.2-9.7 5-16.2 4.1z"/>
		<path id="&lt;Path&gt;" class="s2" d="m141.8 66.5c-0.6 1.4 0.4 3.2 2.3 4.1 1.8 0.9 3.9 0.6 4.5-0.8 0.7-1.3-0.3-3.1-2.2-4-1.9-1-3.9-0.6-4.6 0.7z"/>
	</g>
</svg>