<svg width="127" height="350" viewBox="0 0 127 350" fill="none" xmlns="http://www.w3.org/2000/svg">
    <style>
    @keyframes down-ani{
        100%{
            transform:translateY(50px);
        }
    }
    .down{
        animation:down-ani infinite 2s;
    }
    </style>
<path d="M2 97.6658H125M64 2.17964C64 2.17964 2 -3.36472 2 47.1505C2 97.6658 2 97.6658 2 97.6658H125C125 97.6658 125 97.6658 125 47.1505C125 -3.36472 64 2.17964 64 2.17964Z" stroke="black" stroke-width="4"/>
<path d="M2 149.062C2 200.458 64 194.817 64 194.817C64 194.817 125 200.458 125 149.062V97.6658H63.5H2V149.062Z" stroke="black" stroke-width="4"/>
<path d="M69 37C69 41.2091 68.2496 44.9242 67.1174 47.5121C66.55 48.809 65.926 49.7329 65.3346 50.3047C64.7528 50.8672 64.3048 51 64 51C63.6952 51 63.2472 50.8672 62.6654 50.3047C62.074 49.7329 61.45 48.809 60.8826 47.5121C59.7504 44.9242 59 41.2091 59 37C59 32.7909 59.7504 29.0758 60.8826 26.4879C61.45 25.191 62.074 24.2671 62.6654 23.6953C63.2472 23.1328 63.6952 23 64 23C64.3048 23 64.7528 23.1328 65.3346 23.6953C65.926 24.2671 66.55 25.191 67.1174 26.4879C68.2496 29.0758 69 32.7909 69 37Z" stroke="black" stroke-width="4"/>
<line x1="64" y1="2" x2="64" y2="21" stroke="black" stroke-width="4"/>
<line x1="64" y1="53" x2="64" y2="82" stroke="black" stroke-width="4"/>
<g class="down">
    <line x1="34.4142" y1="203.586" x2="64.4142" y2="233.586" stroke="black" stroke-width="4"/>
    <line x1="61.5858" y1="233.586" x2="90.5858" y2="204.586" stroke="black" stroke-width="4"/>
    <line x1="34.4142" y1="218.586" x2="64.4142" y2="248.586" stroke="black" stroke-width="4"/>
    <line x1="61.5858" y1="248.586" x2="90.5858" y2="219.586" stroke="black" stroke-width="4"/>
    <line x1="34.4142" y1="234.586" x2="64.4142" y2="264.586" stroke="black" stroke-width="4"/>
    <line x1="61.5858" y1="264.586" x2="90.5858" y2="235.586" stroke="black" stroke-width="4"/>
</g>
</svg>
